<?xml version="1.0" encoding="UTF-8" standalone="no"?>
<svg
   xml:space="preserve"
   width="1920"
   height="1080"
   viewBox="0 0 508 285.75"
   version="1.1"
   id="svg631"
   sodipodi:docname="bg_cmp_division_lockup.svg"
   inkscape:version="1.2 (dc2aeda, 2022-05-15)"
   xmlns:inkscape="http://www.inkscape.org/namespaces/inkscape"
   xmlns:sodipodi="http://sodipodi.sourceforge.net/DTD/sodipodi-0.dtd"
   xmlns="http://www.w3.org/2000/svg"
   xmlns:svg="http://www.w3.org/2000/svg"><sodipodi:namedview
     id="namedview633"
     pagecolor="#ffffff"
     bordercolor="#000000"
     borderopacity="0.25"
     inkscape:showpageshadow="2"
     inkscape:pageopacity="0.0"
     inkscape:pagecheckerboard="0"
     inkscape:deskcolor="#d1d1d1"
     showgrid="false"
     inkscape:zoom="0.65833333"
     inkscape:cx="896.96203"
     inkscape:cy="347.08861"
     inkscape:window-width="2068"
     inkscape:window-height="1161"
     inkscape:window-x="0"
     inkscape:window-y="30"
     inkscape:window-maximized="0"
     inkscape:current-layer="svg631" /><defs
     id="defs525"><clipPath
       id="a"><path
         d="M168 33h10.398v13H168Zm0 0"
         id="path516" /></clipPath><clipPath
       id="b"><path
         d="M93 .8h14V14H93Zm0 0"
         id="path519" /></clipPath><clipPath
       id="c"><path
         d="M105 .8h12V15h-12zm0 0"
         id="path522" /></clipPath><clipPath
       id="a-5"><path
         d="M872 .398h5V867h-5Zm0 0"
         id="path2011" /></clipPath><clipPath
       id="b-6"><path
         d="M1789 528h83.898v103H1789Zm0 0"
         id="path2014" /></clipPath></defs><rect
     style="display:none;fill:#000000;stroke:#ff0000;stroke-width:0.600001;stroke-linecap:square"
     id="rect2009"
     width="536.93671"
     height="322.32278"
     x="-14.066456"
     y="-7.636076"
     sodipodi:insensitive="true" /><g
     fill="#fff"
     id="g537"><path
       d="M303.211 21.693h3.71l-.349 1.428h-1.778l-.176.751h1.855l-.323 1.324h-1.83l-.44 1.88h-1.918zm4.215 0h1.917l-1.249 5.384h-1.916zm2.418.032.124-.016c.615-.073 1.38-.122 1.802-.122.703 0 1.249.081 1.662.25.528.219.844.695.844 1.268a2 2 0 0 1-.484 1.324c-.272.315-.518.468-1.028.622l-.124.04c.053.04.07.057.098.08.149.17.597 1.042.975 1.906h-2.11a29 29 0 0 0-.712-1.84l-.422 1.84h-1.864zm1.416 2.535c.616 0 1.046-.364 1.046-.88q-.002-.412-.598-.412a1.3 1.3 0 0 0-.298.032l-.29 1.243c.06.008.07.017.14.017m7.567-2.567h4.65l-.325 1.558h-1.38l-.914 3.826h-1.917l.914-3.826h-1.496zm2.928 4.422a.467.467 0 0 1 .468.466.466.466 0 0 1-.468.468.46.46 0 0 1-.467-.468c0-.26.207-.466.467-.466m0 .876a.41.41 0 0 0 .41-.408.41.41 0 0 0-.41-.41.41.41 0 0 0-.409.408c0 .23.181.41.409.41m-.181-.648c.024-.002.027-.004.074-.008.047-.003.067-.005.087-.005q.23.002.23.173c0 .069-.03.11-.091.134l-.007.002.009.009c.016.014.07.096.116.17h-.176a3 3 0 0 0-.092-.161v.161h-.15zm.168.224q.064 0 .065-.058 0-.055-.063-.056l-.02.002v.11q.009.003.018.002"
       id="path527" /><path
       d="M313.902 26.94c.539.16 1.128.25 1.679.25.747 0 1.319-.17 1.81-.525.546-.388.898-.985.898-1.525 0-.364-.158-.695-.44-.929-.22-.177-.448-.315-.914-.533l-.378-.177q-.185-.096-.185-.202c0-.194.246-.339.58-.339.25 0 .548.072 1.118.259l.393-1.458a4.8 4.8 0 0 0-1.255-.174c-1.566 0-2.77.856-2.77 1.962 0 .581.387.993 1.354 1.445.457.21.536.266.536.412 0 .218-.237.355-.624.355-.343 0-.783-.105-1.38-.323h-.001zm-11.465 25h-.116v.176h.116c.057 0 .093-.035.093-.087s-.036-.088-.093-.088m.006.287h-.122v.24h-.125v-.638h.247c.132 0 .211.09.211.199 0 .108-.079.199-.21.199m.603-.287h-.118v.169h.118c.055 0 .09-.036.09-.085s-.035-.084-.09-.084m.097.527-.125-.255h-.09v.255h-.124v-.638h.25c.13 0 .207.088.207.195 0 .09-.054.145-.116.168l.142.275zm.293 0v-.638h.42v.11h-.296v.15h.253v.112h-.253v.155h.297v.111zm.763.006c-.096 0-.17-.02-.233-.085l.081-.08c.04.04.095.053.154.053q.112 0 .113-.079 0-.034-.02-.053c-.012-.012-.026-.018-.056-.023l-.077-.01a.2.2 0 0 1-.124-.053.17.17 0 0 1-.045-.126c0-.114.084-.194.222-.194.088 0 .152.022.207.074l-.08.079c-.04-.04-.088-.044-.13-.044-.067 0-.1.036-.1.08q0 .026.02.046a.1.1 0 0 0 .059.025l.075.011a.2.2 0 0 1 .122.05q.05.049.05.135c0 .124-.104.194-.237.194m.4-.006v-.638h.42v.11h-.296v.15h.252v.112h-.252v.155h.296v.111zm.965 0-.253-.392v.392h-.125v-.638h.112l.253.39v-.39h.125v.638zm.55-.527v.527h-.125v-.527h-.167v-.111h.459v.11zm.313.527v-.638h.421v.11h-.296v.15h.252v.112h-.252v.155h.296v.111zm.9-.488q-.03-.04-.092-.04h-.095v.417h.095q.062 0 .093-.04c.023-.028.027-.074.027-.17 0-.098-.004-.138-.027-.167m.087.427a.23.23 0 0 1-.169.061h-.23v-.638h.23c.066 0 .126.018.169.06.072.072.064.16.064.256s.008.19-.064.261m.745-.207h-.13v.157h.13c.057 0 .084-.036.084-.08 0-.042-.027-.077-.084-.077m-.008-.26h-.122v.148h.122c.053 0 .083-.03.083-.074s-.03-.073-.083-.073m.02.527h-.267v-.638h.257c.125 0 .197.07.197.179a.15.15 0 0 1-.079.132.15.15 0 0 1 .088.143c0 .12-.081.184-.195.184m.612-.262v.262h-.124v-.262l-.192-.377h.136l.12.258.117-.257h.135zm7.553-1.155c.035 0 .06.03.06.062v1.783c0 .033-.025.063-.06.063h-.16a.065.065 0 0 1-.061-.063v-1.783a.065.065 0 0 1 .062-.062zm2.088 1.681c-.232 0-.396-.186-.396-.42 0-.237.164-.42.396-.42s.396.183.396.42c0 .234-.164.42-.396.42m0-1.102a.673.673 0 0 0-.679.682c0 .388.302.681.68.681a.67.67 0 0 0 .678-.681.673.673 0 0 0-.679-.682m-.75 1.145c.036.043.006.076-.013.09a.7.7 0 0 1-.414.128c-.402 0-.669-.293-.669-.681s.267-.684.669-.684c.159 0 .304.045.414.129.02.013.046.043.014.089l-.075.105c-.03.04-.065.03-.095.01a.47.47 0 0 0-.25-.077c-.235 0-.391.188-.391.428s.156.426.39.426a.5.5 0 0 0 .246-.079c.03-.016.062-.03.094.014zm-2.51-.04c-.232 0-.396-.189-.396-.423 0-.237.164-.42.396-.42.229 0 .396.183.396.42 0 .234-.167.423-.396.423m.614-1.07h-.159a.063.063 0 0 0-.062.062v.108a.5.5 0 0 0-.423-.207c-.35 0-.652.277-.652.681 0 .41.302.684.65.684a.51.51 0 0 0 .425-.207v.113c0 .033.03.06.062.06h.16a.06.06 0 0 0 .059-.06v-1.172a.06.06 0 0 0-.06-.062m7.458 1.229c.013.032-.003.065-.044.065h-.177c-.033 0-.06-.016-.07-.049l-.33-.884-.333.884q-.022.05-.07.049h-.16q-.048.002-.07-.049l-.336-.889-.332.889q-.02.05-.07.049h-.167q-.048 0-.07-.049l-.328-.889-.34.889a.07.07 0 0 1-.07.049h-.16q-.047.002-.069-.049l-.331-.889-.332.889c-.01.033-.038.049-.07.049h-.172c-.04 0-.057-.033-.043-.065l.45-1.178q.02-.051.07-.05h.194q.048-.001.07.05l.318.86.32-.86q.022-.051.07-.05h.192q.048-.001.07.05l.318.86.318-.86q.02-.051.07-.05h.191q.048-.001.07.05l.323.86.315-.86q.022-.051.07-.05h.194q.05-.001.07.05zm-10.915-.316-.123-.323c-.011-.026-.033-.051-.081-.051h-.162c-.04 0-.072.027-.054.078l.164.424a.7.7 0 0 1-.172.02c-.398 0-.681-.312-.681-.721 0-.41.283-.722.681-.722s.682.312.682.722a.73.73 0 0 1-.254.573m-.428-1.562a.973.973 0 0 0-.983.989c0 .565.439.988.983.988a1 1 0 0 0 .269-.035l.106.275q.013.047.073.049h.17c.04 0 .07-.027.05-.078l-.138-.361a.98.98 0 0 0 .454-.838.973.973 0 0 0-.984-.99m2.344.65a.063.063 0 0 1 .062.062v1.172c0 .033-.03.06-.062.06h-.159c-.03 0-.059-.025-.059-.057v-.108c-.08.118-.218.2-.42.2-.337 0-.544-.224-.544-.555v-.714c0-.033.03-.06.061-.06h.16a.06.06 0 0 1 .059.06v.668c0 .215.113.358.336.358.219 0 .348-.148.348-.356v-.67c0-.033.03-.06.06-.06zm9.867-12.671q0-.485-.046-.958h-8.764l-1.486 3.085h6.511c0 .513-1.968 3.769-5.076 3.641-3.743-.154-5.589-3.384-5.589-5.743 0-2.358 1.898-5.742 5.282-5.742s4.46 1.743 5.075 2.769l3.18-1.505c-1.418-3.23-4.724-4.917-8.224-4.917-5.047 0-9.139 4.195-9.139 9.37a9.6 9.6 0 0 0 .42 2.814l1.194-.519.03.098a8.1 8.1 0 0 0 2.8 4.057 7.66 7.66 0 0 0 4.695 1.599c.743 0 1.458-.076 2.123-.224l.076-.017.493 1.245c4.021-1 6.445-4.316 6.445-9.053"
       id="path529" /><path
       d="M317.059 47.012a10 10 0 0 1-2.088.212 7.84 7.84 0 0 1-4.806-1.635 8.3 8.3 0 0 1-2.833-4.052l-1.022.444.03.094.061.178a9 9 0 0 0 .138.357q.035.085.072.168.044.105.092.21l.085.178.097.192.091.175.11.196q.044.08.092.159a10 10 0 0 0 .2.32q.046.07.094.139.067.1.137.197l.111.15a9 9 0 0 0 .251.322l.152.18.11.127a9 9 0 0 0 .261.28l.098.097.192.188q.061.058.124.114l.18.16a8 8 0 0 0 .327.269l.119.094a9 9 0 0 0 .316.23l.084.056q.126.086.255.168l.13.08q.11.066.223.13.068.04.138.078.118.065.24.126l.122.062a9 9 0 0 0 .364.169l.06.024q.159.068.32.13.066.025.133.048.129.048.26.09.071.024.143.046.135.043.274.08l.127.035a9 9 0 0 0 .402.095l.03.006q.19.04.383.07l.134.02a8 8 0 0 0 .438.053q.147.014.295.023l.135.009q.213.01.429.01h.003a13 13 0 0 0 .577-.014q.218-.009.432-.027l.055-.005a12 12 0 0 0 .885-.113l.136-.025a10 10 0 0 0 .428-.089zm10.502-14.88-1.13-1.205v15.78l1.13-1.148zm6.789 6.601a1.193 1.193 0 1 1-2.386 0 1.193 1.193 0 0 1 2.386 0"
       id="path531" /><path
       d="M336.513 47.502h-.149v-.289l-.113.286h-.101l-.113-.287v.29h-.149v-.585h.173l.14.345.14-.345h.172zm-.754-.452h-.166v.452h-.15v-.452h-.167v-.133h.483zm-5.63-2.747.05-10.821h6.61v-3.538h-11.024l.504.545 1.472 1.57v13.574l-.079.08v.001l-1.23 1.252v.003l-.803.818h2.033l9.131-.004.042-3.478zm-32.526-4.377a1.193 1.193 0 1 1 0-2.386 1.193 1.193 0 0 1 0 2.386m8.85 8.118-7.239-18.049h-5.124l1.059 2.051.613 1.181-.003.007.055.106-.016.038-5.888 14.666h2.536l2.205-5.73 5.512.076 1.691 4.359-.765 1.295z"
       id="path533" /><path
       d="m295.616 33.35-.56-1.078-6.451 15.772h1.111z"
       id="path535" /></g><g
     id="g2140"><path
       fill="#fff"
       d="M218 35.84h-1.975v5.135H214.3v-5.134h-1.973v-1.483H218zm.203-1.483h5.275v1.38h-3.55v1.159h3.245v1.337h-3.244v1.26h3.643v1.482h-5.37zm10.186 2.365c-.09-.668-.61-1.02-1.334-1.02-1.11 0-1.539.983-1.539 1.963 0 .985.429 1.968 1.54 1.968.806 0 1.27-.464 1.334-1.225h1.725c-.093 1.705-1.345 2.707-3.022 2.707-2.003 0-3.3-1.53-3.3-3.45 0-1.917 1.297-3.446 3.3-3.446 1.427 0 2.975.908 3.022 2.503zm2.067-2.365h1.726v2.41h2.27v-2.41h1.725v6.618h-1.726v-2.724h-2.27v2.724h-1.725zm-13.532 10.64c-.092-.666-.612-1.02-1.334-1.02-1.113 0-1.539.983-1.539 1.966s.426 1.965 1.54 1.965c.806 0 1.27-.463 1.334-1.224h1.723c-.092 1.706-1.343 2.707-3.02 2.707-2.003 0-3.3-1.529-3.3-3.448s1.297-3.449 3.3-3.449c1.426 0 2.974.91 3.02 2.503zm2.067-2.364h1.724v2.412h2.271v-2.412h1.725v6.618h-1.725v-2.723h-2.272v2.723h-1.723z"
       id="path539" /><path
       fill="#fff"
       d="M227.231 46.787h1.502L228 44.47h-.018zm-.11-4.154h1.75l2.477 6.618h-1.8l-.408-1.186h-2.306l-.418 1.186h-1.771z"
       id="path541" /><path
       fill="#fff"
       d="M231.292 42.633h1.723v5.137h3.087v1.48h-4.81zm5.106 0h1.725v5.137h3.087v1.48h-4.812zm5.108 0h5.273v1.382h-3.55v1.158h3.244v1.335h-3.244v1.262h3.644v1.48h-5.367zm5.774 0h1.771l2.298 4.08h.019v-4.08h1.622v6.618h-1.771l-2.299-4.123h-.018v4.123h-1.622zm12.44 6.618h-1.114l-.1-.722c-.454.639-1.234.862-1.846.862-2.001 0-3.3-1.529-3.3-3.448s1.299-3.449 3.3-3.449c1.373 0 2.836.732 2.995 2.391h-1.725c-.056-.564-.61-.908-1.306-.908-1.112 0-1.539.983-1.539 1.966s.427 1.965 1.54 1.965c.852 0 1.427-.397 1.518-1.001h-1.204v-1.278h2.78z"
       id="path543" /><g
       clip-path="url(#a)"
       transform="translate(171.165 25.03)scale(.52961)"
       id="g547"><path
         fill="#fff"
         d="M168.238 33.238h9.961v2.61h-6.707v2.187h6.13v2.52h-6.13v2.383h6.88v2.796h-10.134z"
         id="path545" /></g><path
       fill="#fff"
       d="M213.767 25.61h4.688l-.442 1.805h-2.245l-.223.947h2.344l-.408 1.672h-2.313l-.556 2.375h-2.421zm5.323 0h2.423l-1.576 6.799h-2.423z"
       id="path549" /><g
       clip-path="url(#b)"
       transform="translate(171.165 25.03)scale(.52961)"
       id="g553"><path
         fill="#fff"
         d="M99.637 7.219c1.468 0 2.496-.867 2.496-2.098 0-.656-.485-.984-1.426-.984-.273 0-.422.02-.715.078l-.691 2.965c.148.02.168.039.336.039m-3.375-6.047.293-.035c1.468-.176 3.293-.29 4.297-.29 1.68 0 2.976.192 3.964.594 1.258.52 2.012 1.657 2.012 3.024 0 1.176-.398 2.289-1.152 3.156-.653.75-1.239 1.117-2.453 1.484l-.293.094c.125.098.168.137.23.196.356.402 1.426 2.48 2.328 4.539h-5.035c-.648-1.829-.836-2.309-1.695-4.387l-1.008 4.387h-4.445z"
         id="path551" /></g><path
       fill="#fff"
       d="M233.49 25.61h5.873l-.41 1.968h-1.744l-1.155 4.83h-2.42l1.155-4.83h-1.89zm3.682 6.155q.078 0 .08-.072 0-.07-.078-.07c-.013 0-.015 0-.025.002v.138zm-.214-.283.094-.008c.06-.005.084-.007.11-.007q.29.001.289.22c0 .084-.035.138-.114.167l-.008.003a1.6 1.6 0 0 1 .157.227h-.221a6 6 0 0 0-.117-.205v.205h-.19zm.228.819a.516.516 0 1 0 0-1.032.515.515 0 0 0-.515.515c0 .29.228.517.515.517m0-1.107a.59.59 0 1 1 0 1.182.58.58 0 0 1-.588-.592c0-.329.261-.59.588-.59"
       id="path555" /><g
       clip-path="url(#c)"
       transform="translate(171.165 25.03)scale(.52961)"
       id="g559"><path
         fill="#fff"
         d="M105.938 13.61c1.285.382 2.69.597 4.003.597 1.782 0 3.145-.406 4.317-1.254 1.3-.922 2.14-2.348 2.14-3.637 0-.867-.378-1.656-1.046-2.214-.528-.422-1.07-.75-2.184-1.27l-.902-.426c-.293-.152-.438-.304-.438-.48 0-.461.586-.809 1.383-.809.598 0 1.305.176 2.664.617l.938-3.472a11.3 11.3 0 0 0-2.993-.414c-3.734 0-6.605 2.039-6.605 4.675 0 1.387.922 2.368 3.226 3.446 1.09.5 1.282.636 1.282.984 0 .516-.567.844-1.489.844-.82 0-1.867-.25-3.293-.77z"
         id="path557" /></g><path
       fill="#fff"
       d="m177.152 41.63-.275 1.439 2.745-1.177a6.4 6.4 0 0 1-.418-1.144z"
       id="path561" /><path
       fill="#fff"
       d="m199.74 47.393-2.256-2.166c.885-.608 1.636-1.32 2.216-2.113q.011-.015.022-.034l5.487-5.698.165-.176.716-.745-6.702-6.435-1.507 1.567-1.66 1.732-1.134 1.18-2.133 2.223h.002l-.186.193.622.595 2.888 2.816c-.632.598-1.435 1.111-2.341 1.49h-.003l-1.905-1.831-1.872-1.798-1.272-1.206 3.024-3.151 1.52-1.582 1.651-1.72 4.128-4.299 10.863 10.398zm1.4-9.134q.075-.486.076-.945c0-1.802-.815-3.7-2.187-5.116l.358-.373 5.553 5.331-4.597 4.786c.488-1.134.802-2.535.802-3.538q0-.066-.005-.145m-4.615 1.83-2.622-2.553 2.22-2.312c.79.658 1.374 1.445 1.682 2.31a4 4 0 0 1-.077.425c-.188.766-.593 1.482-1.203 2.13m-.437 3.816c-.403.207-.834.393-1.276.555-1.521.562-3.162.845-4.873.845-2.428 0-4.727-.575-6.646-1.669-1.062-.604-1.956-1.337-2.65-2.177a7.4 7.4 0 0 1-.702-.996 6.4 6.4 0 0 1-.802-2.185 6 6 0 0 1-.082-.964c0-1.163.334-2.282.994-3.331l1.764 1.787a4.3 4.3 0 0 0-.052 2.285 4.9 4.9 0 0 0 .613 1.425c.228.362.507.705.826 1.024.875.875 2.064 1.564 3.438 1.992a11 11 0 0 0 3.3.49c.924 0 1.839-.11 2.718-.328a10 10 0 0 0 1.434-.47c1.038-.433 1.953-1.037 2.646-1.744.7-.722 1.165-1.527 1.378-2.392.082-.35.128-.699.128-1.042 0-.983-.373-2.096-.977-2.948l1.504-1.564c1.285 1.34 2.048 3.126 2.048 4.816 0 .31-.026.635-.08.964-.234 1.417-.987 2.766-2.177 3.904a10.3 10.3 0 0 1-2.474 1.723m-17.341-5.563.008.037c-.004.05-.008.098-.008.135 0 .531.325 1.791.457 2.294v.002l-1.725.738 1.647-8.577.674.669c-.755 1.15-1.14 2.385-1.14 3.674 0 .335.029.672.087 1.028m4.028 1.012c-.019-.03-.044-.056-.062-.085a4.5 4.5 0 0 1-.565-1.31l-.027-.143a4.8 4.8 0 0 1 .598-1.288l2.097 2.075zm7.96 1.193 1.802 1.732a11 11 0 0 1-2.598.31c-1.107 0-2.177-.16-3.182-.472-.132-.041-.263-.089-.395-.134l3.997-1.798zm-17.613 7.144 3.873-21.575 5.53 5.237 1.731 1.643 1.324 1.254 3.142 2.995v1.368l1.335 1.285-4.173 1.897c-.94-.398-1.762-.933-2.404-1.572q-.019-.024-.041-.046l3.203-1.496-7.529-7.01-.149-.15-.18.971-1.78 9.27-.275 1.438.472-.201.002-.012 2.42-1.037c.378.799.92 1.54 1.594 2.201zm18.772-14.314-3.231 3.366-2.84-2.692c1.22-.527 2.652-.835 4.185-.835.649 0 1.28.058 1.886.161m-2.33-4.384c1.755 0 4.099.451 5.584.993l-.066.069-1.65 1.721-.007.006a10.8 10.8 0 0 0-3.418-.544c-2.133 0-4.069.593-5.509 1.558l-.023-.021-1.731-1.64-.153-.148c1.892-1.144 4.348-1.994 6.973-1.994m20.755 7.386v-.004l-.002.002-11.108-10.62-3.736 3.892c-1.546-.596-3.972-1.076-5.817-1.076-2.686 0-5.452.916-7.386 2.113l-5.21-4.94v-.005l-.005.002-.003-.004-.002.004-1.864.195-4.021 22.026 1.872.194.002-.004 8.488-3.715q.019.02.04.037c2.019 1.781 5.05 2.917 8.44 2.917 2.354 0 4.531-.546 6.32-1.477l3.414 3.277 10.578-11.019v-1.793l.002-.002z"
       id="path563" /></g><path
     d="M-61.107-97.455h-4.125v-155.37h4.125z"
     style="fill:#fff;fill-opacity:1;fill-rule:nonzero;stroke:none;stroke-width:1.33323"
     transform="translate(292.422 78.797)scale(.23617)"
     id="path565" /><g
     id="g2229"
     transform="matrix(0.8260218,0,0,0.8260218,-114.01132,15.965321)"><path
       d="m 167.056,326.958 5.843,-8.765 -5.446,-8.057 h 5.245 l 2.964,5.18 2.95,-5.18 h 5.087 l -5.512,8.255 5.822,8.568 h -5.267 l -3.389,-5.711 -3.21,5.711 z m -9.738,0 v -13.215 h -5.159 v -3.607 h 14.805 v 3.607 h -5.159 v 13.215 z m -18.286,-16.823 v 16.822 h 4.248 v -5.401 h 2.26 l 2.942,5.401 h 4.896 l -4.119,-6.571 a 6.1,6.1 0 0 0 1.78,-1.915 4.94,4.94 0 0 0 0.702,-2.602 q 0,-2.702 -1.74,-4.222 -1.74,-1.509 -4.838,-1.512 z m 5.533,3.255 q 2.856,0 2.856,2.432 0,2.482 -2.9,2.482 h -1.241 v -4.913 h 1.285 z m -32.731,-10.908 c 0.359,-0.077 0.718,-0.135 1.083,-0.191 l 1.697,9.695 a 6.4,6.4 0 0 0 -1.082,0.19 z m -0.434,10.696 q 0.538,-0.384 1.141,-0.653 l -4.886,-8.52 q -0.58,0.307 -1.13,0.663 z m -2.77,5.369 q 0,-0.547 0.087,-1.072 h -9.722 q -0.036,0.51 -0.039,1.024 a 14,14 0 0 0 0.033,0.964 h 9.705 a 7,7 0 0 1 -0.064,-0.916 m 13.182,0 a 6.59,6.59 0 0 1 -6.594,6.588 6.59,6.59 0 0 1 -6.49,-5.472 l -9.14,3.351 q 0.304,1.068 0.746,2.08 l 9.08,-3.33 -7.41,6.267 a 16,16 0 0 0 1.539,1.86 l 6.931,-5.853 -4.52,7.915 a 15.6,15.6 0 0 0 2.274,1.333 l 4.248,-7.442 -1.48,8.471 a 16,16 0 0 0 2.807,0.495 l 1.383,-7.916 1.387,7.921 q 1.519,-0.13 2.94,-0.522 l -1.292,-7.344 3.71,6.462 a 16,16 0 0 0 2.863,-1.68 l -3.4,-5.926 5.2,4.392 a 16.3,16.3 0 0 0 2.215,-2.705 l -4.646,-3.922 5.69,2.083 a 16.7,16.7 0 0 0 1.208,-3.465 l -4.994,-1.829 h 5.31 a 16.4,16.4 0 0 0 -0.037,-4.004 h -9.903 c 0.24,0.685 0.376,1.426 0.376,2.192 m -13.014,-1.486 a 6.6,6.6 0 0 1 0.62,-1.647 l -9.15,-3.357 a 16,16 0 0 0 -0.605,1.66 z m 18.677,-9.317 -7.454,6.288 q 0.273,0.294 0.511,0.62 l 7.449,-6.289 q -0.244,-0.317 -0.506,-0.62 m -3.695,-3.161 q -0.39,-0.244 -0.8,-0.474 l -4.88,8.51 q 0.42,0.205 0.807,0.463 z m -13.035,9.124 -7.47,-6.316 c -0.348,0.38 -0.675,0.771 -0.984,1.185 l 7.453,6.301 c 0.288,-0.43 0.626,-0.822 1.002,-1.17 m 5.13,-1.72 c 0.337,0.039 0.657,0.093 0.98,0.174 l 1.697,-9.69 a 21,21 0 0 0 -0.975,-0.174 z m -38.861,9.358 v 2.933 h -1.389 v -2.933 l -2.144,-4.216 h 1.513 l 1.333,2.883 1.318,-2.883 h 1.518 z m -9.843,-4.217 v 7.15 h 2.993 c 1.271,0 2.186,-0.725 2.186,-2.058 0,-0.957 -0.55,-1.41 -0.984,-1.605 0.363,-0.174 0.886,-0.686 0.886,-1.48 0,-1.225 -0.817,-2.007 -2.21,-2.007 z m 1.398,1.245 h 1.365 c 0.588,0 0.92,0.333 0.92,0.822 0,0.495 -0.332,0.827 -0.92,0.827 H 68.57 Z m 1.453,2.901 c 0.636,0 0.936,0.393 0.936,0.876 0,0.485 -0.3,0.882 -0.936,0.882 H 68.57 v -1.756 h 1.453 z m -12.803,-4.145 v 7.15 h 2.58 c 0.746,0 1.415,-0.212 1.888,-0.686 l -10e-4,-0.002 c 0.806,-0.798 0.724,-1.842 0.724,-2.915 0,-1.078 0.082,-2.063 -0.724,-2.862 -0.472,-0.474 -1.142,-0.685 -1.887,-0.685 z m 1.399,1.246 h 1.05 c 0.485,0 0.805,0.153 1.044,0.44 0.262,0.321 0.3,0.773 0.3,1.862 0,1.082 -0.038,1.595 -0.3,1.915 -0.24,0.287 -0.56,0.44 -1.044,0.44 h -1.05 z m -7.975,5.903 v -7.149 h 4.706 v 1.245 h -3.308 v 1.676 h 2.818 v 1.246 h -2.818 v 1.736 h 3.308 v 1.246 z m -3.505,-5.904 v 5.904 h -1.398 v -5.904 h -1.866 v -1.245 h 5.13 v 1.245 z m -6.147,5.904 -2.83,-4.386 v 4.386 h -1.398 v -7.149 h 1.246 l 2.83,4.38 v -4.38 h 1.398 v 7.15 z m -10.806,0 v -7.149 h 4.708 v 1.245 h -3.31 v 1.676 h 2.82 v 1.246 h -2.82 v 1.736 h 3.309 v 1.246 z m -4.472,0.06 c -1.082,0 -1.904,-0.228 -2.604,-0.941 l 0.902,-0.904 c 0.451,0.452 1.06,0.599 1.724,0.599 0.828,0 1.268,-0.31 1.268,-0.882 0,-0.25 -0.07,-0.462 -0.223,-0.603 -0.142,-0.13 -0.3,-0.202 -0.63,-0.25 l -0.866,-0.12 c -0.61,-0.092 -1.061,-0.283 -1.381,-0.594 -0.345,-0.342 -0.513,-0.8 -0.513,-1.404 0,-1.273 0.941,-2.17 2.487,-2.17 0.985,0 1.697,0.245 2.307,0.833 l -0.882,0.875 c -0.451,-0.43 -0.996,-0.489 -1.462,-0.489 -0.747,0 -1.106,0.408 -1.106,0.903 0,0.18 0.06,0.37 0.213,0.51 a 1.2,1.2 0 0 0 0.657,0.28 l 0.845,0.119 c 0.651,0.092 1.065,0.272 1.364,0.554 0.382,0.36 0.556,0.882 0.556,1.518 0,1.382 -1.159,2.166 -2.656,2.166 m -8.54,-0.06 v -7.149 h 4.704 v 1.245 h -3.312 v 1.676 h 2.824 v 1.246 h -2.824 v 1.736 h 3.312 v 1.246 z M 10.1,317.128 v 7.15 h 1.4 v -2.852 h 1 l 1.399,2.852 1.615,-0.002 -1.593,-3.079 c 0.691,-0.256 1.3,-0.876 1.3,-1.877 0,-1.197 -0.86,-2.192 -2.318,-2.192 z m 1.4,1.246 h 1.316 c 0.61,0 1.012,0.392 1.012,0.946 0,0.55 -0.403,0.942 -1.012,0.942 H 11.5 Z m -8.204,-1.246 v 7.15 h 1.392 v -2.689 h 1.376 c 1.475,0 2.361,-1.018 2.361,-2.231 0,-1.213 -0.886,-2.23 -2.36,-2.23 z m 1.392,1.246 h 1.305 c 0.631,0 1.034,0.402 1.034,0.984 0,0.582 -0.403,0.975 -1.034,0.975 H 4.688 Z m 153.027,-96.03 c -6.022,0.033 -12.682,1.498 -17.786,3.883 -2.329,-1.942 -5.56,-2.932 -9.684,-2.932 -7.236,0 -14.385,3.171 -21.251,9.422 -6.125,5.496 -10.712,11.943 -13.634,19.162 a 41,41 0 0 0 -1.953,6.213 l -10.12,-2.53 -0.3,0.593 a 16.7,16.7 0 0 1 -2.365,3.537 21.3,21.3 0 0 1 -3.204,2.953 c -2.574,1.911 -5.19,2.88 -7.781,2.88 -1.457,0 -3.129,-0.426 -3.129,-3.711 0,-2.449 0.73,-5.37 2.16,-8.683 1.596,-3.766 3.663,-7.111 6.143,-9.951 3.004,-3.39 6.202,-5.26 9.44,-5.572 h 0.788 c 2.612,0 4.282,1.045 5.11,3.19 l 0.315,0.804 13.486,-6.006 -0.08,-0.61 c -0.975,-7.502 -5.577,-11.305 -13.684,-11.305 -7.018,0 -14.091,3.194 -21.022,9.489 -5.947,5.478 -10.473,11.88 -13.444,19.02 -1.741,4.064 -2.671,8.259 -2.791,12.486 l -20.048,0.968 3.4,-8.847 10.435,-0.571 4.614,-10.738 -10.566,0.575 3.662,-9.482 16.992,-0.181 6.964,-11.81 H 31.625 l -5.223,12.35 4.253,-0.088 -18.073,42.954 c 0,0 10.158,-0.985 19.63,-1.578 8.39,-0.528 20.206,-0.663 20.206,-0.663 l 1.806,-5.3 c 1.79,3.59 5.43,5.31 11.114,5.31 4.783,0 10.512,-0.577 16.758,-4.859 a 45,45 0 0 0 6.996,-6.044 40.4,40.4 0 0 0 3.657,-4.538 28,28 0 0 0 -0.136,2.683 c 0,4.097 1.006,7.388 3.009,9.782 2.12,2.438 5.309,3.672 9.476,3.672 6.66,0 13.471,-2.878 20.246,-8.558 6.153,-5.245 10.635,-11.235 13.323,-17.8 1.475,-3.652 2.226,-6.802 2.226,-9.374 0,-1.295 -0.181,-2.624 -0.517,-3.951 2.92,-1.18 7.535,-2.73 11.43,-2.666 -0.668,1.29 -22.474,40.653 -22.628,40.913 l -0.566,0.985 1.122,0.207 c 0.212,0.038 4.395,0.8 11.322,0.8 q 2.194,0 4.744,-0.115 c 15.08,-1.567 24.59,-9.21 29.907,-15.348 6.06,-6.992 9.95,-15.968 10.163,-23.427 0.44,-15.777 -19.053,-17.078 -25.463,-17.507 l -0.157,-0.011 a 35,35 0 0 0 -2.535,-0.075 m 6.027,14.203 c 1.437,0.125 5.735,0.713 7.9,3.19 0.997,1.142 1.404,2.512 1.24,4.194 -1.039,10.603 -14.716,21.37 -24.628,22.333 2.078,-3.82 14.362,-27.703 15.488,-29.717 m -39.96,0.794 h 0.789 c 2.932,0 4.7,0.986 5.391,3.004 l -4.455,2.971 0.266,0.625 a 8.4,8.4 0 0 1 0.664,3.275 c 0,3.656 -1.829,7.563 -5.44,11.621 -3.656,4.218 -7.275,6.356 -10.752,6.356 -1.725,0 -3.705,-0.517 -3.705,-4.555 0,-4.487 1.817,-9.384 5.408,-14.564 3.77,-5.483 7.774,-8.426 11.834,-8.733 M -1.08,206.885 c -6.756,-0.032 -15.133,1.065 -25.5,3.733 v 0.002 l -7.073,14.763 8.428,-2.207 c -2.894,5.5 -27.414,58.905 -29.503,64.28 9.074,-0.528 40.977,-6.763 52.887,-15.252 11.878,-8.333 26.512,-21.924 27.775,-41.848 0.56,-8.828 -2.884,-23.354 -27.013,-23.47 m -1.515,16.845 c 3.904,-0.029 8.484,0.98 10.258,5.413 4.592,11.474 -10.64,34.031 -36.016,39.917 4.141,-9.053 16.736,-38.682 19.396,-44.471 0,0 2.918,-0.833 6.362,-0.859"
       style="fill:#ffffff;fill-opacity:1;stroke-width:1.39278"
       id="path567"
       transform="matrix(0.37506,0,0,0.37506,218.875,105.18)" /><path
       fill="#ffffff"
       d="m 194.684,212.979 -6.193,13.551 9.059,-0.07 -23.138,53.117 c 0,0 13.09,0.386 25.494,1.404 10.49,0.854 20.614,2.361 20.614,2.361 l 5.185,-13.628 -29.569,-2.226 5.641,-13.385 15.56,0.844 5.66,-13.078 -16.79,-0.794 6.229,-14.543 h 24.847 l 4.75,-13.434 z m 32.599,66.772 -3.329,0.081 0.016,0.713 1.24,-0.028 0.087,3.38 0.85,-0.022 -0.088,-3.384 1.24,-0.028 z m 3.886,-0.097 -1.045,2.774 -0.05,0.006 -1.186,-2.725 -1.055,0.028 0.103,4.094 0.832,-0.02 -0.07,-2.677 h 0.032 l 1.121,2.628 0.566,-0.017 0.979,-2.671 h 0.038 l 0.065,2.665 0.833,-0.02 -0.103,-4.098 z"
       style="stroke-width:1.39278"
       transform="matrix(0.37506,0,0,0.37506,218.875,105.18)"
       id="path569" /></g><path
     fill="#100f0d"
     d="M247.865 2.227c-.408 1.002-1.198 1.567-2.345 1.681a2.2 2.2 0 0 1-.544-.037l-.185-.023c-.822-.174-1.41-.614-1.796-1.337-1.566-2.972-3.144-5.932-4.722-8.895l-2.774-5.235-.028-.043q.01-.015.028-.022l.13-.093c.244-.179.49-.348.734-.523.05-.032.098-.07.143-.097.037.033.075.077.108.109q.961 1.041 1.926 2.083l2.633 2.862q3.07 3.339 6.153 6.672c.8.869.98 1.822.54 2.898m-13.734-15.974-1.082-1.501c.208-.14.408-.288.61-.43l.25-.18.37.524.713.984q-.433.293-.86.603m-2.006-3.872a11.84 11.84 0 0 1-8.875 2.09 11.84 11.84 0 0 1-7.726-4.822 11.8 11.8 0 0 1-2.046-8.846 11.77 11.77 0 0 1 4.815-7.705 11.74 11.74 0 0 1 6.872-2.214c.659 0 1.327.055 1.992.164a11.78 11.78 0 0 1 7.72 4.841c1.81 2.574 2.546 5.794 2.007 8.836v.011a11.67 11.67 0 0 1-4.76 7.644m17.168 15.467L238.55-13.818c-.038-.044-.126-.136-.135-.158 0 0 .006-.028.037-.098a1.13 1.13 0 0 0-.12-1.181c-.271-.354-.718-.522-1.235-.43a1 1 0 0 1-.092-.119c-.25-.365-.511-.73-.766-1.088l-.376-.529q-.068-.086-.109-.152l.141-.157c1.775-2.057 2.889-4.418 3.32-7.024a14.2 14.2 0 0 0-4.249-12.818c-2.776-2.643-6.448-4.025-10.29-3.912-8.535.267-13.432 7.155-13.705 13.499-.178 4.162 1.198 7.774 4.087 10.738 2.618 2.683 5.913 4.126 9.792 4.277 1.975.083 3.94-.278 5.865-1.055q.078-.027.154-.06c.032.043.07.097.103.147l.397.56c.222.32.45.648.685.963.153.202.147.234.082.37a1.17 1.17 0 0 0 .103 1.219 1.05 1.05 0 0 0 1.013.425c.032-.006.065-.006.08-.006h.028c.028.021.081.131.147.255l7.345 13.864c.805 1.518 2.073 2.432 3.775 2.714q.427.071.844.07a5.18 5.18 0 0 0 4.532-2.702 5.15 5.15 0 0 0-.708-5.947"
     style="fill:#fff;fill-opacity:1;stroke-width:1.39278"
     transform="translate(388.968 41.859)scale(.37506)"
     id="path571" /><path
     d="M219.667-35.59a4 4 0 0 0-.571.408c-1.992 1.616-3.232 3.7-3.695 6.191v.011c-.43 2.633.065 5.098 1.458 7.324.093.146.212.337.365.494a1.2 1.2 0 0 0 .854.354 1.145 1.145 0 0 0 1.022-1.659c-.049-.109-.118-.213-.184-.316l-.06-.086a7.897 7.897 0 0 1 1.816-10.572l.083-.06c.097-.076.202-.153.288-.24a1.2 1.2 0 0 0 .103-1.566 1.14 1.14 0 0 0-1.48-.283"
     style="fill:#fff;fill-opacity:1;stroke-width:1.39278"
     transform="translate(388.968 41.859)scale(.37506)"
     id="path573" /><g
     style="fill:#fff;fill-opacity:1"
     id="g577"><path
       d="M29.868-27.913c-5.265 0-9.624 3.934-10.315 9.009h-4.554a1.41 1.41 0 0 0 0 2.819h4.554c.69 5.075 5.049 9.008 10.315 9.008 5.268 0 9.62-3.933 10.31-9.008h4.701a1.41 1.41 0 0 0 0-2.819h-4.7c-.691-5.075-5.043-9.009-10.31-9.009m-.001 2.818za7.605 7.605 0 0 1 7.599 7.6 7.605 7.605 0 0 1-7.6 7.6 7.605 7.605 0 0 1-7.59-7.3c.023-.098.06-.195.06-.3s-.037-.202-.06-.299a7.605 7.605 0 0 1 7.59-7.3M23.599.046a1.407 1.407 0 0 0 1.41-1.41 1.407 1.407 0 0 0-1.41-1.409h-8.036v-8.231a1.407 1.407 0 1 0-2.812 0v9.64c0 .78.63 1.41 1.403 1.41zM45.72-12.315a1.41 1.41 0 0 0-1.409 1.408v8.037H36.08a1.41 1.41 0 0 0 0 2.817h9.64c.78 0 1.41-.63 1.41-1.408v-9.446c0-.777-.63-1.408-1.41-1.408m0-22.72h-9.444a1.41 1.41 0 0 0 0 2.819h8.036v8.231a1.41 1.41 0 0 0 2.818 0v-9.64c0-.78-.63-1.41-1.41-1.41M14.154-22.674a1.407 1.407 0 0 0 1.41-1.409v-8.036h8.237a1.409 1.409 0 0 0 0-2.818h-9.647a1.407 1.407 0 0 0-1.403 1.409v9.445a1.407 1.407 0 0 0 1.403 1.409"
       style="fill:#fff;fill-opacity:1;stroke-width:1.39278"
       transform="translate(21.515 39.438)scale(.37506)"
       id="path575" /></g><g
     style="fill:#fff;fill-opacity:1"
     id="g581"><path
       d="M30.117 160.08c-1.904-.022-3.628.566-5.06 1.741a4 4 0 0 0-.947 1.137 3.25 3.25 0 0 0 .616 4.049c.256.24.533.457.805.674l.18.142c.14.114.282.228.396.358.06.07.109.147 0 .294a.7.7 0 0 1-.195.19c-.57.382-1.055.55-1.562.55h-.01c-2.302-.016-4.592-.01-6.894-.01l-2.236.005h-.097c-.316-.006-.621-.006-.878.255-.254.256-.249.571-.243.822v29.744c-.006.277-.012.582.25.837.25.257.56.25.805.245l.163-.006 11.257.006h6.894l11.289-.006.162.006h.098c.229 0 .496-.022.718-.245.255-.255.256-.565.252-.837l-.008-9.744c0-.354-.058-.686-.178-1.016-.278-.741-.593-1.307-1.002-1.78-.516-.6-1.104-.953-1.806-1.088a2.6 2.6 0 0 0-1.838.337c-.343.2-.648.478-.97.876l-.234.298c-.163.208-.32.414-.489.61-.376.434-.735.474-1.197.131a2.65 2.65 0 0 1-.712-.85 5.3 5.3 0 0 1-.713-2.443 5.2 5.2 0 0 1 .968-3.22q.23-.318.539-.533.635-.433 1.132.13c.184.206.358.429.527.653l.25.31c.268.337.544.593.845.79.934.598 1.935.608 2.9.031.799-.479 1.239-1.23 1.5-1.752a4.66 4.66 0 0 0 .502-2.138c-.024-2.155-.018-4.31-.018-6.459l.006-2.855c0-.282.005-.598-.256-.86-.261-.255-.57-.255-.877-.255l-.151.006q-4.61-.007-9.211 0h-.006c-.565 0-1.065-.218-1.578-.686-.114-.104-.152-.19-.152-.228 0-.045.044-.137.175-.256.195-.18.404-.343.614-.506.137-.108.284-.223.42-.338.626-.522 1.016-1.087 1.197-1.741.272-.99.091-1.948-.53-2.844-.466-.67-1.125-1.215-2.005-1.672a7.66 7.66 0 0 0-3.407-.859m-.308 2.501a5.4 5.4 0 0 1 3.062.9c.26.174.462.369.62.599.25.374.228.69-.077 1.005a4 4 0 0 1-.418.365l-.419.348a7 7 0 0 0-.655.571 2.69 2.69 0 0 0-.135 3.65c.953 1.088 2.095 1.648 3.396 1.654 2.066.011 4.14.006 6.207.006h1.975l-.005 2.014c0 1.985-.006 3.965.016 5.951 0 .48-.147.909-.507 1.448a1 1 0 0 1-.266.265c-.103.071-.168.066-.271-.004-.084-.06-.17-.17-.262-.278q-.147-.19-.293-.37a10 10 0 0 0-.703-.832c-1.093-1.114-2.786-1.296-4.118-.44a4.5 4.5 0 0 0-1.3 1.272c-1.654 2.475-1.872 5.11-.658 7.828a5.8 5.8 0 0 0 1.261 1.79c.736.714 1.704 1.089 2.65 1.034.903-.043 1.742-.478 2.355-1.218l.572-.697c.12-.153.24-.304.376-.445.109-.109.19-.148.234-.148.038 0 .103.028.195.12.496.501.73.985.724 1.53v8.094H16.498V171.68l8.124-.006h.13c.191.006.425.01.669-.055 1.03-.288 1.785-.696 2.384-1.29.571-.57.887-1.282.887-2.005 0-.736-.31-1.426-.892-2.003-.202-.202-.43-.382-.654-.561l-.402-.326a3 3 0 0 1-.391-.354c-.218-.262-.251-.485-.115-.784.126-.272.31-.5.582-.696a5.2 5.2 0 0 1 2.989-1.018z"
       style="fill:#fff;fill-opacity:1;stroke-width:1.39278"
       transform="translate(21.007 183.682)scale(.37506)"
       id="path579" /></g><g
     style="fill:#fff;fill-opacity:1"
     id="g589"><path
       d="M220.15 162.197q-.132 0-.272.006c-.805.07-1.415.685-1.447 1.473-.023.61-.023 1.24 0 1.936.022.704.506 1.275 1.224 1.449.175.037.337.037.48.037l.086.006v1.452q-.001 1.395.006 2.792c0 .93.088 1.746.268 2.497.685 2.878 2.278 5.146 4.75 6.746a10.72 10.72 0 0 0-4.267 5.163 11.1 11.1 0 0 0-.751 4.015q-.007 1.19-.006 2.388v1.92h-.186c-.968.023-1.598.665-1.61 1.639-.005.168 0 .342 0 .516.012.279.017.56-.005.845-.038.56.103 1.039.419 1.376.331.354.833.543 1.441.543h.006c5.349-.015 10.697-.016 16.04-.016l5.064.006q.13 0 .25-.006c.876-.043 1.502-.675 1.53-1.534a35 35 0 0 0 0-1.85 1.546 1.546 0 0 0-1.307-1.485 2.4 2.4 0 0 0-.483-.034h-.006v-4.134c0-.713-.048-1.338-.147-1.922-.533-3.17-2.17-5.668-4.87-7.43a10.7 10.7 0 0 0 3.232-3.178c1.17-1.773 1.769-3.803 1.785-6.028q.008-1.361 0-2.73v-1.552h.081q.116 0 .229-.006c.85-.076 1.458-.701 1.486-1.529a35 35 0 0 0 0-1.85 1.56 1.56 0 0 0-1.496-1.518c-.077-.004-.153-.004-.306-.004zm2.053 4.906h17.279a136 136 0 0 0-.007 1.567l.006 1.36q0 .816-.006 1.627c-.032 2.704-1.131 4.967-3.264 6.72a9.5 9.5 0 0 1-2.08 1.304 1.4 1.4 0 0 0-.237.132.92.92 0 0 0-.425.783c0 .31.157.592.434.778.077.055.165.097.257.136l.103.05c2.329 1.207 3.864 2.861 4.69 5.042a7.8 7.8 0 0 1 .518 2.737 439 439 0 0 1 .01 3.574v1.166H222.12v-4.457c0-2.012.604-3.802 1.796-5.331a9.75 9.75 0 0 1 3.438-2.743l.082-.032c.098-.048.2-.097.288-.163a.92.92 0 0 0 .408-.767.93.93 0 0 0-.413-.762 1.7 1.7 0 0 0-.272-.153l-.093-.042c-1.992-1.018-3.405-2.385-4.332-4.178a8.1 8.1 0 0 1-.897-3.63c-.01-1.11-.006-2.22-.006-3.329v-1.383z"
       style="fill:#fff;fill-opacity:1;stroke-width:1.39278"
       transform="translate(389.349 184.475)scale(.37506)"
       id="path583" /><path
       d="M230.766 184.868a.92.92 0 0 0-.878.756q-.02.163-.026.326l-.006.142.006.146c.006.114.01.24.028.354a.88.88 0 0 0 .88.745h.033c.468 0 .843-.304.908-.756a3.5 3.5 0 0 0 0-.952.925.925 0 0 0-.947-.761m.947-2.018a.905.905 0 0 0-.908-.794h-.017a.93.93 0 0 0-.902.793l-.011.104v.456c-.006.098-.006.202.006.3a.89.89 0 0 0 .919.816h.01c.49 0 .864-.331.903-.794.034-.3.028-.593 0-.882m6.137 8.738-.158-.135q-.21-.19-.429-.37c-1.752-1.388-3.775-2.378-6.192-3.031-.277-.077-.515-.006-.69.043-.976.273-1.834.576-2.639.941-1.583.719-2.873 1.535-3.96 2.531a1.4 1.4 0 0 0-.263.277.93.93 0 0 0-.103.93.89.89 0 0 0 .719.523c.065.006 13.28.01 13.378-.006a.86.86 0 0 0 .653-.48.93.93 0 0 0-.017-.864 1.4 1.4 0 0 0-.3-.36m-10.853-22.164a6.2 6.2 0 0 0-3.835 1.278 1.18 1.18 0 0 0-.518 1.045c.028 1.257.307 2.41.828 3.439.93 1.822 2.41 3.203 4.391 4.096.549.251 1.125.523 1.616.91.24.19.38.352.418.599.066.444.42.728.903.728.485 0 .837-.288.903-.73.039-.25.185-.408.424-.599a6 6 0 0 1 1.459-.831 8.4 8.4 0 0 0 1.53-.822c1.735-1.181 2.866-2.622 3.448-4.418a7.7 7.7 0 0 0 .391-2.507.99.99 0 0 0-.38-.794.92.92 0 0 0-.822-.142c-.174.042-.292.14-.397.223-1.148.881-2.475 1.131-4.053.762-.69-.159-1.365-.468-2.198-1.013a7.66 7.66 0 0 0-4.108-1.224m.021 1.883a5.7 5.7 0 0 1 1.785.314c.507.163.985.404 1.475.73a8.1 8.1 0 0 0 2.829 1.202 6.83 6.83 0 0 0 3.738-.25c-.376 1.332-1.147 2.437-2.356 3.373a6.5 6.5 0 0 1-1.594.919 7.3 7.3 0 0 0-2.089 1.268c-.702-.6-1.518-1.006-2.22-1.334-2.295-1.054-3.64-2.757-3.993-5.063l-.028-.164c-.02-.128-.041-.263-.063-.267l-.007.006c0-.006.006-.006.006-.006h.001c.036-.028.14-.079.237-.13l.202-.098a4.44 4.44 0 0 1 2.077-.5"
       style="fill:#fff;fill-opacity:1;stroke-width:1.39278"
       transform="translate(389.349 184.475)scale(.37506)"
       id="path585" /><path
       d="m237.239 172.942.049.01-.049.007zm-.289-.061.154.034-.088.065-.049.006q-.033-.061-.016-.104"
       style="fill:#fff;fill-opacity:1;stroke-width:1.39278"
       transform="translate(389.349 184.475)scale(.37506)"
       id="path587" /></g><g
     id="g2242"
     transform="matrix(0.8260218,0,0,0.8260218,-114.01132,15.965321)"><path
       d="m -14.67,-49.972 -4.205,4.21 v 216.643 l 4.205,4.206 h 216.643 l 4.207,-4.206 V -45.761 l -4.207,-4.211 z"
       style="fill:#7adfa9;fill-opacity:1;stroke-width:1.09658"
       transform="matrix(0.37506,0,0,0.37506,218.875,99.027)"
       id="path591" /><path
       fill="#4d8393"
       d="m 224.585,94.83 c 0,40.636 -41.589,73.574 -92.892,73.574 -51.3,0 -92.893,-32.938 -92.893,-73.573 0,-40.63 41.594,-73.573 92.893,-73.573 51.305,0 92.892,32.944 92.892,73.573"
       style="stroke-width:1.39278"
       transform="matrix(0.37506,0,0,0.37506,204.609,90.57)"
       id="path593" /><path
       fill="#100f0d"
       d="m 131.693,23.124 c -50.189,0 -91.027,32.171 -91.027,71.712 0,39.537 40.837,71.708 91.027,71.708 50.19,0 91.025,-32.17 91.025,-71.708 0,-39.541 -40.836,-71.712 -91.025,-71.712 m 0,147.147 c -52.246,0 -94.754,-33.84 -94.754,-75.433 0,-41.6 42.508,-75.44 94.754,-75.44 52.246,0 94.751,33.84 94.751,75.438 0,41.594 -42.506,75.433 -94.751,75.433"
       style="stroke-width:1.39278"
       transform="matrix(0.37506,0,0,0.37506,204.609,90.57)"
       id="path595" /><path
       fill="#f03a1f"
       d="m 224.585,82.22 c 0,40.636 -41.589,73.573 -92.892,73.573 -51.3,0 -92.893,-32.937 -92.893,-73.573 0,-40.63 41.594,-73.572 92.893,-73.572 51.305,0 92.892,32.942 92.892,73.572"
       style="stroke-width:1.39278"
       transform="matrix(0.37506,0,0,0.37506,204.609,90.57)"
       id="path597" /><path
       fill="#100f0d"
       d="m 131.693,10.514 c -50.189,0 -91.027,32.17 -91.027,71.706 0,39.541 40.837,71.706 91.027,71.706 50.195,0 91.025,-32.165 91.025,-71.706 0,-39.537 -40.83,-71.707 -91.025,-71.707 m 0,147.145 c -52.246,0 -94.754,-33.84 -94.754,-75.44 0,-41.593 42.508,-75.432 94.754,-75.432 52.246,0 94.758,33.839 94.758,75.433 0,41.598 -42.513,75.439 -94.758,75.439"
       style="stroke-width:1.39278"
       transform="matrix(0.37506,0,0,0.37506,204.609,90.57)"
       id="path599" /><path
       fill="#100f0d"
       d="m 131.203,17.83 c -45.21,0 -81.995,28.96 -81.995,64.553 0,35.598 36.784,64.553 81.995,64.553 45.21,0 81.994,-28.956 81.994,-64.553 0,-35.592 -36.783,-64.552 -81.993,-64.552 m 0,132.836 c -47.267,0 -85.722,-30.63 -85.722,-68.284 0,-37.648 38.455,-68.284 85.722,-68.284 47.268,0 85.722,30.636 85.722,68.284 0,37.654 -38.455,68.284 -85.722,68.284"
       style="stroke-width:1.39278"
       transform="matrix(0.37506,0,0,0.37506,204.609,90.57)"
       id="path601" /><path
       fill="#100f0d"
       d="m 150.043,17.71 a 1.41,1.41 0 0 0 -1.648,0.665 L 123.57,63.433 a 1.41,1.41 0 0 0 0.272,1.7 l 18.074,16.885 a 1.38,1.38 0 0 0 1.435,0.294 c 0.501,-0.185 0.85,-0.636 0.91,-1.164 l 6.751,-61.951 a 1.39,1.39 0 0 0 -0.97,-1.486"
       style="stroke-width:1.39278"
       transform="matrix(0.37506,0,0,0.37506,204.609,90.57)"
       id="path603" /><path
       fill="#e6a511"
       d="m 108.984,-9.247 33.655,90.531 -11.528,4.727 -29.249,-93.609 z"
       style="stroke-width:1.39278"
       transform="matrix(0.37506,0,0,0.37506,204.609,90.57)"
       id="path605" /><path
       fill="#e6a511"
       d="M 131.11,86.011 91.884,46.791 c 0,0 8.934,0.19 11.909,-14.233 2.97,-14.417 -1.93,-40.157 -1.93,-40.157 z"
       style="stroke-width:1.39278"
       transform="matrix(0.37506,0,0,0.37506,204.609,90.57)"
       id="path607" /><path
       fill="#100f0d"
       d="m 131.992,84.141 -11.3,-36.17 -17.04,-54.546 4.45,-1.028 32.753,88.103 z M 105.16,32.842 c 1.415,-6.855 1.11,-16.073 0.376,-24.005 L 128.081,81.007 94.723,47.65 c 3.238,-1.104 8.31,-4.488 10.436,-14.808 m 38.79,47.954 -33.655,-90.531 a 1.393,1.393 0 0 0 -1.627,-0.872 l -7.12,1.643 q -0.007,0.007 -0.012,0.006 c -0.006,0.005 -0.01,0 -0.01,0.005 a 1.4,1.4 0 0 0 -0.49,0.229 c -0.023,0.016 -0.038,0.043 -0.06,0.065 a 1.4,1.4 0 0 0 -0.305,0.337 c -0.006,0.011 -0.016,0.017 -0.021,0.028 -0.028,0.049 -0.028,0.103 -0.05,0.152 a 1.4,1.4 0 0 0 -0.109,0.331 c -0.01,0.083 0,0.158 0,0.24 0,0.077 -0.015,0.153 0,0.234 0.05,0.256 4.815,25.635 1.932,39.618 -2.671,12.948 -10.163,13.111 -10.506,13.111 h -0.005 c -0.6,0.017 -1.088,0.32 -1.317,0.85 a 1.4,1.4 0 0 0 0.3,1.539 l 39.226,39.22 c 0.07,0.066 0.154,0.105 0.234,0.154 0.055,0.038 0.098,0.092 0.163,0.125 0.012,0.005 0.023,0 0.032,0.005 a 1.28,1.28 0 0 0 1.028,0.032 c 0.023,-0.005 0.045,0 0.062,-0.01 l 11.528,-4.727 a 1.403,1.403 0 0 0 0.782,-1.786 M 136.948,35.882 136.693,20.53 a 96,96 0 0 0 -2.797,-0.043 l 0.255,15.335 q 1.403,0.01 2.797,0.06 M 72.346,68.44 56.836,65.593 a 56,56 0 0 0 -0.969,2.666 l 15.315,2.813 c 0.348,-0.887 0.747,-1.763 1.164,-2.632 M 91.16,119.238 79.12,129.77 a 70,70 0 0 0 2.438,1.59 l 12.193,-10.67 a 71,71 0 0 1 -2.59,-1.452 m 63.975,-80.542 5.772,-14.293 a 86,86 0 0 0 -2.709,-0.766 l -5.788,14.346 q 1.378,0.327 2.725,0.713 m 29.689,18.16 13.688,-7.426 a 57,57 0 0 0 -1.762,-2.231 l -13.841,7.514 a 48,48 0 0 1 1.915,2.143"
       style="stroke-width:1.39278"
       transform="matrix(0.37506,0,0,0.37506,204.609,90.57)"
       id="path609" /><path
       fill="#100f0d"
       d="m 97.841,44.08 a 75,75 0 0 1 2.66,-1.271 L 89.279,31.275 a 78,78 0 0 0 -2.52,1.387 c 0.029,0.032 0.039,0.07 0.07,0.103 z m -14.358,9.8 c 0.376,-0.337 0.768,-0.663 1.155,-0.996 l -14.38,-7.552 q -1.023,1.037 -1.997,2.106 l 14.173,7.449 c 0.349,-0.337 0.691,-0.676 1.05,-1.007 m -7.04,52.62 -14.342,6.328 q 0.799,1.185 1.654,2.329 l 14.526,-6.408 a 43,43 0 0 1 -1.838,-2.248 m 95.193,-60.733 10.647,-11.42 a 82,82 0 0 0 -2.4,-1.533 l -10.738,11.523 q 1.265,0.687 2.49,1.43 M 68.757,87.851 53.513,89.576 c 0.097,0.936 0.223,1.855 0.376,2.774 L 69.154,90.62 A 38,38 0 0 1 68.757,87.851 M 192.008,69.397 c 0.304,0.886 0.566,1.79 0.794,2.698 l 15.14,-2.655 a 57,57 0 0 0 -0.696,-2.716 z m -81.842,57.43 -7.526,13.862 c 0.92,0.262 1.839,0.517 2.776,0.757 l 7.6,-13.998 a 78,78 0 0 1 -2.85,-0.621 m 58.589,-15.049 18.563,-13.726 -22.813,9.314 -12.36,-9.385 8.487,11.474 -18.411,14.38 22.915,-9.75 12.258,9.816 z M 41.766,105.946 a 58,58 0 0 0 2.666,9.254 v -3.585 a 67,67 0 0 1 -2.666,-5.669 m 4.772,9.325 v 4.864 a 64,64 0 0 0 2.796,5.195 v -5.875 a 72,72 0 0 1 -2.796,-4.184 m 4.908,6.992 v 6.376 a 68,68 0 0 0 2.795,3.808 v -6.85 a 77,77 0 0 1 -2.795,-3.334 m 4.901,5.63 v 7.132 a 78,78 0 0 0 2.797,3.053 v -7.399 a 91,91 0 0 1 -2.797,-2.785 m 4.907,4.716 v 7.585 q 1.362,1.305 2.797,2.563 v -7.78 a 85,85 0 0 1 -2.797,-2.368 m 4.902,4.015 v 7.895 a 79,79 0 0 0 2.797,2.192 v -8.024 a 106,106 0 0 1 -2.797,-2.061 m 4.907,3.514 v 8.117 a 92,92 0 0 0 2.797,1.908 v -8.252 a 91,91 0 0 1 -2.797,-1.773 m 4.908,3.04 v 8.291 q 1.37,0.843 2.797,1.644 v -8.351 c -0.953,-0.511 -1.877,-1.05 -2.797,-1.584 m 4.913,2.666 v 8.454 c 0.919,0.49 1.855,0.953 2.796,1.415 v -8.497 q -1.419,-0.669 -2.796,-1.372 m 4.914,2.34 v 8.536 c 0.93,0.425 1.855,0.85 2.795,1.25 v -8.607 a 105,105 0 0 1 -2.795,-1.18 m 4.917,2.047 v 8.602 q 1.386,0.547 2.797,1.072 v -8.669 c -0.936,-0.331 -1.877,-0.651 -2.797,-1.005 m 4.913,1.735 v 8.688 c 0.925,0.32 1.86,0.616 2.802,0.904 v -8.71 a 120,120 0 0 1 -2.802,-0.882 m 4.918,1.48 v 8.764 c 0.925,0.268 1.86,0.507 2.796,0.752 v -8.76 c -0.941,-0.234 -1.866,-0.495 -2.796,-0.757 m 4.919,1.247 v 8.797 q 1.386,0.331 2.795,0.63 v -8.802 c -0.94,-0.19 -1.87,-0.413 -2.795,-0.627 m 4.912,1.02 v 8.823 c 0.93,0.174 1.861,0.354 2.797,0.513 V 156.2 c -0.936,-0.148 -1.866,-0.32 -2.797,-0.49 m 5.751,0.91 -0.919,1.92 v 6.8 c 0.93,0.136 1.86,0.278 2.797,0.387 v -8.868 q -0.947,-0.109 -1.878,-0.24 m 3.988,0.457 v 8.862 c 0.925,0.094 1.855,0.191 2.796,0.262 v -8.879 a 149,149 0 0 1 -2.796,-0.245 m 4.902,0.376 v 8.872 c 0.93,0.056 1.861,0.11 2.797,0.137 v -8.885 a 116,116 0 0 1 -2.797,-0.125 m 6.676,0.207 c -0.593,0 -1.181,-0.028 -1.769,-0.039 v 8.886 c 0.588,0.01 1.176,0.038 1.769,0.038 0.343,0 0.685,-0.023 1.028,-0.023 v -8.884 c -0.343,0 -0.685,0.022 -1.028,0.022 m 3.134,-0.067 v 8.886 q 1.406,-0.04 2.795,-0.103 v -8.879 q -1.39,0.064 -2.795,0.098 m 4.906,-0.229 v 8.88 a 117,117 0 0 0 2.797,-0.23 v -8.867 a 98,98 0 0 1 -2.797,0.217 m 4.909,-0.43 v 8.868 a 98,98 0 0 0 2.795,-0.358 v -8.847 q -1.394,0.185 -2.795,0.337 m 4.9,-0.637 v 8.853 a 111,111 0 0 0 2.798,-0.496 v -8.825 c -0.925,0.169 -1.856,0.32 -2.797,0.468 m 4.908,-0.853 v 8.83 c 0.94,-0.195 1.866,-0.414 2.795,-0.631 v -8.798 q -1.394,0.32 -2.795,0.599 m 4.901,-1.073 v 8.77 a 92,92 0 0 0 2.797,-0.745 v -8.759 c -0.925,0.25 -1.855,0.502 -2.797,0.734 m 4.908,-1.306 v 8.712 c 0.935,-0.283 1.877,-0.562 2.796,-0.87 v -8.722 c -0.93,0.299 -1.855,0.604 -2.796,0.881 m 4.906,-1.572 v 8.661 a 102,102 0 0 0 2.798,-1.033 v -8.635 a 99,99 0 0 1 -2.797,1.007 m 4.901,-1.833 v 8.607 a 117,117 0 0 0 2.797,-1.22 v -8.53 c -0.92,0.396 -1.86,0.767 -2.797,1.141 m 4.909,-2.104 v 8.53 a 103,103 0 0 0 2.796,-1.414 v -8.449 a 120,120 0 0 1 -2.796,1.333 m 4.9,-2.411 v 8.39 a 117,117 0 0 0 2.798,-1.6 V 143.6 c -0.92,0.523 -1.85,1.045 -2.797,1.546 m 4.908,-2.763 v 8.245 q 1.42,-0.912 2.797,-1.865 v -8.133 q -1.382,0.897 -2.797,1.752 m 4.901,-3.183 v 8.074 a 86,86 0 0 0 2.797,-2.138 v -7.943 a 87,87 0 0 1 -2.797,2.006 m 4.908,-3.606 v 7.802 a 77,77 0 0 0 2.797,-2.508 v -7.628 a 83,83 0 0 1 -2.797,2.334 m 4.903,-4.233 v 7.466 q 1.448,-1.464 2.8,-2.982 v -7.198 a 78,78 0 0 1 -2.801,2.714 m 7.703,-8.177 a 78,78 0 0 1 -2.795,3.243 v 6.931 a 70,70 0 0 0 2.796,-3.667 z m 2.112,-2.703 v 6.054 a 67,67 0 0 0 2.796,-4.918 v -5.19 a 74,74 0 0 1 -2.796,4.052 m 4.902,-7.555 v 4.15 a 59,59 0 0 0 2.797,-8.449 v -1.246 a 67,67 0 0 1 -2.797,5.543 m -103.006,45.62 0.92,-1.92 c -0.311,-0.039 -0.615,-0.088 -0.92,-0.125 z M 36.924,96.016 h 2.752 V 81.644 h -2.752 z m 186.698,0 h 2.752 V 81.644 h -2.752 z"
       style="stroke-width:1.39278"
       transform="matrix(0.37506,0,0,0.37506,204.609,90.57)"
       id="path611" /></g><path
     d="M803.002 13.294h4.654v-23.676h-4.654z"
     style="fill:#7adfa9;fill-opacity:1;fill-rule:nonzero;stroke:none;stroke-width:.352778"
     transform="translate(-254.543 242.906)scale(.93434)"
     id="path613" /><path
     d="m0 0-20.245-20.245h-22.659v-13.192h27.18L13.192-4.526v26.971H0Z"
     style="fill:#7adfa9;fill-opacity:1;fill-rule:nonzero;stroke:none"
     transform="matrix(.32961 0 0 -.32961 495.731 265.998)"
     id="path615" /><path
     d="M285.563-37.558h-4.654v23.674h4.654zm0-81.532h-4.654v23.676h4.654zm0 27.178h-4.654v23.674h4.654zm0-54.354h-4.654v23.674h4.654zm0 81.53h-4.654v23.676h4.654zM417.423 36.51h24.78v-4.654h-24.78zm-56.897 0h24.783v-4.654h-24.783zm28.448 0h24.783v-4.654h-24.783zm85.344 0h24.78v-4.654h-24.78zm-28.448 0h24.782v-4.654h-24.783zm56.894 0h24.783v-4.654h-24.783zm28.448 0h24.781v-4.654h-24.78zm-199.132 0h24.78v-4.654h-24.78Zm-28.449 0h24.783v-4.654H303.63Zm341.334 0h24.781v-4.654h-24.78zm-56.896 0h24.783v-4.654h-24.783Zm28.448 0H641.3v-4.654h-24.783Zm85.343 0h24.781v-4.654h-24.78zm-28.448 0h24.783v-4.654h-24.783Zm56.895 0h24.782v-4.654h-24.782zm28.448 0h24.781v-4.654h-24.78zm-199.133 0h24.781v-4.654h-24.78zM417.423-245.98h24.78v-4.653h-24.78zm-56.897 0h24.783v-4.653h-24.783zm28.448 0h24.783v-4.653h-24.783zm85.344 0h24.78v-4.653h-24.78zm-28.448 0h24.782v-4.653h-24.783zm56.894 0h24.783v-4.653h-24.783zm28.448 0h24.781v-4.653h-24.78zm-199.132 0h24.78v-4.653h-24.78Zm-28.449 0h24.783v-4.653H303.63Zm341.334 0h24.781v-4.653h-24.78zm-56.896 0h24.783v-4.653h-24.783zm28.448 0H641.3v-4.653h-24.783zm85.343 0h24.781v-4.653h-24.78zm-28.448 0h24.783v-4.653h-24.783Zm56.895 0h24.782v-4.653h-24.782zm28.448 0h24.781v-4.653h-24.78zm-199.133 0h24.781v-4.653h-24.78z"
     style="fill:#7adfa9;fill-opacity:1;fill-rule:nonzero;stroke:none;stroke-width:.352778"
     transform="translate(-254.543 242.906)scale(.93434)"
     id="path617" /><path
     d="m0 0-20.245 20.245V42.69h-13.192V15.719l28.916-28.911h25.567V0Z"
     style="fill:#7adfa9;fill-opacity:1;fill-rule:nonzero;stroke:none"
     transform="matrix(.32961 0 0 -.32961 18.942 272.67)"
     id="path619" /><path
     d="M285.563-10.382h-4.654v23.676h4.654zm517.439-85.032h4.654v-23.676h-4.654zM285.563-227.798h-4.654v23.675h4.654z"
     style="fill:#7adfa9;fill-opacity:1;fill-rule:nonzero;stroke:none;stroke-width:.352778"
     transform="translate(-254.543 242.906)scale(.93434)"
     id="path621" /><path
     d="m0 0 20.245 20.245h21.046v13.187H15.724L-13.192 4.521V-21.26H0Z"
     style="fill:#7adfa9;fill-opacity:1;fill-rule:nonzero;stroke:none"
     transform="matrix(.32961 0 0 -.32961 12.269 19.787)"
     id="path623" /><path
     d="M285.563-173.444h-4.654v23.676h4.654zM803.002-41.06h4.654v-23.676h-4.654zm0 26.94h4.654v-23.676h-4.654zm0-108.472h4.654v-23.674h-4.654zm0-27.674h4.654v-23.676h-4.654zm0-27.178h4.654v-23.674h-4.654zm0 109.206h4.654v-23.674h-4.654z"
     style="fill:#7adfa9;fill-opacity:1;fill-rule:nonzero;stroke:none;stroke-width:.352778"
     transform="translate(-254.543 242.906)scale(.93434)"
     id="path625" /><path
     d="m0 0 20.245-20.245v-21.26h13.192v25.781L4.521 13.187h-27.18V0Z"
     style="fill:#7adfa9;fill-opacity:1;fill-rule:nonzero;stroke:none"
     transform="matrix(.32961 0 0 -.32961 489.058 13.114)"
     id="path627" /><path
     d="M803.002-204.123h4.654v-23.675h-4.654zm-517.439 3.503h-4.654v23.674h4.654z"
     style="fill:#7adfa9;fill-opacity:1;fill-rule:nonzero;stroke:none;stroke-width:.352778"
     transform="translate(-254.543 242.906)scale(.93434)"
     id="path629" /><g
     id="g2225"
     transform="matrix(0.3527777,0,0,0.3527777,158.49161,210.27874)"><path
       fill="#100f0d"
       d="M 368.719,142.434 H 254.882 v -16.555 h 113.836 z"
       id="path2201" /><path
       fill="#ffffff"
       d="m 159.668,131.621 -1.281,0.004 0.003,1.922 1.282,-0.004 c 0.62,0 1.015,-0.387 1.011,-0.961 0,-0.57 -0.394,-0.961 -1.015,-0.961 m 0.078,3.152 -1.352,0.004 0.008,2.64 -1.37,0.005 -0.02,-7.016 2.718,-0.008 c 1.45,-0.004 2.32,0.989 2.325,2.18 0.003,1.195 -0.864,2.191 -2.31,2.195 m 6.618,-3.171 -1.293,0.003 0.008,1.852 1.289,-0.004 c 0.602,0 0.992,-0.387 0.992,-0.926 -0.004,-0.543 -0.398,-0.925 -0.996,-0.925 m 1.078,5.792 -1.379,-2.796 -0.984,0.004 0.008,2.796 -1.367,0.004 -0.02,-7.015 2.746,-0.008 c 1.43,-0.004 2.281,0.972 2.285,2.144 0,0.985 -0.597,1.598 -1.277,1.848 l 1.574,3.02 z m 3.215,-0.007 -0.02,-7.016 4.622,-0.016 0.004,1.223 -3.25,0.008 0.003,1.648 2.77,-0.007 0.004,1.218 -2.77,0.008 0.004,1.707 3.25,-0.012 0.004,1.223 z m 8.391,0.035 c -1.063,0 -1.871,-0.223 -2.567,-0.918 l 0.887,-0.89 c 0.445,0.44 1.047,0.585 1.695,0.585 0.809,-0.004 1.243,-0.308 1.239,-0.87 0,-0.247 -0.07,-0.454 -0.22,-0.59 -0.136,-0.13 -0.292,-0.196 -0.62,-0.243 l -0.848,-0.117 c -0.601,-0.09 -1.043,-0.274 -1.36,-0.578 -0.335,-0.336 -0.503,-0.79 -0.507,-1.38 -0.004,-1.25 0.922,-2.128 2.437,-2.136 0.965,0 1.668,0.234 2.27,0.813 l -0.863,0.859 c -0.446,-0.422 -0.977,-0.48 -1.442,-0.477 -0.726,0 -1.082,0.407 -1.082,0.887 0,0.18 0.063,0.367 0.207,0.504 0.14,0.129 0.367,0.234 0.653,0.273 l 0.828,0.118 c 0.64,0.086 1.047,0.261 1.343,0.535 0.375,0.355 0.543,0.867 0.543,1.488 0.004,1.36 -1.125,2.133 -2.593,2.137 m 4.386,-0.07 -0.015,-7.02 4.62,-0.012 v 1.223 l -3.25,0.008 0.005,1.648 2.77,-0.008 0.003,1.22 -2.77,0.007 0.005,1.707 3.254,-0.012 v 1.223 z m 10.606,-0.032 -2.79,-4.297 0.013,4.305 -1.368,0.004 -0.02,-7.016 1.22,-0.004 2.793,4.29 -0.012,-4.297 1.367,-0.004 0.02,7.015 z m 6.019,-5.808 0.016,5.793 -1.367,0.004 -0.02,-5.797 -1.832,0.007 -0.004,-1.222 5.036,-0.016 0.003,1.223 z m 3.457,5.781 -0.02,-7.016 4.622,-0.011 0.004,1.222 -3.25,0.008 0.004,1.645 2.77,-0.004 0.003,1.218 -2.77,0.008 0.005,1.703 3.25,-0.007 0.004,1.222 z m 9.875,-5.387 c -0.238,-0.285 -0.554,-0.43 -1.027,-0.43 l -1.035,0.004 0.012,4.57 1.035,-0.003 c 0.472,0 0.789,-0.149 1.023,-0.438 0.258,-0.312 0.293,-0.816 0.293,-1.882 -0.004,-1.063 -0.047,-1.504 -0.3,-1.82 m 0.968,4.687 c -0.465,0.465 -1.125,0.672 -1.851,0.675 l -2.532,0.008 -0.02,-7.015 2.532,-0.008 c 0.73,-0.004 1.39,0.203 1.856,0.664 0.789,0.785 0.71,1.754 0.714,2.809 0.004,1.05 0.086,2.078 -0.699,2.867 m 8.176,-2.297 -1.43,0.004 0.004,1.722 1.43,-0.004 c 0.621,0 0.918,-0.394 0.918,-0.87 -0.004,-0.473 -0.3,-0.856 -0.922,-0.852 m -0.098,-2.848 h -1.34 l 0.004,1.617 1.344,-0.004 c 0.578,0 0.902,-0.328 0.902,-0.808 0,-0.485 -0.328,-0.809 -0.91,-0.805 m 0.246,5.793 -2.937,0.008 -0.02,-7.016 2.817,-0.007 c 1.37,-0.004 2.172,0.761 2.176,1.964 0,0.778 -0.508,1.282 -0.864,1.45 0.422,0.195 0.965,0.636 0.969,1.574 0.004,1.308 -0.89,2.023 -2.14,2.027 m 6.714,-2.898 0.008,2.879 -1.36,0.004 -0.007,-2.88 -2.121,-4.132 1.488,-0.004 1.316,2.824 1.286,-2.832 1.488,-0.004 z m 43.539,0.05 1.66,-0.003 -0.843,-2.95 z m -10.019,0.282 c -0.27,-0.137 -0.625,-0.133 -0.903,-0.133 l -1.234,0.004 0.008,1.84 1.348,-0.004 c 0.308,0 0.652,0.011 0.902,-0.2 a 0.88,0.88 0 0 0 0.371,-0.71 0.9,0.9 0 0 0 -0.492,-0.797 m -0.008,-2.492 a 0.9,0.9 0 0 0 0.293,-0.668 c 0,-0.758 -0.621,-0.86 -1.215,-0.86 l -1.215,0.004 0.004,1.727 1.262,-0.004 c 0.297,0 0.652,0.008 0.871,-0.2"
       id="path2203" /><path
       fill="#ffffff"
       d="m 373.055,138.492 c -2.137,0.008 -4.036,-0.879 -4.59,-3.086 l 2.89,-0.527 c 0.27,0.902 0.953,1.226 1.856,1.222 0.398,0 1.199,-0.062 1.199,-0.625 -0.004,-0.62 -0.79,-0.738 -1.246,-0.828 -1.918,-0.363 -4.184,-0.875 -4.192,-3.293 -0.003,-0.992 0.48,-1.976 1.297,-2.55 0.828,-0.582 1.91,-0.782 2.918,-0.782 1.766,-0.007 3.47,0.715 4.098,2.477 l -2.574,0.797 c -0.301,-0.754 -0.867,-1.024 -1.653,-1.02 -0.414,0 -1.003,0.121 -1.003,0.653 0,0.535 0.746,0.636 1.125,0.726 0.968,0.188 1.992,0.352 2.882,0.805 0.993,0.531 1.512,1.48 1.516,2.594 0.008,2.445 -2.422,3.433 -4.524,3.437 m -7.692,-0.129 -2.906,0.008 -0.05,-7.266 -1.833,7.27 -1.984,0.008 -1.965,-7.262 0.02,7.266 -2.34,0.007 -0.028,-10.171 4.07,-0.012 1.5,5.39 1.38,-5.398 4.109,-0.012 z m -14.918,-7.789 -4.582,0.012 0.008,1.488 3.707,-0.012 0.008,2.27 -3.711,0.008 0.004,1.644 4.582,-0.011 0.008,2.43 -7.637,0.023 -0.027,-10.172 7.632,-0.02 z m -11.058,0.133 -2.09,0.008 0.02,7.726 -2.962,0.008 -0.02,-7.726 -2.136,0.007 -0.008,-2.445 7.192,-0.02 z m -14.504,7.918 c -2.133,0.008 -4.032,-0.879 -4.59,-3.086 l 2.887,-0.527 c 0.273,0.902 0.957,1.226 1.859,1.222 0.402,0 1.203,-0.062 1.2,-0.625 0,-0.62 -0.79,-0.738 -1.25,-0.828 -1.911,-0.363 -4.18,-0.875 -4.188,-3.293 -0.004,-0.992 0.484,-1.976 1.296,-2.55 0.832,-0.583 1.91,-0.782 2.918,-0.782 1.766,-0.004 3.473,0.715 4.098,2.48 l -2.574,0.794 c -0.3,-0.754 -0.867,-1.02 -1.652,-1.02 -0.415,0 -1.004,0.121 -1.004,0.652 0.004,0.536 0.746,0.637 1.129,0.727 0.968,0.188 1.984,0.352 2.878,0.805 0.997,0.53 1.516,1.48 1.52,2.593 0.008,2.446 -2.422,3.434 -4.527,3.438 m -9.57,-4.422 0.011,4.297 -3.023,0.008 -0.012,-4.297 -3.445,-5.863 3.425,-0.008 1.79,3.344 1.695,-3.356 2.73,-0.004 z m -13.106,4.484 c -2.137,0.008 -4.035,-0.878 -4.59,-3.085 l 2.89,-0.528 c 0.266,0.903 0.95,1.227 1.856,1.223 0.395,0 1.2,-0.063 1.2,-0.625 -0.005,-0.621 -0.79,-0.738 -1.25,-0.828 -1.915,-0.364 -4.18,-0.875 -4.188,-3.293 -0.004,-0.992 0.484,-1.977 1.3,-2.551 0.825,-0.582 1.91,-0.777 2.915,-0.781 1.761,-0.008 3.472,0.715 4.093,2.476 l -2.57,0.797 c -0.3,-0.754 -0.867,-1.02 -1.648,-1.02 -0.418,0.005 -1.012,0.122 -1.008,0.657 0,0.531 0.738,0.633 1.125,0.722 0.969,0.188 1.988,0.352 2.879,0.805 1,0.531 1.52,1.48 1.52,2.598 0.007,2.441 -2.419,3.43 -4.524,3.433 m -12.38,-7.945 -4.581,0.016 0.004,1.484 3.703,-0.012 0.004,2.27 -3.703,0.008 0.008,1.644 4.578,-0.011 0.007,2.43 -7.636,0.023 -0.028,-10.172 7.637,-0.02 z m -14.105,7.867 -0.585,-1.996 -2.715,0.008 -0.614,2 -2.535,0.008 3.125,-10.18 3.293,-0.008 3.211,10.16 z m -10.335,-0.547 c -0.782,0.567 -1.875,0.582 -2.793,0.582 l -4.664,0.016 -0.028,-10.168 4.969,-0.016 c 0.77,-0.003 1.555,0.055 2.195,0.512 0.684,0.488 1.086,1.317 1.09,2.149 0.004,1.07 -0.68,1.98 -1.719,2.242 1.176,0.203 1.985,1.094 1.989,2.308 0,0.875 -0.313,1.856 -1.04,2.375 m -15.172,-14.726 0.058,20.64 134.18,-0.37 -0.059,-20.641 z m 35.951,-95.102 v -4.812 c 1.71,-4.528 5.465,-6.446 8.441,-8.242 3.348,-1.996 5.711,-3.141 5.711,-6.61 0,-2.976 -1.222,-4.484 -4.402,-4.484 h -0.203 c -3.672,0 -4.938,1.508 -4.938,5.71 h -4.488 c 0,-6.405 3.344,-9.788 9.426,-9.788 h 0.203 c 5.793,0 8.89,3.383 8.89,8.562 0,5.305 -4.28,7.672 -7.503,9.63 -2.653,1.671 -5.875,3.343 -6.61,5.667 v 0.164 h 13.95 v 4.203 z m 30.551,-3.672 c 3.425,0 4.812,-1.507 4.812,-6.117 v -8.241 c 0,-4.61 -1.387,-6.117 -4.812,-6.117 h -0.246 c -3.387,0 -4.774,1.508 -4.774,6.117 v 8.242 c 0,4.61 1.387,6.117 4.774,6.117 z m -0.246,4.079 c -5.547,0 -9.301,-3.383 -9.301,-10.196 v -8.241 c 0,-6.812 3.754,-10.195 9.3,-10.195 h 0.247 c 5.59,0 9.3,3.383 9.3,10.195 v 8.242 c 0,6.813 -3.71,10.196 -9.3,10.196 z m 12.113,-0.407 v -4.812 c 1.715,-4.528 5.465,-6.446 8.445,-8.242 3.344,-1.996 5.707,-3.141 5.707,-6.61 0,-2.976 -1.222,-4.484 -4.402,-4.484 h -0.203 c -3.672,0 -4.938,1.508 -4.938,5.71 h -4.488 c 0,-6.405 3.348,-9.788 9.426,-9.788 h 0.203 c 5.793,0 8.89,3.383 8.89,8.562 0,5.305 -4.28,7.672 -7.503,9.63 -2.653,1.671 -5.875,3.343 -6.61,5.667 v 0.164 h 13.953 v 4.203 z m 35.445,-8.199 c 0,-3.101 -1.344,-4.691 -4.773,-4.691 -3.63,0 -5.219,1.672 -5.219,4.406 0,3.18 1.305,4.812 5.016,4.812 3.671,0 4.976,-1.386 4.976,-4.527 m -14.48,-1.55 v -8.282 c 0,-6.934 3.793,-10.195 9.547,-10.195 5.586,0 9.093,3.218 9.093,8.972 h -4.527 c 0,-3.59 -1.14,-4.894 -4.566,-4.894 -3.59,0 -5.059,1.305 -5.059,6.117 v 4.61 h 0.445 c 0.817,-2.204 2.778,-3.508 6.242,-3.508 4.407,0 7.793,2.367 7.793,8.445 0,5.59 -3.632,8.89 -9.464,8.89 -5.875,0 -9.504,-3.3 -9.504,-10.156 M 185,18.454 h 9.363 l 1.652,-6.77 h -9.484 l 0.899,-3.84 h 9.093 l 1.785,-7.309 h -18.972 l -6.387,27.535 h 9.805 z m 19.308,9.616 6.383,-27.535 h -9.8 L 194.504,28.07 Z M 221.262,7.223 c 0.628,-0.121 0.945,-0.164 1.527,-0.164 2.023,0 3.058,0.703 3.058,2.105 0,2.64 -2.203,4.5 -5.351,4.5 -0.36,0 -0.402,-0.043 -0.719,-0.086 z m -4.813,20.847 2.16,-9.414 c 1.844,4.461 2.246,5.492 3.64,9.414 h 10.794 c -1.934,-4.418 -4.23,-8.875 -4.992,-9.742 a 6,6 0 0 0 -0.497,-0.414 l 0.63,-0.203 c 2.609,-0.785 3.867,-1.57 5.261,-3.18 1.621,-1.86 2.473,-4.254 2.473,-6.77 0,-2.933 -1.617,-5.367 -4.317,-6.484 C 229.488,0.41 226.703,0 223.105,0 c -2.16,0 -6.07,0.246 -9.218,0.617 l -0.63,0.082 -6.34,27.371 z m 48,-19.562 -4.676,19.562 h 9.805 l 4.676,-19.562 h 7.058 l 1.66,-7.973 h -23.785 l -2.386,7.973 z m 11.813,17.039 a 2.09,2.09 0 0 1 -2.098,2.086 2.077,2.077 0 0 1 -2.09,-2.098 c 0,-1.156 0.934,-2.09 2.09,-2.09 1.164,0 2.098,0.934 2.098,2.102 m -4.485,-0.012 c 0,1.352 1.047,2.395 2.387,2.395 a 2.38,2.38 0 0 0 2.394,-2.395 2.387,2.387 0 0 0 -2.394,-2.383 2.366,2.366 0 0 0 -2.387,2.383"
       id="path2205" /><path
       fill="#ffffff"
       d="m 274.433,25.168 c 0,0.191 -0.12,0.293 -0.336,0.293 -0.035,0 -0.054,0 -0.09,-0.008 v -0.566 c 0.048,-0.008 0.055,-0.008 0.102,-0.008 0.211,0 0.324,0.101 0.324,0.289 m -0.812,-0.89 c -0.242,0.019 -0.262,0.027 -0.383,0.038 v 2.43 h 0.77 v -0.82 c 0.23,0.386 0.285,0.476 0.468,0.82 h 0.899 c -0.23,-0.379 -0.508,-0.797 -0.594,-0.867 -0.008,-0.02 -0.016,-0.028 -0.043,-0.047 l 0.035,-0.012 c 0.317,-0.12 0.461,-0.332 0.461,-0.683 0,-0.582 -0.387,-0.887 -1.172,-0.887 -0.101,0 -0.203,0.012 -0.441,0.027 m -31.031,4.371 c 3.824,0 6.746,-0.867 9.265,-2.683 2.785,-1.98 4.586,-5.035 4.586,-7.801 0,-1.86 -0.808,-3.55 -2.25,-4.75 -1.125,-0.906 -2.293,-1.61 -4.676,-2.723 l -1.933,-0.91 c -0.63,-0.328 -0.945,-0.66 -0.945,-1.031 0,-0.988 1.261,-1.734 2.968,-1.734 1.278,0 2.801,0.375 5.715,1.324 l 2.008,-7.453 C 255.152,0.297 253.031,0 250.91,0 c -8.004,0 -14.164,4.375 -14.164,10.031 0,2.973 1.976,5.078 6.926,7.39 2.336,1.071 2.742,1.36 2.742,2.102 0,1.118 -1.215,1.82 -3.192,1.82 -1.753,0 -4.003,-0.538 -7.062,-1.652 h -0.004 l -2.148,7.68 c 2.754,0.816 5.77,1.277 8.582,1.277"
       id="path2207" /><path
       fill="#fbc32f"
       d="m 24.433,93.695 c -3.859,0 -7.03,-1.648 -9.523,-4.941 -2.492,-3.297 -3.738,-8.371 -3.738,-15.23 q -0.001,-8.76 3.86,-13.583 3.854,-4.823 9.401,-4.824 4.9,0.001 7.555,3.254 2.655,3.26 3.375,8.398 l 10.77,-1.687 Q 45.165,55.922 39.101,50.496 33.034,45.07 24.351,45.07 c -6.64,0 -12.363,2.52 -17.156,7.555 Q 0,60.183 0,73.523 c 0,10.125 2.265,17.696 6.793,22.704 q 6.79,7.516 17.64,7.515 9.321,0 15.11,-5.625 5.789,-5.625 7.152,-15.433 L 35.445,80.191 Q 33.915,93.696 24.433,93.695 M 313.23,89.074 q -3.696,4.7 -9.484,4.7 c -3.856,0 -7.02,-1.59 -9.48,-4.782 -2.47,-3.187 -3.7,-8.21 -3.7,-15.066 q -10e-4,-9.164 3.778,-13.985 3.778,-4.823 9.402,-4.824 c 3.7,0 6.816,1.61 9.363,4.824 2.543,3.215 3.82,7.875 3.82,13.985 0,6.965 -1.234,12.011 -3.699,15.148 m 7.356,-36.89 c -2.332,-2.332 -4.934,-4.098 -7.797,-5.305 a 23.15,23.15 0 0 0 -9.043,-1.809 c -3.16,0 -6.176,0.606 -9.04,1.809 -2.866,1.207 -5.464,2.972 -7.796,5.305 q -3.497,3.496 -5.547,9.12 c -1.363,3.755 -2.047,7.958 -2.047,12.622 q 0.001,7.791 2.047,13.703 2.05,5.905 5.547,9.32 3.496,3.417 7.754,5.106 4.26,1.687 9.082,1.687 4.822,0 9.082,-1.687 4.26,-1.687 7.758,-5.106 c 2.328,-2.277 4.18,-5.383 5.543,-9.32 q 2.05,-5.912 2.05,-13.703 c 0,-4.664 -0.683,-8.867 -2.05,-12.621 -1.364,-3.75 -3.215,-6.79 -5.543,-9.121 m 88.09,17.238 c -6.43,-2.195 -10.426,-3.735 -11.977,-4.621 q -2.332,-1.326 -2.332,-3.817 0,-2.653 2.05,-4.257 2.048,-1.611 6.227,-1.61 7.876,0 10.368,7.957 l 10.53,-2.652 q -1.447,-7.636 -7.195,-11.492 -5.747,-3.861 -13.703,-3.86 -8.76,0.002 -13.863,4.703 -5.102,4.7 -5.101,11.293 c 0,3.805 1.214,7.004 3.656,9.602 q 3.654,3.901 12.418,6.633 c 6.215,1.925 10.191,3.496 11.933,4.699 q 2.614,1.81 2.614,5.184 -0.002,3.216 -2.735,4.863 -2.73,1.647 -7.312,1.648 -5.385,0.001 -7.758,-2.933 c -1.578,-1.957 -2.719,-5.13 -3.414,-9.524 l -11.414,2.492 q 1.207,9.967 7.113,14.989 5.906,5.022 15.473,5.023 9.403,0 15.027,-4.902 5.625,-4.904 5.625,-12.38 0,-6.346 -3.453,-10.085 -3.459,-3.737 -12.777,-6.953 M 127.542,46.211 h -17.038 l 5.484,6.394 -18.023,49.864 h 10.77 L 122.64,62.285 h 0.16 l 12.497,36.332 -2.504,3.965 15,-0.113 z"
       id="path2209" /><path
       fill="#fbc32f"
       d="m 122.773,83.086 a 5.98,5.98 0 0 0 -5.98,5.98 5.98,5.98 0 0 0 5.98,5.98 5.98,5.98 0 0 0 5.98,-5.98 5.98,5.98 0 0 0 -5.98,-5.98 m 133.75,-36.875 5.32,6.207 v 50.117 h 10.852 V 46.277 Z m 218.164,0 6.059,7.058 v 49.266 h 10.848 V 46.277 Z m -19.332,0 5.766,6.719 V 70 h -19.29 V 46.277 l -15.776,-0.066 4.925,5.742 v 50.582 h 10.852 V 79.242 h 19.289 v 23.293 h 10.848 V 46.277 Z m -378.265,0 5.761,6.719 V 70 H 63.562 V 46.277 l -15.773,-0.066 4.926,5.742 v 50.582 H 63.562 V 79.242 h 19.29 v 23.293 h 10.85 V 46.277 Z m 298.078,0.066 -16.938,-0.066 6.086,7.098 v 16.98 l -19.222,-24.008 -16.563,-0.07 5.649,6.582 v 49.742 h 10.847 V 63.559 l 19.29,24.085 v 14.891 h 10.85 z m -197.543,36.489 -16.313,-36.489 -17.398,-0.066 6.226,7.258 v 49.066 h 10.528 V 67.976 h 0.16 l 15.277,34.645 h 3.79 l 14.69,-34.644 h 0.16 v 34.558 h 10.606 V 46.277 h -11.25 z m 56.777,-10.125 a 8.63,8.63 0 0 1 -8.629,-8.633 8.63,8.63 0 0 1 8.63,-8.63 8.63,8.63 0 0 1 8.632,8.63 8.63,8.63 0 0 1 -8.633,8.633 m 15.328,-21.5 q -5.387,-4.864 -13.984,-4.864 h -22.824 v 56.258 h 10.847 V 82.044 h 11.977 q 9.002,-0.002 14.183,-4.824 5.186,-4.823 5.184,-13.02 0.001,-8.196 -5.383,-13.058 m 271.024,21.499 a 8.633,8.633 0 0 1 -8.633,-8.633 c 0,-4.766 3.867,-8.63 8.633,-8.63 4.766,0 8.633,3.864 8.633,8.63 a 8.633,8.633 0 0 1 -8.633,8.633 m 15.324,-21.5 q -5.384,-4.864 -13.984,-4.864 h -22.825 v 56.258 h 10.852 V 82.044 h 11.973 q 9,-0.002 14.187,-4.824 c 3.453,-3.215 5.184,-7.555 5.184,-13.02 q -10e-4,-8.196 -5.387,-13.058"
       id="path2211" /></g></svg>
