<svg xmlns="http://www.w3.org/2000/svg" width="444.699" height="83.068" viewBox="0 0 117.66 21.978"><path d="m98.366 178.255-1.383 3.028 2.023-.016-5.169 11.866s2.924.087 5.694.314c2.345.19 4.606.527 4.606.527l1.159-3.044-6.606-.498 1.26-2.99 3.477.189 1.264-2.922-3.751-.177 1.392-3.249h5.55l1.061-3zm7.282 14.916-.743.019.003.16.277-.007.02.755.19-.004-.02-.755.277-.007zm.868-.022-.233.62-.011.002-.265-.61-.236.007.023.915.186-.004-.015-.598h.007l.25.587.126-.004.22-.597h.006l.016.595.186-.004-.023-.914zm-57.976-2.365c.926-2.023 3.74-8.642 4.334-9.935 0 0 2.967-.847 3.713 1.018 1.026 2.563-2.377 7.602-8.047 8.917m.398-13.056-1.582 3.298 1.884-.493c-.646 1.228-6.124 13.16-6.59 14.361 2.027-.12 9.154-1.512 11.814-3.408 2.653-1.862 5.921-4.898 6.204-9.349.161-2.524-1.145-7.134-11.73-4.409m41.17 2.62c-1.346.006-2.834.334-3.974.867q-.78-.653-2.163-.655c-1.616 0-3.214.708-4.747 2.105-1.369 1.228-2.395 2.668-3.046 4.28a9 9 0 0 0-.436 1.388l-2.262-.565-.066.133a3.7 3.7 0 0 1-.529.79 5 5 0 0 1-.715.66c-.575.426-1.16.643-1.74.643-.324 0-.697-.096-.697-.83 0-.547.161-1.199.482-1.939a8.3 8.3 0 0 1 1.372-2.223c.67-.757 1.386-1.175 2.11-1.245h.175c.584 0 .957.234 1.142.713l.07.18 3.012-1.342-.017-.136c-.218-1.676-1.246-2.526-3.057-2.526-1.568 0-3.148.714-4.696 2.12-1.329 1.223-2.34 2.654-3.003 4.249a7.6 7.6 0 0 0-.624 2.789l-4.478.216.76-1.976 2.33-.129 1.03-2.398-2.36.129.817-2.118 3.797-.04 1.556-2.639h-8.21l-1.168 2.76.95-.02-4.037 9.595s2.269-.22 4.384-.352c1.874-.118 4.515-.149 4.515-.149l.404-1.184c.4.802 1.212 1.186 2.482 1.186 1.069 0 2.348-.129 3.744-1.085a10 10 0 0 0 1.563-1.35 9 9 0 0 0 .816-1.014 6 6 0 0 0-.03.6c0 .915.225 1.65.672 2.185.474.544 1.186.82 2.117.82 1.488 0 3.008-.643 4.521-1.912 1.375-1.172 2.376-2.51 2.978-3.976.33-.816.497-1.52.497-2.094q0-.436-.117-.883c.654-.264 1.685-.61 2.555-.595-.149.288-5.02 9.081-5.054 9.14l-.127.22.25.045c.047.01.983.179 2.529.179q.492 0 1.06-.026c3.37-.35 5.494-2.057 6.681-3.428 1.354-1.562 2.224-3.567 2.27-5.233h.001c.099-3.525-4.257-3.815-5.688-3.911l-.035-.003a8 8 0 0 0-.567-.017zm1.346 3.172c.32.028 1.28.16 1.763.713.224.255.315.561.279.938-.232 2.368-3.288 4.772-5.503 4.988.465-.853 3.21-6.189 3.461-6.639m-8.927.178h.176c.655 0 1.05.22 1.205.67l-.995.665.058.14a1.9 1.9 0 0 1 .149.73c0 .818-.408 1.69-1.215 2.597-.818.942-1.625 1.42-2.402 1.42-.385 0-.829-.116-.829-1.018 0-1.002.407-2.096 1.21-3.253.842-1.225 1.735-1.883 2.643-1.951" style="stroke-width:.311136" transform="translate(-42.65 -174.905)"/><path d="M127.703 173.648h-.33v.496h.33c.16 0 .262-.1.262-.247s-.102-.25-.262-.25m.019.815h-.35v.681h-.352v-1.81h.702c.373 0 .596.257.596.564s-.223.565-.596.565m1.708-.814h-.332v.478h.332c.156 0 .257-.099.257-.238 0-.14-.101-.24-.257-.24m.276 1.495-.355-.722h-.253v.722h-.354v-1.81h.71c.369 0 .586.252.586.555 0 .253-.154.41-.33.475l.405.78zm.829 0v-1.81h1.192v.315h-.84v.424h.715v.316h-.714v.44h.84v.315zm2.164.015c-.275 0-.483-.057-.66-.238l.228-.23c.115.116.269.153.437.153.208 0 .321-.079.321-.224a.2.2 0 0 0-.056-.152c-.036-.034-.076-.052-.16-.064l-.22-.03a.62.62 0 0 1-.35-.15.48.48 0 0 1-.13-.356c0-.323.24-.55.631-.55.25 0 .43.062.584.211l-.223.222a.5.5 0 0 0-.37-.124c-.19 0-.282.103-.282.227a.18.18 0 0 0 .054.131c.036.033.095.06.168.07l.213.03c.166.024.27.07.346.141.097.091.14.224.14.385 0 .35-.293.548-.671.548m1.132-.015v-1.81h1.192v.315h-.838v.424h.714v.316h-.714v.44h.838v.315zm2.737 0-.718-1.11v1.11h-.353v-1.81h.316l.716 1.109v-1.11h.353v1.811zm1.557-1.495v1.495h-.354v-1.495h-.473v-.316h1.3v.316zm.888 1.495v-1.81h1.192v.315h-.84v.424h.716v.316h-.715v.44h.839v.315zm2.55-1.383c-.06-.073-.141-.112-.264-.112h-.268v1.18h.268c.123 0 .204-.04.264-.112.067-.081.076-.21.076-.485 0-.276-.01-.389-.076-.471m.247 1.21a.66.66 0 0 1-.478.173h-.653v-1.81h.653c.189 0 .358.053.478.173.203.204.184.452.184.725s.019.536-.184.738m1.39-1.637v1.81h.757c.323 0 .554-.183.554-.52a.42.42 0 0 0-.25-.406.42.42 0 0 0 .225-.374c0-.311-.207-.51-.56-.51zm.354.315h.344c.15 0 .234.085.234.208 0 .126-.084.21-.234.21h-.344zm.367.735c.16 0 .237.1.237.222s-.077.224-.237.224h-.367v-.445zm1.771.018v.743h-.351v-.743l-.545-1.068h.385l.338.73.333-.73h.384z" style="stroke-width:.352778" transform="translate(-42.65 -173.317)"/><path fill="#000000" d="m117.305 190.929-2.247-.824q.064-.208.148-.408l2.253.826a1.6 1.6 0 0 0-.154.406m9.908-1.148q.09.207.09.465a1.2 1.2 0 0 1-.09.473.94.94 0 0 1-.254.352 1.1 1.1 0 0 1-.402.222 1.7 1.7 0 0 1-.54.078h-.348v1.033h-.826v-3.273h1.18q.297 0 .534.078.237.077.402.222.166.144.254.35m-.743.465q0-.46-.572-.46h-.229v.93h.23q.57 0 .571-.47m-6.056.509a1.62 1.62 0 0 1-1.529 2.161 1.62 1.62 0 0 1-1.598-1.348l-2.247.825q.074.263.183.511l2.233-.82-1.823 1.543q.173.244.38.458l1.704-1.44-1.112 1.947a4 4 0 0 0 .56.328l1.045-1.83-.364 2.082q.335.091.69.122l.34-1.946.341 1.948a4 4 0 0 0 .724-.129l-.318-1.806.913 1.59a4 4 0 0 0 .705-.414l-.838-1.457 1.28 1.08a4 4 0 0 0 .544-.666l-1.143-.965 1.4.513a4 4 0 0 0 .297-.852l-1.228-.45h1.306q.025-.226.026-.457 0-.27-.036-.528zm-2.63-.652-1.837-1.553q-.129.139-.242.29l1.833 1.55a1.7 1.7 0 0 1 .247-.287m-.52 1.19q0-.133.02-.263h-2.392q-.008.125-.01.253 0 .118.008.236h2.388a1.5 1.5 0 0 1-.016-.225m35.204-1.18a.8.8 0 0 0-.385.09.6.6 0 0 0-.252.254l-.009-.275h-.758v2.221h.775v-1.176q0-.205.084-.316.084-.11.248-.11.297 0 .297.397v1.206h.775v-1.352q0-.465-.196-.703t-.579-.236m-32.676-.164 1.198-2.091a4 4 0 0 0-.195-.116l-1.201 2.093q.102.05.198.114m-1.566-.137-1.202-2.096a4 4 0 0 0-.279.164l1.2 2.093a1.5 1.5 0 0 1 .281-.161m1.478-2.473a4 4 0 0 0-.24-.042l-.418 2.383q.124.012.24.042zm-.969 2.34-.417-2.384q-.135.019-.266.047l.417 2.384a1.5 1.5 0 0 1 .266-.047m1.457.656 1.832-1.547a3 3 0 0 0-.126-.152l-1.832 1.547q.067.072.126.152m23.26.91-.616-2.07h-.724l-.607 2.11-.49-2.155h-.91l.965 3.274h.783l.613-2.106.624 2.106h.783l.969-3.273h-.908zm3.079-1.132q-.207 0-.37.08-.165.08-.26.226v-1.288h-.774v3.273h.774v-1.176q0-.206.085-.316.084-.11.247-.11.297 0 .297.396v1.206h.776v-1.352q0-.465-.196-.703-.196-.236-.58-.236m1.247 2.291h.775v-2.222h-.775Zm2.81-1.598.194-.624h-.724v-.573h-.775v.573h-.375v.624h.375v.793q0 .874.84.874.197 0 .363-.033.168-.031.278-.08l-.077-.597q-.073.03-.157.047t-.187.017q-.16 0-.222-.082-.063-.082-.063-.28v-.659zm-2.422-1.804q-.186 0-.311.118-.125.119-.125.3 0 .176.125.295.125.118.311.118.185 0 .31-.116.124-.117.124-.297 0-.181-.124-.3-.125-.118-.31-.118m-12.698 1.804.195-.624h-.724v-.573h-.775v.573h-.957v-.573h-.775v.573h-.375v.624h.375v.793q0 .874.84.874.198 0 .364-.033.166-.031.278-.08l-.078-.597q-.072.03-.156.047t-.188.017q-.16 0-.222-.082-.063-.082-.063-.28v-.659h.957v.793q0 .874.839.874.2 0 .364-.032.165-.034.278-.08l-.077-.598a1 1 0 0 1-.158.047 1 1 0 0 1-.188.017q-.158 0-.22-.082-.063-.082-.063-.28v-.659zm22.075-.624-.426 1.184-.453-1.184h-.847l.911 2.095-.522 1.095h.785l1.383-3.19zm-26.52 0h.728v2.222h-.727l-.01-.254a.65.65 0 0 1-.268.238.85.85 0 0 1-.386.085q-.224 0-.409-.086a.9.9 0 0 1-.318-.24 1.2 1.2 0 0 1-.21-.372 1.4 1.4 0 0 1-.075-.474q0-.253.077-.47.078-.218.219-.378a1 1 0 0 1 .329-.25.9.9 0 0 1 .409-.09q.203 0 .368.086.166.086.265.242zm-.004 1.11q0-.218-.126-.354-.124-.137-.322-.137-.199 0-.325.137-.128.136-.128.355t.128.356q.126.135.325.135.198 0 .322-.135.126-.137.126-.356m24.776.198h-1.465q.116.379.647.379.14 0 .303-.037a2 2 0 0 0 .285-.088l.246.495a1.3 1.3 0 0 1-.406.172q-.24.06-.498.06-.31 0-.558-.08a1.3 1.3 0 0 1-.421-.235 1 1 0 0 1-.267-.373 1.3 1.3 0 0 1-.093-.491q0-.262.084-.48a1.1 1.1 0 0 1 .239-.372 1.1 1.1 0 0 1 .368-.242 1.3 1.3 0 0 1 .471-.086q.25 0 .452.077a.94.94 0 0 1 .345.222q.143.145.218.35.076.204.076.462-.001.16-.026.267m-.698-.443q-.022-.177-.12-.274-.1-.097-.259-.097-.328 0-.4.37zm-26.482-.812a.65.65 0 0 0-.224.277l-.009-.33h-.753v2.221h.774v-.952q0-.59.453-.59.069 0 .147.016a1 1 0 0 1 .138.04l.06-.732a.6.6 0 0 0-.254-.046q-.19 0-.332.096m10.487 1.613.486.555h-.814l-.13-.142a1.67 1.67 0 0 1-.851.211q-.531 0-.84-.245-.31-.247-.31-.663 0-.556.61-.87-.267-.333-.267-.637a.7.7 0 0 1 .268-.563.9.9 0 0 1 .295-.156 1.1 1.1 0 0 1 .365-.056q.192 0 .354.051.162.052.276.148a.7.7 0 0 1 .177.23q.062.134.063.298 0 .483-.592.802l.475.537q.082-.215.082-.524h.65q0 .593-.297 1.023m-1.434-1.779q0 .078.043.158t.155.204a.6.6 0 0 0 .191-.165q.059-.085.058-.197 0-.11-.055-.175a.2.2 0 0 0-.16-.065.23.23 0 0 0-.168.066.24.24 0 0 0-.064.174m.59 1.758-.646-.727q-.211.158-.21.387 0 .193.134.301.136.108.373.108.215 0 .349-.069" style="stroke-width:.303824" transform="translate(-42.65 -173.317)"/><path fill="#000000" d="M159.586 180.313a.45.45 0 0 0-.121-.273q-.1-.098-.258-.097-.329 0-.401.37zm.714 1.192a1.3 1.3 0 0 1-.407.172 2 2 0 0 1-.497.061q-.31 0-.557-.082a1.2 1.2 0 0 1-.423-.235 1 1 0 0 1-.266-.372 1.2 1.2 0 0 1-.093-.49q0-.264.083-.48.085-.218.24-.373t.368-.242a1.3 1.3 0 0 1 .472-.085q.249 0 .451.077.202.078.345.221.141.146.218.35.075.204.075.462-.001.16-.026.268h-1.464q.116.378.646.378.142 0 .303-.036.162-.037.287-.089zm-2.347.022a1.2 1.2 0 0 1-.355.15 1.6 1.6 0 0 1-.41.052q-.293 0-.522-.082a1.1 1.1 0 0 1-.387-.234 1 1 0 0 1-.241-.366 1.3 1.3 0 0 1-.082-.48q0-.264.09-.48.09-.218.252-.373t.387-.24a1.4 1.4 0 0 1 .497-.087q.38 0 .63.125l-.1.654a.7.7 0 0 0-.214-.069 1.4 1.4 0 0 0-.216-.02q-.258-.001-.407.128a.44.44 0 0 0-.148.353q0 .228.148.355.149.128.42.127.082 0 .19-.017t.189-.047zm-3.444-.479q.197 0 .323-.135.125-.135.125-.355t-.125-.355q-.126-.135-.323-.135a.43.43 0 0 0-.325.135q-.127.135-.127.355t.127.355q.127.136.325.135m-.21.69q-.225 0-.41-.086a.9.9 0 0 1-.318-.242 1.1 1.1 0 0 1-.209-.37 1.4 1.4 0 0 1-.076-.472q0-.256.077-.473.078-.216.218-.376a1 1 0 0 1 .33-.25q.189-.09.409-.09a.8.8 0 0 1 .368.085q.166.087.265.242l.01-.258h.726v2.22h-.727l-.009-.254a.67.67 0 0 1-.27.24.9.9 0 0 1-.385.084m-2.48-.69q.198 0 .325-.135.128-.135.128-.355t-.128-.355a.43.43 0 0 0-.325-.135.42.42 0 0 0-.323.135q-.124.135-.124.355t.124.355a.42.42 0 0 0 .323.135m-1.18-1.6h.728l.01.253q.099-.155.269-.238a.85.85 0 0 1 .385-.084q.223 0 .41.085a.9.9 0 0 1 .318.241q.134.155.208.371.076.215.076.474 0 .254-.078.47a1.1 1.1 0 0 1-.217.377 1 1 0 0 1-.33.25q-.188.091-.408.091a.8.8 0 0 1-.338-.07.7.7 0 0 1-.257-.197v1.167h-.775zm-1.184.495q-.236 0-.235.128 0 .07.068.11.07.042.263.088.404.1.582.28.18.18.18.483 0 .336-.262.52-.259.186-.741.186-.26 0-.5-.058-.242-.06-.384-.157l.255-.46q.13.05.289.08t.292.03q.28.001.28-.133a.1.1 0 0 0-.014-.06.13.13 0 0 0-.048-.048 1 1 0 0 0-.102-.042 3 3 0 0 0-.163-.048 2 2 0 0 1-.347-.12.8.8 0 0 1-.235-.16q-.09-.09-.133-.206a.8.8 0 0 1-.043-.267q0-.336.252-.523.251-.188.7-.187.223 0 .44.047.218.046.36.13l-.077.554a1.7 1.7 0 0 0-.336-.123 1.4 1.4 0 0 0-.341-.045m-2.484 1.145q.22 0 .352-.143.131-.145.131-.386 0-.236-.131-.384-.132-.145-.352-.145a.46.46 0 0 0-.353.145q-.133.148-.133.384 0 .241.133.386.134.144.353.143m0 .651a1.3 1.3 0 0 1-.49-.089 1.2 1.2 0 0 1-.386-.244 1.1 1.1 0 0 1-.253-.376 1.2 1.2 0 0 1-.092-.471 1.16 1.16 0 0 1 .348-.844q.163-.159.387-.248a1.3 1.3 0 0 1 .486-.087q.263 0 .487.088t.388.246q.163.156.253.374.09.217.09.471t-.092.47q-.092.214-.253.374a1.2 1.2 0 0 1-.386.247 1.3 1.3 0 0 1-.487.09m-2.94-2.291h.754l.009.331q.081-.181.224-.278a.6.6 0 0 1 .33-.097q.148 0 .255.047l-.06.733a.7.7 0 0 0-.137-.041 1 1 0 0 0-.147-.015q-.453 0-.452.59v.95h-.774zm-1.088.865q-.023-.177-.121-.274-.1-.097-.258-.097-.329 0-.402.37zm.713 1.192a1.3 1.3 0 0 1-.407.172 2 2 0 0 1-.497.061q-.31 0-.558-.083a1.2 1.2 0 0 1-.421-.234 1 1 0 0 1-.267-.373 1.2 1.2 0 0 1-.093-.49q0-.263.084-.48.085-.218.24-.372.155-.155.367-.242a1.3 1.3 0 0 1 .472-.085q.25 0 .452.077.202.078.344.22.142.146.218.35.075.205.075.463 0 .16-.025.268h-1.464q.115.377.646.377.142 0 .303-.035a2 2 0 0 0 .286-.089zm-3.677-1.25-.374-1.114-.375 1.115zm-.792-1.86h.896l1.282 3.273h-.907l-.255-.753h-1.192l-.25.753h-.856zm-3.138 1.547q-.237 0-.237.129 0 .07.069.11.069.042.262.088.405.1.584.28t.179.482q0 .336-.26.521-.261.185-.744.186a2 2 0 0 1-.498-.058q-.242-.06-.384-.158l.254-.46a1.7 1.7 0 0 0 .582.111q.28.001.28-.133a.2.2 0 0 0-.014-.061.12.12 0 0 0-.05-.047 1 1 0 0 0-.1-.043 3 3 0 0 0-.165-.047 2 2 0 0 1-.345-.12.8.8 0 0 1-.235-.16q-.09-.09-.134-.207a.8.8 0 0 1-.043-.266q0-.336.252-.524.252-.187.7-.187.223 0 .441.048.217.046.36.129l-.078.555a1.7 1.7 0 0 0-.335-.123 1.4 1.4 0 0 0-.341-.045m-3.539-.495h.758l.009.275a.6.6 0 0 1 .252-.254q.166-.09.385-.09.384 0 .579.237.197.237.196.702v1.351h-.775v-1.205q0-.395-.297-.395-.164-.001-.248.109t-.084.317v1.174h-.774zm-1.275 0h.776v2.221h-.776zm.388-.35a.43.43 0 0 1-.31-.117.4.4 0 0 1-.125-.295q0-.18.125-.3a.44.44 0 0 1 .31-.118q.185 0 .31.118.125.12.125.3 0 .182-.124.297a.44.44 0 0 1-.31.116m-1.719-.702h.776v3.272h-.776zm-1.265 0h.775v3.272h-.775zm-1.546 2.69q.22.001.351-.142.132-.145.132-.386 0-.237-.132-.384-.131-.145-.351-.145a.46.46 0 0 0-.353.145q-.133.147-.134.384 0 .24.134.386.134.143.353.143m0 .65q-.267 0-.49-.096a1.2 1.2 0 0 1-.39-.263 1.2 1.2 0 0 1-.26-.39 1.2 1.2 0 0 1-.092-.478q0-.254.095-.463a1.1 1.1 0 0 1 .258-.357 1.2 1.2 0 0 1 .391-.23 1.4 1.4 0 0 1 .488-.082q.263 0 .486.088a1.2 1.2 0 0 1 .388.246q.165.157.254.374.091.217.091.472 0 .253-.093.47-.092.214-.254.374a1.2 1.2 0 0 1-.386.247 1.3 1.3 0 0 1-.486.089m-1.412-.38a1.6 1.6 0 0 1-.533.267q-.307.09-.652.09-.395.001-.707-.11a1.5 1.5 0 0 1-.532-.326 1.4 1.4 0 0 1-.336-.526 2 2 0 0 1-.116-.711q0-.375.131-.685.132-.31.368-.535a1.7 1.7 0 0 1 .566-.348q.33-.124.726-.124.142 0 .291.019.148.02.288.055.14.037.265.087t.224.105l-.353.671q-.095-.043-.173-.076a2 2 0 0 0-.15-.057 1 1 0 0 0-.155-.032 2 2 0 0 0-.185-.011q-.444 0-.698.248t-.254.678q0 .207.063.374.062.168.179.289.115.12.282.187.165.067.371.067.2 0 .38-.067a1.5 1.5 0 0 0 .348-.187zm-9.565-4.752q.131-.029.265-.046l.418 2.384q-.137.012-.265.046zm-.108 2.632q.132-.095.282-.161l-1.202-2.097q-.144.076-.28.164zm-.68 1.32q0-.135.02-.264h-2.392q-.008.126-.009.252 0 .12.007.237h2.388a1.5 1.5 0 0 1-.015-.225m3.242 0a1.62 1.62 0 0 1-1.622 1.621 1.62 1.62 0 0 1-1.598-1.347l-2.247.824q.075.263.183.512l2.234-.82-1.824 1.543q.175.243.38.458l1.705-1.442-1.112 1.95q.266.184.559.327l1.046-1.83-.365 2.082q.337.091.691.122l.34-1.946.342 1.948a4 4 0 0 0 .722-.128l-.317-1.807.912 1.59q.375-.171.705-.413l-.837-1.459 1.28 1.081a4 4 0 0 0 .544-.667l-1.143-.964 1.399.513a4 4 0 0 0 .298-.852l-1.228-.45h1.305q.026-.225.026-.458-.001-.268-.035-.527h-2.436a1.6 1.6 0 0 1 .093.54m-3.202-.366q.052-.216.153-.406l-2.252-.826q-.084.2-.148.41zm4.594-2.293-1.833 1.549q.068.071.127.151l1.832-1.548a4 4 0 0 0-.126-.152m-.908-.778a4 4 0 0 0-.195-.116l-1.203 2.093q.105.052.199.114zm-3.206 2.245-1.838-1.553a4 4 0 0 0-.243.291l1.835 1.55q.106-.159.246-.288m1.262-.423q.123.013.24.043l.417-2.383a4 4 0 0 0-.239-.043z" style="stroke-width:.303075" transform="translate(-42.65 -173.317)"/></svg>