<svg xmlns="http://www.w3.org/2000/svg" width="316pt" height="504" viewBox="0 0 316 378"><defs><clipPath id="a"><path d="M41 .8h235V235H41Zm0 0"/></clipPath><clipPath id="b"><path d="M172 351h143.602v27H172Zm0 0"/></clipPath></defs><path fill="#000000" d="M131.46 332.527h-.937v1.407h.938c.453 0 .742-.282.742-.7s-.289-.707-.742-.707m.052 2.309h-.989v1.93h-1v-5.133h1.989c1.058 0 1.691.73 1.691 1.601s-.633 1.602-1.691 1.602m4.842-2.309h-.94v1.356h.94c.442 0 .73-.281.73-.676 0-.398-.288-.68-.73-.68m.782 4.239-1.004-2.047h-.719v2.047h-1.004v-5.133h2.012c1.047 0 1.664.715 1.664 1.574 0 .719-.438 1.164-.938 1.348l1.149 2.21zm2.351 0v-5.133h3.38v.894h-2.38v1.203h2.024v.895h-2.024v1.246h2.38v.895zm6.133.043c-.777 0-1.367-.164-1.871-.676l.648-.653c.325.329.762.434 1.239.434.59 0 .91-.223.91-.633a.6.6 0 0 0-.16-.433c-.102-.094-.215-.145-.453-.18l-.621-.086c-.442-.066-.762-.203-.997-.426-.242-.246-.367-.574-.367-1.008 0-.914.68-1.558 1.79-1.558.706 0 1.218.176 1.656.598l-.633.628c-.325-.308-.715-.351-1.051-.351-.535 0-.797.293-.797.644 0 .133.047.27.152.371.102.094.27.172.477.2l.605.086c.47.066.762.195.98.398.274.258.395.633.395 1.09 0 .992-.828 1.555-1.902 1.555m3.211-.043v-5.133h3.379v.894h-2.375v1.203h2.023v.895h-2.023v1.246h2.375v.895zm7.758 0-2.035-3.149v3.149h-1v-5.133h.894l2.031 3.144v-3.144h1v5.133zm4.414-4.239v4.239H160v-4.239h-1.34v-.894h3.684v.894zm2.516 4.239v-5.133h3.378v.894h-2.378v1.203h2.027v.895h-2.027v1.246h2.378v.895zm7.23-3.922c-.172-.207-.402-.317-.75-.317h-.758v3.344H170c.348 0 .578-.11.75-.316.188-.23.215-.598.215-1.375 0-.782-.028-1.102-.215-1.336m.7 3.43c-.34.34-.821.492-1.356.492h-1.852v-5.133h1.852c.535 0 1.015.152 1.355.492.574.578.52 1.281.52 2.055 0 .77.054 1.52-.52 2.093m5.985-1.663h-1.043v1.261h1.043c.453 0 .671-.289.671-.633 0-.347-.218-.629-.671-.629m-.067-2.083h-.976v1.184h.976c.426 0 .664-.238.664-.594 0-.351-.238-.59-.664-.59m.168 4.239h-2.148v-5.133h2.062c1 0 1.586.562 1.586 1.445 0 .567-.375.934-.637 1.059.313.14.707.465.707 1.152 0 .957-.656 1.477-1.57 1.477m4.918-2.105v2.106h-.996v-2.106l-1.543-3.027h1.09l.957 2.07.945-2.07h1.09zM70.797 297.121c2.976-6.5 12.02-27.773 13.93-31.93 0 0 9.535-2.722 11.933 3.27 3.297 8.238-7.64 24.434-25.863 28.66m1.277-41.96-5.082 10.6 6.055-1.585c-2.078 3.945-19.684 42.293-21.184 46.156 6.516-.383 29.422-4.86 37.973-10.953 8.527-5.984 19.031-15.742 19.941-30.047.516-8.113-3.68-22.93-37.703-14.172m143.211 23.922c-.746 7.61-10.566 15.336-17.687 16.031 1.496-2.742 10.316-19.89 11.125-21.336 1.03.09 4.117.512 5.668 2.29.718.82 1.011 1.804.894 3.015m-34.015-.445.19.449a6 6 0 0 1 .477 2.351c0 2.625-1.312 5.43-3.906 8.344-2.629 3.028-5.222 4.563-7.719 4.563-1.238 0-2.664-.371-2.664-3.27 0-3.222 1.309-6.738 3.887-10.457 2.707-3.937 5.578-6.05 8.496-6.27h.567c2.105 0 3.375.708 3.87 2.157Zm43.34-2.426c.316-11.328-13.684-12.262-18.282-12.57l-.113-.008c-4.754-.317-10.403.777-14.59 2.734-1.672-1.394-3.992-2.105-6.953-2.105-5.195 0-10.328 2.277-15.258 6.765-4.398 3.946-7.695 8.575-9.789 13.758a29.4 29.4 0 0 0-1.402 4.461l-7.27-1.816-.21.425a12 12 0 0 1-1.7 2.54 15.5 15.5 0 0 1-2.3 2.12c-1.848 1.372-3.727 2.067-5.59 2.067-1.044 0-2.243-.305-2.243-2.664 0-1.758.52-3.856 1.55-6.234 1.145-2.704 2.63-5.106 4.411-7.145 2.152-2.434 4.453-3.777 6.777-4h.567c1.875 0 3.074.75 3.668 2.29l.226.577 9.68-4.312-.055-.438c-.699-5.386-4.004-8.117-9.824-8.117-5.039 0-10.117 2.293-15.094 6.813-4.27 3.93-7.52 8.53-9.652 13.656-1.25 2.918-1.922 5.93-2.004 8.965l-14.394.695 2.441-6.352 7.492-.414 3.313-7.707-7.586.414 2.625-6.808 12.203-.13 5-8.48h-26.39l-3.75 8.868 3.05-.063-12.973 30.84s7.293-.707 14.09-1.133c6.024-.379 14.512-.476 14.512-.476l1.297-3.805c1.285 2.578 3.898 3.812 7.98 3.812 3.434 0 7.547-.414 12.032-3.488a32.6 32.6 0 0 0 5.023-4.34 29 29 0 0 0 2.625-3.258 20 20 0 0 0-.098 1.926c0 2.942.723 5.305 2.16 7.024 1.524 1.75 3.813 2.636 6.805 2.636 4.781 0 9.668-2.066 14.531-6.144 4.418-3.766 7.637-8.067 9.57-12.781 1.06-2.622 1.598-4.883 1.598-6.73 0-.93-.129-1.884-.375-2.837 2.102-.847 5.414-1.96 8.211-1.914-.48.926-16.136 29.188-16.246 29.375l-.406.707.805.149c.148.027 3.156.574 8.125.574q1.581 0 3.41-.086c10.828-1.121 17.656-6.61 21.472-11.016 4.352-5.02 7.145-11.465 7.297-16.82"/><path fill="#000000" d="m230.938 256.855-4.446 9.73 6.504-.05-16.613 38.137s9.398.281 18.3 1.008c7.536.613 14.805 1.695 14.805 1.695l3.723-9.785-21.23-1.598 4.05-9.61 11.172.606 4.063-9.39-12.055-.57 4.473-10.442h17.84l3.41-9.645zm23.406 47.938-2.39.062.01.512.891-.02.063 2.426.61-.015-.063-2.426.89-.023zm2.789-.07-.75 1.996-.035.004-.852-1.957-.758.02.075 2.94.597-.015-.05-1.922h.023l.804 1.887.407-.012.703-1.918h.023l.051 1.914.598-.015-.074-2.938z"/><g clip-path="url(#a)"><path fill="#100f0d" d="M264.137 234.34H52.657l-10.985-10.985V11.875L52.656.891h211.48l10.985 10.984v211.48z"/></g><path fill="#82d296" d="M53.086 108.344h-3.531v18.226h3.53zm0 20.922h-3.531v18.226h3.53zm0-62.77h-3.531v18.23h3.53zm0 83.692h-3.531v18.226h3.53zm0-104.614h-3.531v18.227h3.53zm0 41.848h-3.531v18.226h3.53zM250.55 12.3V8.774h-18.226v3.528zM64.945 222.93v3.527h18.223v-3.527zm-6.445 0-5.414-5.414v-4.559h-3.531v5.77l7.734 7.73h4.957v-3.527zm-5.414-30.895h-3.531v18.227h3.53zm0-20.925h-3.531v18.23h3.53zM187.781 12.3V8.774H169.56v3.528zm-41.843 0V8.774H127.71v3.528zm20.922 0V8.774h-18.227v3.528zm62.769 0V8.774h-18.227v3.528zm-20.922 0V8.774H190.48v3.528zM53.086 17.719 58.5 12.3h3.746V8.773H57.29l-7.734 7.735v5.449h3.53zM85.867 222.93v3.527h18.227v-3.527zM83.168 12.3V8.774H64.945v3.528zM53.086 24.652h-3.531V42.88h3.53zM104.094 12.3V8.774H85.867v3.528zm20.922 0V8.774h-18.227v3.528zm138.694 93.348h3.528V87.422h-3.527zm0 20.922h3.528v-18.226h-3.527zm0 41.844h3.528v-18.226h-3.527zm0-83.687h3.528v-18.23h-3.527zm0 62.765h3.528v-18.226h-3.527z"/><path fill="#82d296" d="m59.617 14.996-3.836 3.84v197.562l3.836 3.836H257.18l3.836-3.836V18.836l-3.836-3.84zM106.79 222.93v3.527h18.226v-3.527z"/><path fill="#82d296" d="M253.246 8.773v3.528h5.05l5.415 5.418v4.238h3.527v-5.45l-7.73-7.734zm10.464 34.106h3.528V24.652h-3.527zm0 20.921h3.528V45.575h-3.527zM148.633 222.93v3.527h18.226v-3.527zm115.077-33.59h3.528v-18.23h-3.527zm-73.23 33.59v3.527h18.227v-3.527zm-62.77 0v3.527h18.228v-3.527zm41.849 0v3.527h18.222v-3.527zm41.843 0v3.527h18.227v-3.527zm52.308-12.668h3.528v-18.227h-3.527zm-31.386 12.668v3.527h18.227v-3.527zm31.386-5.414-5.413 5.414h-5.05v3.527h6.26l7.731-7.73v-5.77h-3.527z"/><path fill="#100f0d" d="M241.809 61.91c-.293.719-.86 1.125-1.684 1.207-.113.012-.234-.008-.395-.027l-.128-.016c-.59-.125-1.012-.441-1.29-.965a5047 5047 0 0 0-3.39-6.382l-1.996-3.758a.1.1 0 0 0-.02-.032.1.1 0 0 1 .024-.015l.093-.067c.176-.128.348-.25.528-.375.035-.023.07-.05.101-.07.028.024.051.055.078.078.461.5.922.996 1.38 1.496l1.894 2.055q2.203 2.397 4.418 4.79c.574.624.703 1.308.387 2.081m-9.86-11.469-.773-1.078c.144-.101.289-.207.433-.308l.176-.13.27.376q.251.345.507.707-.307.21-.613.433m-1.441-2.78a8.5 8.5 0 0 1-6.371 1.5 8.5 8.5 0 0 1-5.547-3.462 8.46 8.46 0 0 1-1.469-6.351 8.47 8.47 0 0 1 3.453-5.532 8.45 8.45 0 0 1 4.938-1.59c.472 0 .953.04 1.43.118a8.46 8.46 0 0 1 5.538 3.476c1.305 1.848 1.833 4.16 1.446 6.344v.008a8.4 8.4 0 0 1-3.418 5.488m12.328 11.105-7.715-8.375c-.027-.032-.09-.098-.098-.114 0 0 0-.02.028-.07a.82.82 0 0 0-.086-.848c-.195-.254-.516-.379-.887-.312-.004 0-.02-.016-.066-.082a50 50 0 0 0-.551-.781l-.27-.38q-.047-.062-.078-.109l.102-.113c1.273-1.477 2.074-3.172 2.383-5.043a10.22 10.22 0 0 0-3.047-9.203 10.22 10.22 0 0 0-7.39-2.809c-6.13.192-9.645 5.137-9.845 9.692-.125 2.988.86 5.582 2.938 7.71 1.879 1.926 4.246 2.962 7.031 3.071 1.414.059 2.828-.2 4.211-.758q.054-.019.11-.043c.023.031.05.07.074.106l.285.402c.16.23.324.465.492.691.11.145.102.168.055.266a.85.85 0 0 0 .078.875.74.74 0 0 0 .722.305q.04-.005.063-.004h.02c.02.015.058.094.105.183l5.273 9.957c.579 1.086 1.489 1.743 2.711 1.946q.3.051.606.05a3.72 3.72 0 0 0 3.254-1.94 3.7 3.7 0 0 0-.508-4.27"/><path fill="#100f0d" d="M221.563 34.758a3 3 0 0 0-.415.293c-1.425 1.16-2.316 2.656-2.648 4.445v.008c-.309 1.89.047 3.66 1.047 5.258.066.105.148.242.262.355a.86.86 0 0 0 .613.254.8.8 0 0 0 .469-.144.83.83 0 0 0 .265-1.047 3 3 0 0 0-.133-.227l-.046-.062a5.67 5.67 0 0 1 1.308-7.59l.059-.043q.106-.08.207-.172a.854.854 0 0 0 .07-1.125.81.81 0 0 0-1.059-.203m14.223 164.879v.02h-12.461v-3.2c-.004-1.445.434-2.73 1.29-3.828a7 7 0 0 1 2.464-1.969l.059-.023c.074-.035.148-.07.21-.117a.67.67 0 0 0 .294-.551.67.67 0 0 0-.297-.547 1.4 1.4 0 0 0-.196-.11l-.07-.03c-1.426-.731-2.441-1.712-3.105-3a5.8 5.8 0 0 1-.645-2.606q-.011-1.196-.004-2.39v-.993l.059-.004h12.402v2.102q.006.585 0 1.168c-.023 1.941-.812 3.566-2.347 4.824a6.7 6.7 0 0 1-1.489.937c-.058.028-.12.055-.172.094a.67.67 0 0 0-.308.563.68.68 0 0 0 .316.558q.083.058.184.098l.074.035c1.672.867 2.773 2.055 3.367 3.621a5.6 5.6 0 0 1 .371 1.965q.011 1.282.004 2.566Zm1.715.043a2 2 0 0 0-.352-.024v-2.968c0-.512-.035-.961-.105-1.38-.383-2.277-1.563-4.07-3.496-5.335.93-.59 1.71-1.36 2.32-2.282.84-1.273 1.27-2.73 1.278-4.328q.004-.977.003-1.96v-1.114h.059q.083.001.164-.004c.61-.055 1.047-.504 1.066-1.097a25 25 0 0 0 0-1.329 1.12 1.12 0 0 0-1.078-1.09c-.054-.003-.105-.003-.218-.003h-15.23q-.096-.001-.196.004c-.578.05-1.016.492-1.04 1.058-.015.438-.015.89 0 1.39.016.505.36.915.88 1.04.125.027.242.027.343.027l.063.004.004.156-.004.887q-.001 1.002.004 2.004c0 .668.062 1.254.191 1.793.489 2.066 1.637 3.695 3.41 4.844a7.7 7.7 0 0 0-3.062 3.707 7.9 7.9 0 0 0-.54 2.882q-.004.855-.003 1.715v1.364q-.001.007.004.015h-.137c-.691.016-1.148.477-1.156 1.176-.004.121 0 .246 0 .371.004.2.008.402-.004.606-.031.402.074.746.3.988.239.254.595.39 1.036.39h.004c3.84-.011 7.68-.011 11.515-.011l3.637.004q.093.001.18-.004c.629-.031 1.078-.485 1.097-1.102a25 25 0 0 0 0-1.328 1.11 1.11 0 0 0-.937-1.066"/><path fill="#100f0d" d="m225.098 184.137-.02-.117c-.016-.094-.031-.192-.047-.192q-.005-.001-.004.004c.02-.02.102-.059.176-.098l.14-.07c.84-.43 1.75-.473 2.778-.133.363.117.707.29 1.059.524.629.422 1.312.71 2.03.863a4.9 4.9 0 0 0 2.68-.18c-.265.957-.82 1.75-1.687 2.422-.367.285-.742.5-1.148.66a5.3 5.3 0 0 0-1.5.91c-.504-.43-1.086-.722-1.59-.957-1.653-.757-2.617-1.98-2.867-3.636m8.87.3.114.024-.066.047-.032.004a.12.12 0 0 1-.015-.075m.212.043.035.008-.035.004Zm-5.274 5.633c.047.32.301.524.649.524.347 0 .601-.207.648-.528.027-.175.133-.289.305-.425a4.3 4.3 0 0 1 1.047-.598 6.3 6.3 0 0 0 1.097-.59c1.246-.848 2.059-1.883 2.48-3.172a5.6 5.6 0 0 0 .278-1.8.73.73 0 0 0-.273-.57.67.67 0 0 0-.59-.102.8.8 0 0 0-.285.16c-.825.633-1.778.812-2.91.547-.497-.114-.985-.336-1.579-.727a5.47 5.47 0 0 0-2.949-.879 4.46 4.46 0 0 0-2.758.918.85.85 0 0 0-.367.75c.02.902.219 1.73.594 2.469.668 1.308 1.727 2.3 3.148 2.941.399.18.813.375 1.164.653.168.136.274.254.301.43m5.706 7.753-.11-.097q-.15-.136-.308-.266c-1.257-.996-2.715-1.707-4.445-2.176-.2-.055-.371-.004-.496.031-.7.196-1.316.414-1.895.676-1.136.516-2.062 1.102-2.843 1.817a1.2 1.2 0 0 0-.192.199.68.68 0 0 0-.07.668c.09.207.285.347.516.375.042.004 9.535.008 9.605-.004a.62.62 0 0 0 .469-.344.66.66 0 0 0-.016-.621.9.9 0 0 0-.215-.258m-4.403-6.273c-.03-.32-.32-.57-.655-.57h-.008a.663.663 0 0 0-.656.644c-.004.055 0 .11 0 .168v.16c-.004.07-.004.145.004.215a.64.64 0 0 0 .66.586h.007c.352-.004.622-.238.649-.574q.03-.317 0-.63m-.68 1.447a.67.67 0 0 0-.629.546c-.015.078-.015.156-.02.234l-.003.102.004.105c.004.082.004.168.02.254a.63.63 0 0 0 .632.535h.02c.34 0 .605-.218.656-.543a2.5 2.5 0 0 0 0-.683.674.674 0 0 0-.68-.55m-140.086-2.985c-1.187 1.777-1.347 3.668-.472 5.62.21.473.515.903.906 1.286.523.512 1.223.781 1.902.742.649-.031 1.25-.344 1.688-.875l.414-.5c.086-.11.172-.219.27-.32.074-.078.136-.106.167-.11.024 0 .075.024.14.09.356.36.52.707.52 1.098v5.812H75.691v-19.324l5.829-.004h.093c.14.004.305.008.485-.039.738-.207 1.28-.5 1.71-.926.41-.41.637-.921.637-1.44 0-.528-.222-1.024-.64-1.438a6 6 0 0 0-.47-.403l-.292-.234a2 2 0 0 1-.281-.254c-.153-.188-.176-.348-.078-.563a1.23 1.23 0 0 1 .414-.5c1.289-.945 2.992-.976 4.347-.085.188.125.332.261.446.43.18.269.164.495-.055.722q-.142.14-.3.262l-.302.25a5 5 0 0 0-.472.41 1.937 1.937 0 0 0-.098 2.62c.684.782 1.504 1.184 2.441 1.188 1.485.008 2.973.004 4.457.004h1.418l-.003 1.446a390 390 0 0 0 .007 4.273c.004.344-.101.652-.359 1.039a.7.7 0 0 1-.195.191c-.07.051-.118.047-.192-.003-.058-.043-.12-.122-.187-.2-.074-.09-.14-.18-.211-.265a7 7 0 0 0-.504-.598c-.785-.8-2-.93-2.957-.316a3.2 3.2 0 0 0-.934.914m1.856.648c.3-.207.574-.176.812.094.133.148.258.308.38.469l.179.222c.191.242.39.426.605.563.672.433 1.391.441 2.082.027.575-.344.891-.883 1.079-1.258.242-.492.359-.996.355-1.535-.012-1.547-.008-3.094-.008-4.637v-2.05c.004-.203.008-.43-.18-.618-.187-.183-.414-.183-.632-.183l-.106.004q-3.31-.006-6.613 0h-.004c-.406 0-.766-.156-1.133-.492-.082-.075-.11-.137-.11-.164 0-.032.032-.098.126-.184.14-.129.289-.246.437-.363a9 9 0 0 0 .305-.243c.45-.375.73-.78.86-1.25.195-.71.066-1.398-.383-2.042-.332-.481-.805-.872-1.442-1.2a5.46 5.46 0 0 0-2.441-.617c-1.367-.016-2.606.406-3.633 1.25a2.9 2.9 0 0 0-.68.816 2.34 2.34 0 0 0 .438 2.907c.187.172.383.328.582.484l.129.102c.101.082.203.164.285.257.043.051.078.106 0 .211a.5.5 0 0 1-.14.137c-.415.274-.759.395-1.122.395h-.008c-1.652-.012-3.3-.008-4.949-.008l-1.605.004h-.075c-.222-.004-.441-.004-.625.183-.183.184-.18.41-.18.59l.005.106q-.006 10.573 0 21.148l-.004.102c0 .199-.004.418.18.601.183.184.402.18.581.176l.114-.004 8.082.004h4.953l8.105-.004.118.004h.07c.164 0 .355-.016.515-.176.184-.183.18-.406.18-.601l-.004-6.996c0-.254-.043-.493-.129-.73-.199-.532-.425-.938-.722-1.278-.368-.43-.79-.684-1.293-.781a1.86 1.86 0 0 0-1.32.242 2.5 2.5 0 0 0-.696.629l-.168.214c-.117.149-.23.297-.355.438-.266.312-.524.34-.86.094a2 2 0 0 1-.511-.61 3.84 3.84 0 0 1-.508-1.754 3.74 3.74 0 0 1 .695-2.312 1.5 1.5 0 0 1 .387-.383M74.008 44.031c.558 0 1.012-.453 1.012-1.011v-5.77h5.91a1.012 1.012 0 0 0 0-2.023h-6.922A1.01 1.01 0 0 0 73 36.238v6.782a1.01 1.01 0 0 0 1.008 1.011m22.664-8.875H89.89a1.012 1.012 0 0 0 0 2.024h5.77v5.91a1.012 1.012 0 0 0 2.023 0v-6.922c0-.559-.454-1.012-1.012-1.012m.001 16.313c-.559 0-1.012.453-1.012 1.011v5.77h-5.91a1.012 1.012 0 0 0 0 2.023h6.922c.558 0 1.012-.453 1.012-1.011V52.48c0-.558-.454-1.011-1.012-1.011M80.79 60.344a1.012 1.012 0 0 0 0-2.024h-5.77v-5.91c0-.558-.454-1.012-1.012-1.012-.555 0-1.008.454-1.008 1.012v6.922c0 .559.453 1.012 1.008 1.012zm4.5-18.051a5.46 5.46 0 0 1 5.456 5.457 5.46 5.46 0 0 1-5.457 5.457 5.46 5.46 0 0 1-5.45-5.242c.016-.07.044-.14.044-.215s-.028-.145-.043-.215a5.46 5.46 0 0 1 5.45-5.242m-7.407 4.445h-3.27a1.012 1.012 0 0 0 0 2.024h3.27c.496 3.644 3.625 6.468 7.406 6.468s6.906-2.824 7.402-6.468h3.375a1.012 1.012 0 0 0 0-2.024h-3.375c-.496-3.644-3.62-6.468-7.402-6.468s-6.91 2.824-7.406 6.468"/><path fill="#4d8393" d="M225.094 128.398c0 29.176-29.864 52.825-66.696 52.825-36.835 0-66.695-23.649-66.695-52.825 0-29.171 29.86-52.824 66.695-52.824 36.832 0 66.696 23.653 66.696 52.824"/><path fill="#100f0d" d="M158.398 76.914c-36.039 0-65.355 23.098-65.355 51.488 0 28.387 29.316 51.485 65.355 51.485 36.036 0 65.356-23.098 65.356-51.485 0-28.39-29.32-51.488-65.356-51.488m0 105.649c-37.511 0-68.035-24.297-68.035-54.16 0-29.868 30.524-54.165 68.035-54.165 37.512 0 68.032 24.297 68.032 54.164 0 29.864-30.52 54.16-68.032 54.16"/><path fill="#f03a1f" d="M225.094 119.344c0 29.176-29.864 52.824-66.696 52.824-36.835 0-66.695-23.648-66.695-52.824 0-29.172 29.86-52.824 66.695-52.824 36.832 0 66.696 23.652 66.696 52.824"/><path fill="#100f0d" d="M158.398 67.86c-36.039 0-65.355 23.097-65.355 51.484 0 28.39 29.316 51.484 65.355 51.484 36.036 0 65.356-23.094 65.356-51.484 0-28.387-29.32-51.485-65.356-51.485m0 105.648c-37.511 0-68.035-24.297-68.035-54.164 0-29.864 30.524-54.16 68.035-54.16 37.512 0 68.032 24.296 68.032 54.16 0 29.867-30.52 54.164-68.032 54.164"/><path fill="#100f0d" d="M158.047 73.113c-32.461 0-58.871 20.793-58.871 46.348 0 25.559 26.41 46.348 58.87 46.348 32.462 0 58.868-20.79 58.868-46.348 0-25.555-26.406-46.348-58.867-46.348m0 95.375c-33.938 0-61.55-21.992-61.55-49.027 0-27.031 27.612-49.027 61.55-49.027 33.937 0 61.547 21.996 61.547 49.027 0 27.035-27.61 49.027-61.547 49.027"/><path fill="#100f0d" d="M171.574 73.027a1.01 1.01 0 0 0-1.183.477l-17.825 32.351c-.222.403-.14.903.196 1.22l12.972 12.124a1.003 1.003 0 0 0 1.688-.625l4.848-44.48a1.004 1.004 0 0 0-.696-1.067"/><path fill="#e6a511" d="m142.094 53.672 24.164 65-8.278 3.394-21-67.21z"/><path fill="#e6a511" d="m157.98 122.066-28.167-28.16s6.417.137 8.55-10.219c2.137-10.351-1.383-28.832-1.383-28.832z"/><path fill="#100f0d" d="m158.613 120.723-8.117-25.97-12.234-39.163 3.199-.738 23.516 63.257ZM139.348 83.89c1.015-4.922.797-11.54.27-17.235l16.187 51.817-23.953-23.95c2.328-.793 5.968-3.222 7.496-10.632m27.851 34.43-24.164-65a1.01 1.01 0 0 0-1.168-.63l-5.113 1.184q-.007.005-.008.004c-.004.004-.008 0-.008.004a1 1 0 0 0-.351.164c-.02.012-.028.031-.043.047a1 1 0 0 0-.219.242c-.004.008-.012.012-.016.02-.02.035-.02.074-.035.109a1 1 0 0 0-.078.238c-.008.059-.004.113 0 .172 0 .055-.012.11 0 .168.031.184 3.457 18.406 1.387 28.445-1.918 9.297-7.297 9.414-7.543 9.414h-.004c-.434.012-.781.23-.945.61a1.01 1.01 0 0 0 .21 1.105l28.169 28.16c.046.047.109.075.164.11.043.027.074.066.117.09.008.003.02 0 .027.003.125.06.262.09.402.09.114 0 .227-.027.336-.066.012-.004.032 0 .043-.008l8.278-3.394c.504-.207.75-.774.562-1.282m-5.027-32.241-.184-11.027a69 69 0 0 0-2.008-.031l.18 11.011q1.012.006 2.012.047M115.79 109.45l-11.138-2.044c-.25.633-.48 1.274-.695 1.914l10.992 2.02c.254-.637.54-1.266.84-1.89m13.508 36.472-8.645 7.562c.57.391 1.157.77 1.746 1.141l8.758-7.66a51 51 0 0 1-1.86-1.043m45.934-57.828 4.141-10.262a60 60 0 0 0-1.941-.55l-4.157 10.3q.99.235 1.957.512m21.317 13.039 9.828-5.332a41 41 0 0 0-1.266-1.602l-9.933 5.395c.476.504.933 1.02 1.37 1.539"/><path fill="#100f0d" d="M134.094 91.96a54 54 0 0 1 1.91-.913l-8.059-8.281c-.61.324-1.215.652-1.808.996.02.023.027.05.05.074zm-10.309 7.036c.27-.242.55-.476.828-.715l-10.324-5.426a58 58 0 0 0-1.434 1.516l10.176 5.344c.25-.238.496-.48.754-.719m-5.058 37.781-10.293 4.543q.57.851 1.187 1.672l10.43-4.601a34 34 0 0 1-1.324-1.614m68.351-43.605 7.645-8.2a59 59 0 0 0-1.723-1.1l-7.71 8.273q.908.493 1.788 1.027m-73.868 30.215-10.944 1.238a37 37 0 0 0 .265 1.992l10.965-1.242a25 25 0 0 1-.285-1.988m88.492-13.25c.219.636.402 1.285.567 1.937l10.87-1.906a33 33 0 0 0-.5-1.95zm-58.762 41.234-5.402 9.953q.985.284 1.988.543l5.457-10.05a59 59 0 0 1-2.043-.446m42.067-10.805 13.328-9.855-16.379 6.687-8.879-6.738 6.098 8.238-13.223 10.325 16.457-7 8.8 7.047zm-91.176-4.187a42 42 0 0 0 1.91 6.644v-2.574a48 48 0 0 1-1.91-4.07m3.426 6.695v3.492a46 46 0 0 0 2.008 3.73v-4.218a52 52 0 0 1-2.008-3.004m3.523 5.02v4.578c.633.93 1.305 1.84 2.004 2.734v-4.918a58 58 0 0 1-2.004-2.394m3.519 4.043v5.12a56 56 0 0 0 2.009 2.192v-5.312a61 61 0 0 1-2.008-2m3.523 3.386v5.446q.975.937 2.008 1.84v-5.586a61 61 0 0 1-2.008-1.7m3.52 2.883v5.668a57 57 0 0 0 2.008 1.574v-5.761a76 76 0 0 1-2.008-1.48m3.523 2.523v5.828c.66.465 1.324.926 2.008 1.37v-5.925a65 65 0 0 1-2.008-1.273m3.52 2.183v5.953c.66.403 1.332.797 2.008 1.18v-5.996c-.68-.367-1.344-.754-2.008-1.137m3.531 1.914v6.07c.656.352 1.332.684 2.008 1.016v-6.101q-1.019-.48-2.008-.985m3.527 1.68v6.129c.664.305 1.332.61 2.008.898v-6.18a75 75 0 0 1-2.008-.847m3.532 1.469v6.176q.995.393 2.007.77v-6.224c-.672-.238-1.347-.468-2.007-.722m3.527 1.246v6.238c.664.227 1.336.442 2.008.649v-6.254a92 92 0 0 1-2.008-.633m3.531 1.062v6.293c.66.192 1.336.364 2.008.54v-6.29a66 66 0 0 1-2.008-.543m3.528.895v6.316q1 .238 2.007.453v-6.32c-.672-.137-1.34-.297-2.007-.45m3.531.732v6.335c.668.125 1.332.254 2.008.368v-6.352c-.676-.106-1.34-.23-2.008-.352m4.125.653-.656 1.375v4.886c.667.098 1.332.2 2.007.278v-6.367q-.678-.078-1.351-.172m2.867.328v6.363c.664.067 1.332.137 2.008.188v-6.375a107 107 0 0 1-2.008-.176m3.519.27v6.37c.668.04 1.336.079 2.008.098v-6.379c-.672-.02-1.34-.054-2.008-.09m4.793.149c-.425 0-.847-.02-1.27-.028v6.38c.423.007.845.027 1.27.027.247 0 .493-.016.739-.016v-6.379c-.246 0-.492.016-.739.016m2.25-.048v6.38q1.007-.029 2.008-.074v-6.375a85 85 0 0 1-2.008.07m3.524-.164v6.375q1.007-.07 2.008-.164v-6.367q-1.001.092-2.008.156m3.519-.309v6.367a66 66 0 0 0 2.008-.257v-6.352q-.995.133-2.008.242m3.524-.457v6.356c.676-.11 1.34-.23 2.008-.356v-6.336a83 83 0 0 1-2.008.336m3.523-.613v6.34c.676-.14 1.34-.297 2.008-.453v-6.317q-1.001.23-2.008.43m3.52-.77v6.297a66 66 0 0 0 2.008-.535v-6.289c-.664.18-1.332.36-2.008.527m3.523-.938v6.255c.672-.203 1.348-.403 2.008-.625v-6.262c-.668.215-1.332.434-2.008.633m3.519-1.129v6.219a64 64 0 0 0 2.009-.742v-6.2q-.995.376-2.008.723m3.523-1.316v6.18a84 84 0 0 0 2.008-.876v-6.125c-.66.285-1.336.551-2.008.82m3.52-1.511v6.125q1.018-.493 2.008-1.016v-6.066a79 79 0 0 1-2.008.957m3.523-1.731v6.024a72 72 0 0 0 2.008-1.152v-5.98c-.66.374-1.328.75-2.008 1.108m3.52-1.983v5.92a62 62 0 0 0 2.008-1.339v-5.84q-.988.644-2.008 1.258m3.523-2.285v5.797a62 62 0 0 0 2.008-1.535v-5.703c-.656.492-1.324.968-2.008 1.44m3.524-2.593v5.606a55 55 0 0 0 2.007-1.801v-5.477a59 59 0 0 1-2.007 1.672m3.519-3.035v5.36q1.038-1.051 2.012-2.141v-5.168a56 56 0 0 1-2.012 1.949m5.531-5.871a56 56 0 0 1-2.007 2.328v4.977q1.05-1.291 2.007-2.633zm1.512-1.941v4.347a47 47 0 0 0 2.012-3.531v-3.727a54 54 0 0 1-2.012 2.91m3.524-5.425v2.98c.82-1.976 1.496-4 2.007-6.066v-.895a48 48 0 0 1-2.007 3.98"/><path fill="#100f0d" d="m146.563 174.137.656-1.375c-.219-.028-.438-.063-.656-.09zM90.355 129.25h1.977v-10.32h-1.977zm134.047 0h1.977v-10.32h-1.977z"/><g clip-path="url(#b)"><path fill="#000000" d="m180.402 363.559-7.398-2.711q.212-.687.488-1.344l7.414 2.719a5.2 5.2 0 0 0-.504 1.336m32.61-3.778q.293.68.293 1.531a3.9 3.9 0 0 1-.293 1.555 3.1 3.1 0 0 1-.836 1.16 3.75 3.75 0 0 1-1.324.73c-.52.173-1.11.255-1.774.255h-1.148v3.402h-2.72v-10.773h3.884q.978 0 1.758.257c.52.168.96.414 1.324.73q.546.475.836 1.153m-2.446 1.531q-.001-1.516-1.882-1.515h-.754v3.062h.754q1.881 0 1.882-1.546m-19.933 1.672a5.335 5.335 0 0 1-5.031 7.114 5.34 5.34 0 0 1-5.262-4.438l-7.395 2.715q.245.868.602 1.684l7.351-2.7-6 5.079q.57.804 1.25 1.507l5.61-4.742-3.66 6.41a13 13 0 0 0 1.84 1.082l3.44-6.027-1.198 6.855c.734.2 1.496.336 2.273.403l1.121-6.406 1.121 6.41a13 13 0 0 0 2.38-.422l-1.044-5.945 3.004 5.234a13 13 0 0 0 2.32-1.363l-2.757-4.797 4.214 3.554a13.2 13.2 0 0 0 1.79-2.191l-3.762-3.176 4.605 1.688a13.2 13.2 0 0 0 .98-2.805l-4.042-1.48h4.297c.054-.497.086-.997.086-1.504 0-.59-.043-1.168-.118-1.739Zm-8.653-2.144-6.05-5.113q-.423.457-.797.957l6.035 5.101c.234-.344.508-.664.812-.945m-1.714 3.918c0-.293.023-.586.07-.867h-7.875q-.025.41-.027.832c0 .257.007.52.023.777h7.86a5 5 0 0 1-.051-.742m115.87-3.883c-.48 0-.906.098-1.269.297a2 2 0 0 0-.828.836l-.027-.906h-2.496v7.312h2.55v-3.871q.001-.675.278-1.04.276-.362.816-.362.977.002.977 1.304v3.97h2.55v-4.45q0-1.531-.644-2.313-.646-.779-1.906-.777m-107.55-.54 3.945-6.882a13 13 0 0 0-.644-.383l-3.953 6.89q.337.165.652.376m-5.152-.452-3.957-6.899c-.313.168-.622.348-.918.54l3.949 6.89a5 5 0 0 1 .926-.531m4.863-8.14a13 13 0 0 0-.79-.138l-1.374 7.844q.406.041.789.14Zm-3.188 7.702-1.375-7.847q-.444.063-.875.156l1.375 7.848a5 5 0 0 1 .875-.157m4.793 2.16 6.032-5.093a10 10 0 0 0-.414-.5l-6.032 5.093q.222.236.414.5m76.559 2.997-2.027-6.817h-2.383l-2 6.945-1.613-7.09h-2.993l3.176 10.774h2.578l2.016-6.93 2.055 6.93h2.578l3.187-10.773h-2.988Zm10.133-3.727q-.68-.001-1.219.262-.54.261-.852.746v-4.242h-2.55v10.773h2.55v-3.871c0-.45.09-.797.278-1.04.183-.241.457-.362.812-.362q.98.002.98 1.304v3.97h2.552v-4.45q0-1.531-.645-2.313-.645-.779-1.906-.777m4.101 7.54h2.551v-7.313h-2.55Zm9.25-5.259.637-2.054H288.2v-1.887h-2.55v1.887h-1.235v2.054h1.234v2.61q0 2.876 2.766 2.875.65 0 1.195-.106c.368-.07.672-.16.914-.262l-.253-1.968c-.16.062-.332.117-.516.156q-.276.054-.617.055-.527 0-.73-.27-.207-.27-.208-.922v-2.168Zm-7.972-5.937q-.612 0-1.024.386-.41.392-.41.989 0 .58.41.969.412.39 1.024.39.609-.001 1.02-.383.41-.383.41-.976 0-.597-.41-.989-.411-.386-1.02-.386m-41.793 5.937.64-2.054h-2.382v-1.887h-2.551v1.887h-3.149v-1.887h-2.55v1.887h-1.235v2.054h1.234v2.61q0 2.876 2.766 2.875.65 0 1.195-.106c.368-.07.668-.16.915-.262l-.254-1.968c-.16.062-.332.117-.516.156q-.276.054-.617.055-.527 0-.73-.27-.207-.27-.208-.922v-2.168h3.149v2.61q.001 2.876 2.761 2.875.656 0 1.2-.106c.363-.07.668-.16.914-.262l-.254-1.968a3 3 0 0 1-.52.156 3.3 3.3 0 0 1-.617.055q-.522 0-.726-.27-.207-.27-.208-.922v-2.168Zm72.656-2.054L311.434 365l-1.489-3.898h-2.789l3 6.898-1.719 3.602h2.583l4.554-10.5Zm-87.285 0h2.394v7.312h-2.394l-.031-.836a2.15 2.15 0 0 1-.883.785 2.8 2.8 0 0 1-1.27.278q-.738 0-1.347-.282a3.1 3.1 0 0 1-1.047-.793 3.9 3.9 0 0 1-.692-1.222 4.7 4.7 0 0 1-.246-1.559q.001-.834.254-1.55.257-.715.719-1.243a3.4 3.4 0 0 1 1.082-.82c.418-.2.863-.297 1.347-.297q.668 0 1.211.281c.364.192.657.453.872.797Zm-.016 3.656q0-.721-.414-1.168-.406-.45-1.059-.45-.654 0-1.07.45-.422.446-.422 1.168 0 .72.422 1.172.416.445 1.07.445.653 0 1.06-.445.414-.452.413-1.172m81.547.652h-4.82q.382 1.247 2.129 1.246.462 0 .996-.12a5.6 5.6 0 0 0 .941-.29l.809 1.629a4.2 4.2 0 0 1-1.336.566q-.791.2-1.64.2-1.018-.001-1.837-.266a4.1 4.1 0 0 1-1.387-.773 3.34 3.34 0 0 1-.878-1.227 4.1 4.1 0 0 1-.305-1.617q.001-.861.277-1.582a3.5 3.5 0 0 1 .785-1.223 3.6 3.6 0 0 1 1.211-.797 4.1 4.1 0 0 1 1.551-.281q.826.001 1.488.254a3.1 3.1 0 0 1 1.137.73q.469.476.715 1.149.251.674.25 1.523c0 .352-.031.64-.086.88m-2.297-1.46q-.072-.581-.394-.9-.33-.32-.852-.32-1.08 0-1.32 1.22Zm-87.16-2.673a2.14 2.14 0 0 0-.738.914l-.028-1.09h-2.48v7.313h2.55v-3.133q0-1.94 1.489-1.941.227-.001.484.05a2.4 2.4 0 0 1 .453.133l.196-2.41a2.1 2.1 0 0 0-.832-.152q-.626 0-1.094.316m34.516 5.309 1.601 1.828h-2.68l-.425-.469c-.801.465-1.739.696-2.805.696q-1.746.002-2.766-.805-1.02-.814-1.02-2.184.001-1.829 2.013-2.863-.88-1.096-.88-2.098a2.31 2.31 0 0 1 .88-1.851 3 3 0 0 1 .972-.516 3.7 3.7 0 0 1 1.2-.183q.633-.002 1.167.168.533.17.907.488c.25.215.445.465.582.758q.206.44.207.98 0 1.589-1.946 2.637l1.563 1.77c.176-.473.27-1.047.27-1.727h2.136q.001 1.952-.976 3.37m-4.72-5.856q0 .257.142.52.14.262.511.672c.293-.18.5-.36.63-.543q.191-.28.19-.649 0-.365-.183-.578c-.121-.14-.297-.214-.524-.214a.74.74 0 0 0-.554.218.8.8 0 0 0-.211.574m1.942 5.786-2.125-2.395q-.696.523-.695 1.274 0 .638.445.992.446.356 1.227.355.708-.002 1.148-.226"/></g><path fill="#000000" d="M153.883 363.988c-.047-.39-.184-.691-.399-.902q-.329-.321-.851-.32c-.723 0-1.16.406-1.324 1.222Zm2.355 3.934a4.2 4.2 0 0 1-1.34.566 6.5 6.5 0 0 1-1.64.203q-1.026 0-1.84-.273a4 4 0 0 1-1.395-.773 3.3 3.3 0 0 1-.878-1.23 4.1 4.1 0 0 1-.305-1.618q0-.867.273-1.582.281-.72.79-1.23.512-.51 1.214-.798a4.2 4.2 0 0 1 1.559-.28c.547 0 1.043.081 1.488.253q.668.257 1.137.73.467.48.719 1.153c.164.45.25.96.25 1.527 0 .352-.032.645-.086.883h-4.832c.257.832.964 1.246 2.132 1.246q.469 0 1-.117.534-.123.946-.293Zm-7.742.07a3.8 3.8 0 0 1-1.172.496 5.3 5.3 0 0 1-1.355.172c-.645 0-1.215-.09-1.719-.27a3.5 3.5 0 0 1-1.277-.773 3.26 3.26 0 0 1-.797-1.207 4.4 4.4 0 0 1-.27-1.582c0-.582.102-1.11.297-1.586.2-.48.477-.887.832-1.23q.533-.511 1.278-.793a4.6 4.6 0 0 1 1.64-.285c.832 0 1.527.136 2.074.41l-.324 2.16a2.2 2.2 0 0 0-.71-.227 4.5 4.5 0 0 0-.712-.07q-.85-.002-1.344.426c-.324.281-.488.672-.488 1.164 0 .5.164.894.488 1.172q.493.42 1.387.418.271-.001.625-.055.357-.058.625-.156Zm-11.363-1.578q.65 0 1.066-.445.41-.446.41-1.172 0-.727-.41-1.172-.416-.445-1.066-.445c-.438 0-.793.148-1.074.445q-.417.446-.418 1.172 0 .726.418 1.172t1.074.445m-.696 2.277q-.74-.001-1.351-.285a3.1 3.1 0 0 1-1.05-.797 3.7 3.7 0 0 1-.688-1.222 4.6 4.6 0 0 1-.25-1.559q.001-.844.254-1.558.256-.715.718-1.243a3.4 3.4 0 0 1 1.086-.824q.626-.298 1.352-.297c.445 0 .847.094 1.215.281q.546.288.875.797l.027-.851h2.398v7.328h-2.398l-.027-.84a2.2 2.2 0 0 1-.891.793 2.85 2.85 0 0 1-1.27.277m-8.183-2.277q.653 0 1.07-.445.422-.446.422-1.172 0-.727-.422-1.172c-.277-.297-.637-.445-1.07-.445-.438 0-.79.148-1.066.445q-.41.446-.41 1.172t.41 1.172c.277.297.628.445 1.066.445m-3.895-5.281h2.403l.027.836q.329-.51.89-.785a2.8 2.8 0 0 1 1.27-.278q.737 0 1.352.281a3.1 3.1 0 0 1 1.05.797q.442.509.688 1.223c.164.473.25.996.25 1.563q0 .839-.258 1.554c-.168.48-.41.895-.715 1.242a3.4 3.4 0 0 1-1.09.825q-.62.3-1.347.3a2.7 2.7 0 0 1-1.113-.234 2.25 2.25 0 0 1-.848-.648v3.851h-2.559Zm-3.906 1.633q-.779-.001-.777.425-.001.23.226.364.23.136.868.289c.886.219 1.53.527 1.921.926q.591.592.59 1.59.001 1.108-.86 1.718c-.57.406-1.39.613-2.448.613q-.854-.002-1.649-.191-.797-.196-1.265-.52l.84-1.52q.426.171.953.27c.347.063.671.098.964.098.618 0 .922-.144.922-.441a.4.4 0 0 0-.043-.2.44.44 0 0 0-.16-.156 2 2 0 0 0-.336-.14 10 10 0 0 0-.539-.157 6.3 6.3 0 0 1-1.144-.398 2.7 2.7 0 0 1-.774-.524q-.3-.297-.441-.683a2.5 2.5 0 0 1-.14-.879q0-1.109.831-1.727c.555-.414 1.32-.617 2.309-.617.488 0 .976.051 1.453.156.48.102.875.247 1.187.426l-.254 1.832a5.5 5.5 0 0 0-1.109-.406 4.7 4.7 0 0 0-1.125-.148m-8.195 3.777q.726.001 1.16-.473.434-.478.434-1.273 0-.78-.434-1.266-.435-.48-1.16-.48c-.48 0-.871.16-1.164.48q-.44.486-.442 1.266.001.795.442 1.273.441.474 1.164.473m0 2.148a4.4 4.4 0 0 1-1.617-.293 3.9 3.9 0 0 1-1.274-.808 3.75 3.75 0 0 1-.836-1.238 3.9 3.9 0 0 1-.304-1.555 3.83 3.83 0 0 1 1.148-2.785q.54-.523 1.277-.817a4.4 4.4 0 0 1 1.606-.289q.867.001 1.605.29.737.291 1.282.812.537.515.835 1.234.298.716.297 1.555 0 .837-.304 1.55-.303.708-.836 1.235a3.8 3.8 0 0 1-1.274.816 4.3 4.3 0 0 1-1.605.293m-9.7-7.558h2.485l.027 1.094q.27-.598.739-.918c.312-.211.68-.32 1.093-.32.325 0 .602.054.84.156l-.199 2.418a2.3 2.3 0 0 0-.453-.137 2.7 2.7 0 0 0-.485-.047q-1.493 0-1.492 1.945v3.137h-2.554Zm-3.593 2.855q-.076-.585-.399-.902-.329-.321-.851-.32-1.084-.001-1.324 1.222Zm2.355 3.934a4.2 4.2 0 0 1-1.343.566 6.5 6.5 0 0 1-1.641.203q-1.02 0-1.84-.273a4 4 0 0 1-1.39-.773 3.3 3.3 0 0 1-.88-1.23 4.1 4.1 0 0 1-.308-1.618q.001-.867.277-1.582.281-.72.79-1.23.513-.51 1.214-.798a4.2 4.2 0 0 1 1.555-.28c.55 0 1.047.081 1.492.253q.667.257 1.137.73.467.48.719 1.153.246.676.246 1.527 0 .527-.082.883h-4.832c.257.832.964 1.246 2.132 1.246q.468 0 1-.117a6 6 0 0 0 .946-.293ZM89.188 363.8l-1.235-3.68-1.238 3.68Zm-2.614-6.137h2.957l4.23 10.797h-2.995l-.84-2.484h-3.934l-.824 2.484h-2.824Zm-10.355 5.102q-.78-.001-.781.425c0 .153.078.274.226.364q.228.136.867.289 1.334.328 1.926.926c.39.394.59.925.59 1.59q.001 1.108-.86 1.718-.86.611-2.453.613a7 7 0 0 1-1.644-.191q-.797-.196-1.266-.52l.84-1.52a5.6 5.6 0 0 0 1.918.367c.613.001.922-.143.922-.44a.5.5 0 0 0-.043-.2.4.4 0 0 0-.164-.156 2 2 0 0 0-.332-.14 11 11 0 0 0-.543-.157 6 6 0 0 1-1.14-.398 2.7 2.7 0 0 1-.774-.524q-.3-.297-.442-.683a2.5 2.5 0 0 1-.144-.879q0-1.109.832-1.727t2.308-.617q.738 0 1.458.156c.476.102.875.247 1.187.426l-.258 1.832a5.5 5.5 0 0 0-1.105-.406 4.7 4.7 0 0 0-1.125-.148m-11.676-1.633h2.5l.027.906c.192-.355.465-.637.832-.836.364-.2.79-.297 1.27-.297q1.266-.002 1.91.781.65.78.648 2.317v4.457h-2.558v-3.977c0-.87-.324-1.304-.98-1.304-.36 0-.63.117-.817.36q-.276.361-.277 1.046v3.875h-2.555Zm-4.207 0h2.559v7.328h-2.56Zm1.281-1.153c-.406 0-.75-.128-1.023-.39a1.28 1.28 0 0 1-.414-.973q.002-.596.414-.988c.273-.258.617-.39 1.023-.39q.608.002 1.024.39.41.392.41.988 0 .6-.41.98c-.278.258-.618.383-1.024.383m-5.668-2.316h2.559v10.797h-2.559Zm-4.176 0h2.559v10.797h-2.559Zm-5.101 8.879q.726.001 1.16-.473.434-.478.434-1.273 0-.78-.434-1.266-.434-.48-1.16-.48c-.48 0-.871.16-1.164.48q-.44.486-.442 1.266.001.795.442 1.273.441.474 1.164.473m0 2.148q-.879-.002-1.617-.32a4.1 4.1 0 0 1-1.285-.867 3.9 3.9 0 0 1-.856-1.285 4.1 4.1 0 0 1-.305-1.578q.001-.838.313-1.528a3.6 3.6 0 0 1 .851-1.18 3.9 3.9 0 0 1 1.29-.757 4.7 4.7 0 0 1 1.609-.27q.867.001 1.605.29a3.9 3.9 0 0 1 1.278.812c.363.344.64.754.84 1.234q.3.716.3 1.555-.002.837-.308 1.55-.303.708-.836 1.235a3.8 3.8 0 0 1-1.274.816 4.3 4.3 0 0 1-1.605.293m-4.66-1.253a5.2 5.2 0 0 1-1.758.882q-1.012.298-2.149.297-1.305.002-2.335-.367a4.8 4.8 0 0 1-1.754-1.074c-.485-.469-.852-1.047-1.11-1.735-.254-.683-.383-1.468-.383-2.347q0-1.237.434-2.258c.29-.684.695-1.27 1.215-1.766a5.6 5.6 0 0 1 1.867-1.148q1.089-.41 2.395-.41.468 0 .96.062.487.066.95.184.46.122.875.285c.273.11.52.223.738.348l-1.164 2.214c-.211-.093-.398-.18-.57-.253a5 5 0 0 0-.496-.188 3.4 3.4 0 0 0-.512-.105 5 5 0 0 0-.61-.036q-1.465.001-2.304.817-.837.82-.836 2.238c0 .453.066.867.207 1.235q.204.555.59.953.38.399.93.617.546.222 1.226.222.656 0 1.25-.222a4.8 4.8 0 0 0 1.152-.617Zm-31.559-15.68c.29-.063.578-.113.875-.153l1.379 7.868q-.452.04-.875.152Zm-.355 8.683q.435-.312.93-.53l-3.966-6.919q-.476.252-.921.54Zm-2.246 4.356q0-.445.07-.871H.027c-.015.277-.027.554-.027.832 0 .262.012.523.023.781h7.88a5 5 0 0 1-.051-.742m10.699 0a5.35 5.35 0 0 1-5.352 5.351 5.356 5.356 0 0 1-5.273-4.445l-7.414 2.719q.247.867.605 1.687l7.371-2.703-6.02 5.09q.576.803 1.255 1.512l5.625-4.758-3.668 6.43c.582.406 1.199.77 1.843 1.082l3.45-6.04-1.203 6.872c.738.199 1.5.336 2.28.402l1.122-6.422L14.3 378a13 13 0 0 0 2.383-.422l-1.047-5.96 3.011 5.245c.82-.375 1.602-.832 2.325-1.363l-2.762-4.812 4.223 3.566a13.5 13.5 0 0 0 1.796-2.2l-3.773-3.183 4.617 1.695c.43-.886.758-1.832.985-2.812l-4.055-1.484h4.308q.084-.745.086-1.512c0-.59-.043-1.168-.117-1.738h-8.035a5.3 5.3 0 0 1 .305 1.777m-10.563-1.203c.11-.473.282-.926.504-1.34l-7.43-2.727c-.187.442-.347.891-.488 1.352Zm15.157-7.567-6.047 5.11q.223.235.418.5l6.043-5.11a12 12 0 0 0-.414-.5m-2.997-2.566a13 13 0 0 0-.644-.383l-3.969 6.906c.23.11.45.239.656.375ZM9.57 360.867l-6.066-5.125a14 14 0 0 0-.8.961l6.054 5.113c.23-.347.508-.664.812-.949m4.164-1.394q.406.04.793.14l1.375-7.863a13 13 0 0 0-.789-.14z"/></svg>