<svg xmlns="http://www.w3.org/2000/svg" width="721.953" height="191.969" viewBox="0 0 541.465 143.977"><path fill="#100e0c" d="M368.719 142.434H254.883v-16.555h113.836z"/><path fill="#fff" d="m159.668 131.621-1.281.004.004 1.922 1.281-.004c.621 0 1.016-.387 1.012-.961 0-.57-.395-.96-1.016-.96m.078 3.151-1.351.004.008 2.641-1.372.004-.019-7.016 2.719-.008c1.449-.004 2.32.989 2.324 2.18.004 1.195-.863 2.192-2.309 2.195m6.617-3.171-1.293.004.008 1.851 1.29-.004c.6 0 .992-.387.992-.926-.004-.543-.399-.925-.997-.925m1.079 5.793-1.38-2.797-.984.004.008 2.797-1.367.004-.02-7.016 2.747-.008c1.43-.004 2.281.973 2.285 2.144 0 .985-.598 1.598-1.277 1.848l1.574 3.02zm3.214-.008-.02-7.016 4.622-.016.004 1.223-3.25.008.004 1.649 2.77-.008.003 1.218-2.77.008.005 1.707 3.25-.011.004 1.222zm8.391.035c-1.063 0-1.871-.223-2.567-.918l.887-.89c.446.44 1.047.585 1.696.585.808-.004 1.242-.308 1.238-.87 0-.247-.07-.454-.219-.59-.137-.13-.293-.196-.621-.243l-.848-.117c-.601-.09-1.043-.274-1.36-.578-.335-.336-.503-.79-.507-1.38-.004-1.25.922-2.128 2.438-2.136.964 0 1.668.235 2.27.813l-.864.859c-.445-.422-.977-.48-1.442-.477-.726 0-1.082.407-1.082.887 0 .18.063.367.207.504.141.129.368.234.653.274l.828.117c.64.086 1.047.261 1.344.535.375.355.543.867.543 1.488.004 1.36-1.125 2.133-2.594 2.137m4.387-.07-.016-7.02 4.621-.012v1.223l-3.25.008.004 1.648 2.77-.008.004 1.22-2.77.007.004 1.707 3.254-.011v1.222zm10.606-.032-2.79-4.297.012 4.305-1.367.004-.02-7.016 1.219-.004 2.793 4.29-.012-4.297 1.367-.004.02 7.015zm6.019-5.808.015 5.793-1.367.004-.02-5.797-1.832.008-.004-1.223 5.036-.015.004 1.222zm3.457 5.781-.02-7.016 4.621-.011.004 1.222-3.25.008.004 1.645 2.77-.004.004 1.219-2.77.008.004 1.703 3.25-.008.004 1.222zm9.874-5.387c-.238-.285-.554-.43-1.027-.43l-1.035.005.012 4.57 1.035-.004c.473 0 .789-.149 1.023-.438.258-.312.293-.816.293-1.882-.004-1.063-.047-1.504-.3-1.82m.968 4.687c-.464.465-1.125.672-1.851.676l-2.531.008-.02-7.016 2.531-.008c.73-.004 1.39.203 1.856.664.789.785.71 1.754.715 2.809.004 1.05.086 2.078-.7 2.867m8.176-2.297-1.43.004.004 1.723 1.43-.004c.621 0 .918-.395.918-.872-.004-.472-.3-.855-.922-.851m-.097-2.848h-1.34l.004 1.617 1.343-.004c.579 0 .903-.328.903-.808 0-.485-.328-.809-.91-.805m.246 5.793-2.938.008-.02-7.016 2.817-.008c1.371-.004 2.172.762 2.176 1.965 0 .778-.508 1.282-.863 1.45.422.195.964.636.968 1.574.004 1.308-.89 2.023-2.14 2.027m6.714-2.898.008 2.879-1.359.004-.008-2.88-2.121-4.132 1.488-.004 1.317 2.824 1.285-2.832 1.488-.004zm43.54.051 1.66-.004-.844-2.95zm-10.02.281c-.27-.137-.625-.133-.902-.133l-1.235.004.008 1.84 1.348-.004c.309 0 .652.012.902-.2a.88.88 0 0 0 .371-.71.9.9 0 0 0-.492-.797m-.008-2.492a.9.9 0 0 0 .293-.668c0-.758-.621-.86-1.215-.86l-1.215.004.004 1.727 1.262-.004c.297 0 .653.008.871-.2"/><path fill="#fff" d="M373.055 138.492c-2.137.008-4.035-.879-4.59-3.086l2.89-.527c.27.902.954 1.226 1.856 1.223.398 0 1.2-.063 1.2-.625-.005-.622-.79-.739-1.247-.829-1.918-.363-4.184-.875-4.191-3.293-.004-.992.48-1.976 1.297-2.55.828-.582 1.91-.782 2.918-.782 1.765-.008 3.468.715 4.097 2.477l-2.574.797c-.3-.754-.867-1.024-1.652-1.02-.414 0-1.004.121-1.004.653 0 .535.746.636 1.125.726.968.188 1.992.352 2.883.805.992.531 1.511 1.48 1.515 2.594.008 2.445-2.422 3.433-4.523 3.437m-7.692-.129-2.906.008-.05-7.265-1.833 7.27-1.984.007-1.965-7.262.02 7.266-2.34.008-.028-10.172 4.07-.011 1.5 5.39 1.38-5.398 4.109-.012zm-14.918-7.789-4.582.012.008 1.488 3.707-.011.008 2.269-3.71.008.003 1.645 4.582-.012.008 2.43-7.636.023-.028-10.172 7.633-.02zm-11.058.133-2.09.008.02 7.727-2.962.008-.02-7.727-2.136.008-.008-2.445 7.192-.02zm-14.504 7.918c-2.133.008-4.031-.879-4.59-3.086l2.887-.527c.273.902.957 1.226 1.86 1.222.401 0 1.202-.062 1.198-.625 0-.62-.789-.738-1.25-.828-1.91-.363-4.18-.875-4.187-3.293-.004-.992.484-1.976 1.297-2.55.832-.583 1.91-.782 2.918-.782 1.765-.004 3.472.715 4.097 2.48l-2.574.794c-.3-.754-.867-1.02-1.652-1.02-.414 0-1.004.121-1.004.652.004.536.746.637 1.129.727.968.188 1.984.352 2.879.805.996.531 1.515 1.48 1.52 2.593.007 2.446-2.423 3.434-4.528 3.438m-9.57-4.422.011 4.297-3.023.008-.012-4.297-3.445-5.863 3.426-.008 1.789 3.344 1.695-3.356 2.73-.004zm-13.106 4.485c-2.137.008-4.035-.88-4.59-3.086l2.89-.528c.266.903.95 1.227 1.856 1.223.395 0 1.2-.063 1.2-.625-.004-.621-.79-.738-1.25-.828-1.915-.364-4.18-.875-4.188-3.293-.004-.992.484-1.977 1.3-2.551.825-.582 1.91-.777 2.915-.781 1.762-.008 3.472.715 4.094 2.476l-2.57.797c-.302-.754-.868-1.02-1.65-1.02-.417.005-1.01.122-1.007.657 0 .531.738.633 1.125.723.969.187 1.988.351 2.879.804 1 .531 1.52 1.48 1.52 2.598.007 2.441-2.419 3.43-4.524 3.433m-12.379-7.946-4.582.016.004 1.484 3.703-.012.004 2.27-3.703.008.008 1.645 4.578-.012.008 2.43-7.636.023-.028-10.172 7.637-.02zm-14.105 7.867-.586-1.996-2.715.008-.613 2-2.536.008 3.125-10.18 3.293-.007 3.211 10.16zm-10.336-.547c-.782.567-1.875.583-2.793.583l-4.664.015-.028-10.168 4.97-.015c.769-.004 1.554.054 2.194.511.684.489 1.086 1.317 1.09 2.149.004 1.07-.68 1.98-1.718 2.242 1.175.203 1.984 1.094 1.988 2.308 0 .875-.313 1.856-1.04 2.375m-15.172-14.726.058 20.64 134.18-.37-.058-20.641zm35.95-95.101v-4.812c1.711-4.527 5.465-6.445 8.441-8.242 3.348-1.996 5.711-3.14 5.711-6.61 0-2.976-1.222-4.484-4.402-4.484h-.203c-3.672 0-4.938 1.508-4.938 5.71h-4.488c0-6.405 3.344-9.788 9.426-9.788h.203c5.793 0 8.89 3.383 8.89 8.562 0 5.305-4.28 7.672-7.503 9.63-2.653 1.671-5.875 3.343-6.61 5.667v.164h13.95v4.203zm30.551-3.671c3.426 0 4.812-1.508 4.812-6.118v-8.242c0-4.61-1.386-6.117-4.812-6.117h-.246c-3.387 0-4.774 1.508-4.774 6.117v8.242c0 4.61 1.387 6.118 4.774 6.118zm-.246 4.078c-5.547 0-9.301-3.383-9.301-10.196v-8.242c0-6.812 3.754-10.195 9.3-10.195h.247c5.59 0 9.3 3.383 9.3 10.195v8.242c0 6.813-3.71 10.196-9.3 10.196zm12.113-.407v-4.812c1.715-4.527 5.465-6.445 8.445-8.242 3.344-1.996 5.707-3.14 5.707-6.61 0-2.976-1.222-4.484-4.402-4.484h-.203c-3.672 0-4.938 1.508-4.938 5.71h-4.488c0-6.405 3.348-9.788 9.426-9.788h.203c5.793 0 8.89 3.383 8.89 8.562 0 5.305-4.28 7.672-7.503 9.63-2.653 1.671-5.875 3.343-6.61 5.667v.164h13.953v4.203zm35.445-8.199c0-3.101-1.343-4.691-4.773-4.691-3.629 0-5.219 1.672-5.219 4.406 0 3.18 1.305 4.813 5.016 4.813 3.672 0 4.976-1.387 4.976-4.528m-14.48-1.55v-8.282c0-6.933 3.793-10.195 9.547-10.195 5.586 0 9.094 3.219 9.094 8.972h-4.528c0-3.59-1.14-4.894-4.566-4.894-3.59 0-5.059 1.305-5.059 6.117v4.61h.445c.817-2.204 2.778-3.508 6.243-3.508 4.406 0 7.793 2.367 7.793 8.445 0 5.59-3.633 8.89-9.465 8.89-5.875 0-9.504-3.3-9.504-10.156M185 18.453h9.363l1.653-6.77h-9.485l.899-3.84h9.093L198.31.536h-18.973l-6.387 27.535h9.805zm19.309 9.617L210.69.535h-9.8l-6.387 27.535zm16.953-20.847c.629-.121.945-.164 1.527-.164 2.024 0 3.059.703 3.059 2.105 0 2.64-2.203 4.5-5.352 4.5-.36 0-.402-.043-.719-.086zm-4.813 20.847 2.16-9.414c1.844 4.461 2.246 5.492 3.641 9.414h10.793c-1.934-4.418-4.23-8.875-4.992-9.742a6 6 0 0 0-.496-.414l.629-.203c2.609-.785 3.867-1.57 5.261-3.18 1.621-1.86 2.473-4.254 2.473-6.77 0-2.933-1.617-5.366-4.316-6.484C229.488.41 226.703 0 223.105 0c-2.16 0-6.07.246-9.218.617l-.63.082-6.339 27.371zM264.45 8.508l-4.677 19.562h9.805l4.676-19.562h7.059l1.66-7.973h-23.786l-2.386 7.973zm11.812 17.039a2.09 2.09 0 0 1-2.098 2.086 2.077 2.077 0 0 1-2.09-2.098c0-1.156.934-2.09 2.09-2.09 1.164 0 2.098.934 2.098 2.102m-4.485-.012c0 1.352 1.047 2.395 2.387 2.395a2.38 2.38 0 0 0 2.395-2.395 2.387 2.387 0 0 0-2.395-2.383 2.366 2.366 0 0 0-2.387 2.383"/><path fill="#fff" d="M274.434 25.168c0 .191-.122.293-.336.293-.036 0-.055 0-.09-.008v-.566c.047-.008.054-.008.101-.008.211 0 .325.101.325.289m-.813-.89c-.242.019-.262.027-.383.038v2.43h.77v-.82c.23.386.285.476.469.82h.898c-.23-.379-.508-.797-.594-.867-.008-.02-.015-.027-.043-.047l.035-.012c.317-.12.461-.332.461-.683 0-.582-.386-.887-1.171-.887-.102 0-.204.012-.442.027m-31.031 4.371c3.824 0 6.746-.867 9.265-2.683 2.786-1.98 4.586-5.035 4.586-7.8 0-1.86-.808-3.552-2.25-4.75-1.125-.907-2.293-1.61-4.675-2.724l-1.934-.91c-.629-.328-.945-.66-.945-1.031 0-.988 1.261-1.734 2.968-1.734 1.278 0 2.801.375 5.715 1.324l2.008-7.453C255.152.297 253.031 0 250.91 0c-8.004 0-14.164 4.375-14.164 10.031 0 2.973 1.977 5.078 6.926 7.39 2.336 1.071 2.742 1.36 2.742 2.102 0 1.118-1.215 1.82-3.191 1.82-1.754 0-4.004-.538-7.063-1.652h-.004l-2.148 7.68c2.754.816 5.77 1.277 8.582 1.277"/><path fill="#fbc32f" d="M24.434 93.695q-5.788 0-9.524-4.941c-2.492-3.297-3.738-8.371-3.738-15.23q-.001-8.76 3.86-13.583 3.853-4.822 9.402-4.824 4.899.001 7.554 3.254 2.655 3.259 3.375 8.399l10.77-1.688q-.967-9.159-7.031-14.586-6.068-5.426-14.75-5.426c-6.641 0-12.364 2.52-17.157 7.555Q0 60.184 0 73.523C0 83.648 2.266 91.22 6.793 96.227q6.79 7.516 17.64 7.515 9.321 0 15.11-5.625t7.152-15.433l-11.25-2.493q-1.53 13.505-11.011 13.504m288.796-4.621q-3.696 4.7-9.484 4.7c-3.855 0-7.02-1.59-9.48-4.782-2.47-3.187-3.7-8.21-3.7-15.066q-.001-9.164 3.778-13.985 3.778-4.823 9.402-4.824c3.7 0 6.816 1.61 9.363 4.824 2.543 3.215 3.82 7.875 3.82 13.985q0 10.446-3.699 15.148m7.356-36.89c-2.332-2.332-4.934-4.098-7.797-5.305a23.15 23.15 0 0 0-9.043-1.809c-3.16 0-6.176.606-9.039 1.809q-4.3 1.809-7.797 5.305t-5.547 9.12c-1.363 3.755-2.047 7.958-2.047 12.622q.001 7.792 2.047 13.703 2.05 5.905 5.547 9.32c2.332 2.278 4.914 3.98 7.754 5.106q4.26 1.687 9.082 1.687t9.082-1.687 7.758-5.106c2.328-2.277 4.18-5.383 5.543-9.32q2.05-5.911 2.05-13.703c0-4.664-.683-8.867-2.05-12.621-1.363-3.75-3.215-6.79-5.543-9.121m88.09 17.238c-6.43-2.195-10.426-3.734-11.977-4.621q-2.332-1.325-2.332-3.817 0-2.653 2.051-4.257 2.046-1.611 6.227-1.61 7.876 0 10.367 7.957l10.531-2.652q-1.447-7.636-7.195-11.492-5.748-3.861-13.703-3.86-8.76.002-13.864 4.703-5.102 4.7-5.101 11.293c0 3.805 1.215 7.004 3.656 9.602q3.654 3.902 12.418 6.633c6.215 1.926 10.191 3.496 11.934 4.699q2.613 1.81 2.613 5.184-.002 3.216-2.735 4.863-2.73 1.647-7.312 1.648-5.385.001-7.758-2.933c-1.578-1.957-2.719-5.13-3.414-9.524l-11.414 2.492q1.208 9.967 7.113 14.989t15.473 5.023q9.404 0 15.027-4.902 5.625-4.904 5.625-12.38 0-6.346-3.453-10.085-3.459-3.737-12.777-6.953M127.543 46.21h-17.04l5.485 6.395-18.023 49.864h10.77l13.906-40.184h.16l12.496 36.332-2.504 3.965 15-.113z"/><path fill="#fbc32f" d="M122.773 83.086a5.98 5.98 0 0 0-5.98 5.98 5.98 5.98 0 0 0 5.98 5.98 5.98 5.98 0 0 0 5.98-5.98 5.98 5.98 0 0 0-5.98-5.98m133.75-36.876 5.32 6.208v50.117h10.852V46.277zm218.165 0 6.058 7.06v49.265h10.848V46.277zm-19.333 0 5.766 6.72V70h-19.289V46.277l-15.777-.066 4.925 5.742v50.582h10.852V79.242h19.29v23.293h10.847V46.277zm-378.265 0 5.762 6.72V70h-19.29V46.277l-15.773-.066 4.926 5.742v50.582h10.847V79.242h19.29v23.293h10.851V46.277zm298.078.067-16.938-.066 6.086 7.098v16.98l-19.222-24.008-16.563-.07 5.649 6.582v49.742h10.847V63.56l19.29 24.086v14.89h10.851zM177.625 82.766l-16.312-36.489-17.399-.066 6.227 7.258v49.066h10.527V67.977h.16l15.277 34.644h3.79l14.69-34.644h.161v34.558h10.606V46.277h-11.25zm56.777-10.126a8.63 8.63 0 0 1-8.629-8.632 8.63 8.63 0 0 1 8.63-8.63 8.63 8.63 0 0 1 8.632 8.63 8.63 8.63 0 0 1-8.633 8.633m15.328-21.5q-5.386-4.863-13.984-4.863h-22.824v56.258h10.848V82.043h11.976q9.001-.002 14.184-4.824 5.184-4.823 5.183-13.02.001-8.196-5.383-13.058M520.754 72.64a8.633 8.633 0 0 1-8.633-8.632c0-4.766 3.867-8.63 8.633-8.63s8.633 3.864 8.633 8.63a8.633 8.633 0 0 1-8.633 8.633m15.324-21.5q-5.384-4.863-13.984-4.863H499.27v56.258h10.851V82.043h11.973q9-.002 14.187-4.824c3.453-3.215 5.184-7.555 5.184-13.02q-.001-8.196-5.387-13.058"/></svg>