<svg xmlns="http://www.w3.org/2000/svg" xml:space="preserve" width="1920" height="1080" viewBox="0 0 508 285.75"><defs><clipPath id="a" clipPathUnits="userSpaceOnUse"><path d="M277.99 19.716H428.6V56.41H277.99z" style="fill:#000;stroke-width:.0203927"/></clipPath><clipPath id="b" clipPathUnits="userSpaceOnUse"><path d="M126.406 19.088h150.61v36.694h-150.61z" style="fill:#000;stroke-width:.0203927"/></clipPath><clipPath id="e" clipPathUnits="userSpaceOnUse"><path d="M20.956 264.794V20.956h466.088v243.838zl.263 20.956H508V0H0v285.75h21.219z" class="border-clip" style="fill:#000;stroke-width:.01"/></clipPath><clipPath id="c" clipPathUnits="userSpaceOnUse"><path d="M211.591 80.165h42.797v84.652h-42.797z" class="sundial-left-cover" style="display:inline;fill:#000;stroke-width:.01"/></clipPath><clipPath id="d" clipPathUnits="userSpaceOnUse"><path d="M254 80.285h42.797v84.652H254z" class="sundial-right-cover" style="display:inline;fill:#000;stroke-width:.01"/></clipPath></defs><g fill="#fff" clip-path="url(#a)"><path d="M303.211 21.693h3.711l-.35 1.429h-1.778l-.176.75h1.855l-.323 1.324h-1.831l-.44 1.881h-1.917zm4.215 0h1.917l-1.249 5.384h-1.916zm2.418.032.124-.016a18 18 0 0 1 1.802-.121c.703 0 1.249.08 1.662.25.527.218.844.694.844 1.267a2 2 0 0 1-.484 1.325c-.272.315-.518.468-1.029.621l-.123.04c.053.041.071.057.097.081.15.17.598 1.041.976 1.905h-2.11a29 29 0 0 0-.712-1.84l-.422 1.84h-1.864zm1.416 2.535c.615 0 1.046-.363 1.046-.88q-.002-.412-.598-.411a1.3 1.3 0 0 0-.298.032l-.291 1.243c.062.008.071.016.141.016m7.567-2.567h4.65l-.325 1.558h-1.38l-.914 3.826h-1.917l.914-3.826h-1.496zm2.928 4.422a.466.466 0 1 1 0 .935.46.46 0 0 1-.467-.468c0-.26.206-.467.467-.467m0 .877a.409.409 0 1 0-.409-.41c0 .23.181.41.409.41m-.181-.649c.024-.002.027-.004.074-.007.047-.004.067-.006.087-.006q.23.002.229.174c0 .069-.029.11-.09.134l-.007.002.009.008c.016.015.07.096.115.17h-.175a3 3 0 0 0-.092-.16v.16h-.15zm.168.224q.063 0 .065-.058 0-.055-.063-.056c-.009 0-.011 0-.02.002v.11z"/><path d="M313.902 26.94a6 6 0 0 0 1.678.25c.748 0 1.32-.169 1.812-.524.545-.388.897-.985.897-1.526 0-.363-.159-.694-.44-.928-.22-.178-.448-.315-.914-.533l-.378-.178q-.185-.095-.185-.202c0-.194.246-.338.58-.338.25 0 .548.072 1.118.258l.392-1.457a4.7 4.7 0 0 0-1.255-.174c-1.565 0-2.77.856-2.77 1.962 0 .58.388.992 1.355 1.445.457.21.536.266.536.411 0 .218-.237.356-.624.356-.343 0-.783-.105-1.381-.323zm-11.465 25.001h-.116v.175h.116c.057 0 .093-.035.093-.087s-.036-.088-.093-.088m.006.287h-.122v.24h-.125v-.638h.247c.132 0 .212.09.212.199s-.08.199-.212.199m.604-.287h-.118v.169h.118c.055 0 .091-.035.091-.085s-.036-.084-.091-.084m.097.528-.125-.255h-.09v.255h-.124v-.64h.25c.13 0 .207.09.207.196 0 .09-.054.146-.116.168l.142.276zm.293 0v-.64h.421v.112h-.297v.15h.253v.111h-.253v.155h.297v.111zm.763.005c-.096 0-.17-.02-.233-.084l.081-.081a.2.2 0 0 0 .154.054q.112-.001.113-.08 0-.033-.019-.053c-.013-.012-.027-.018-.057-.022l-.077-.011a.2.2 0 0 1-.124-.053.17.17 0 0 1-.045-.126c0-.114.084-.194.222-.194.088 0 .152.022.207.075l-.079.078c-.041-.039-.089-.044-.132-.044-.066 0-.098.037-.098.08a.06.06 0 0 0 .019.046.1.1 0 0 0 .059.026l.075.01a.2.2 0 0 1 .122.05.18.18 0 0 1 .05.135c0 .124-.104.194-.237.194m.4-.006v-.638h.42v.111h-.296v.15h.252v.111h-.252v.155h.296v.111zm.965 0-.253-.392v.392h-.125v-.638h.112l.253.391v-.391h.125v.638zm.55-.527v.527h-.125v-.527h-.167v-.111h.459v.111zm.313.527v-.638h.421v.111h-.296v.15h.252v.111h-.252v.155h.296v.111zm.901-.488q-.031-.039-.093-.039h-.095v.416h.095a.11.11 0 0 0 .093-.039c.023-.029.027-.075.027-.172s-.004-.137-.027-.166m.087.427a.23.23 0 0 1-.169.061h-.23v-.638h.23c.066 0 .126.018.169.06.072.072.064.16.064.256s.008.19-.064.261m.745-.207h-.13v.157h.13c.057 0 .084-.036.084-.079s-.027-.078-.084-.078m-.008-.259h-.122v.147h.122c.053 0 .083-.03.083-.073 0-.044-.03-.074-.083-.074m.02.527h-.267v-.638h.257c.125 0 .197.07.197.18a.15.15 0 0 1-.079.13.15.15 0 0 1 .088.145c0 .12-.081.183-.196.183m.613-.262v.262h-.124v-.262l-.192-.376h.136l.119.257.118-.257h.135zm7.553-1.155c.035 0 .059.03.059.062v1.784c0 .032-.024.062-.059.062h-.159a.064.064 0 0 1-.062-.062v-1.784a.064.064 0 0 1 .062-.062zm2.088 1.681c-.232 0-.396-.186-.396-.42 0-.237.164-.42.396-.42s.396.183.396.42c0 .234-.164.42-.396.42m0-1.102a.674.674 0 0 0-.679.682c0 .388.302.682.679.682a.67.67 0 0 0 .679-.682.674.674 0 0 0-.679-.682m-.749 1.146c.035.043.005.075-.014.088a.7.7 0 0 1-.414.13c-.402 0-.669-.294-.669-.682s.267-.684.669-.684a.68.68 0 0 1 .414.129c.019.013.046.043.014.09l-.076.104c-.029.04-.064.03-.094.01a.47.47 0 0 0-.25-.077c-.235 0-.391.188-.391.428s.156.426.391.426a.5.5 0 0 0 .245-.079c.029-.016.062-.03.094.014zm-2.511-.041c-.232 0-.396-.189-.396-.423 0-.237.164-.42.396-.42.229 0 .396.183.396.42 0 .234-.167.423-.396.423m.614-1.07h-.159a.063.063 0 0 0-.062.062v.108a.5.5 0 0 0-.423-.207c-.35 0-.652.277-.652.682 0 .409.302.684.65.684a.51.51 0 0 0 .425-.207v.112c0 .033.03.06.062.06h.159a.06.06 0 0 0 .059-.06v-1.172a.06.06 0 0 0-.016-.043.06.06 0 0 0-.043-.019m7.457 1.23c.014.031-.003.064-.043.064h-.178a.07.07 0 0 1-.07-.049l-.329-.883-.333.883q-.021.05-.071.049h-.159q-.049.002-.069-.049l-.337-.889-.332.89q-.02.048-.07.048h-.167q-.048 0-.07-.049l-.328-.889-.34.89a.07.07 0 0 1-.07.048h-.159a.07.07 0 0 1-.07-.049l-.331-.889-.332.89a.07.07 0 0 1-.07.048h-.172c-.041 0-.057-.033-.043-.065l.449-1.177q.021-.052.071-.052h.194q.048 0 .07.052l.318.86.32-.86q.022-.052.07-.052h.192q.049 0 .069.052l.318.86.319-.86q.02-.052.069-.052h.192q.048 0 .07.052l.323.86.315-.86q.022-.052.07-.052h.194q.05 0 .07.052zm-10.914-.317-.123-.323c-.011-.026-.033-.05-.081-.05h-.162c-.04 0-.072.026-.054.078l.163.423a.7.7 0 0 1-.171.02c-.398 0-.681-.312-.681-.72 0-.41.283-.723.681-.723s.682.313.682.722a.73.73 0 0 1-.254.573m-.428-1.562a.973.973 0 0 0-.983.99c0 .565.439.988.983.988q.137 0 .268-.036l.107.275c.011.03.032.05.072.05h.17c.041 0 .07-.028.052-.08l-.139-.36a.98.98 0 0 0 .454-.838.974.974 0 0 0-.984-.989m2.344.65c.034 0 .062.027.062.061V52.9c0 .033-.029.06-.062.06h-.159c-.029 0-.059-.025-.059-.057v-.108c-.081.119-.218.2-.42.2-.337 0-.545-.224-.545-.555v-.714c0-.032.03-.06.062-.06h.16a.06.06 0 0 1 .059.06v.668c0 .216.113.358.336.358.219 0 .348-.148.348-.355v-.671c0-.032.03-.06.059-.06zm9.867-12.672a10 10 0 0 0-.047-.958h-8.763l-1.486 3.086h6.511c0 .512-1.968 3.768-5.076 3.64-3.743-.153-5.589-3.384-5.589-5.742s1.898-5.743 5.282-5.743 4.46 1.743 5.075 2.769l3.18-1.504c-1.418-3.23-4.724-4.917-8.225-4.917-5.046 0-9.138 4.195-9.138 9.37 0 .98.148 1.925.421 2.813l1.193-.518.029.097a8.1 8.1 0 0 0 2.801 4.058 7.65 7.65 0 0 0 4.694 1.598c.744 0 1.459-.076 2.124-.224l.076-.017.493 1.245c4.021-.999 6.445-4.316 6.445-9.053"/><path d="M317.058 47.013a10 10 0 0 1-2.088.212 7.84 7.84 0 0 1-4.805-1.636 8.3 8.3 0 0 1-2.833-4.051l-1.022.444.03.093.061.178q.066.18.138.358.035.084.072.167.044.105.092.21l.085.179a13 13 0 0 0 .298.562q.045.08.092.159.096.162.2.321l.094.138q.067.1.137.197l.111.15q.067.09.135.177l.116.145.152.18.111.128q.128.142.26.28l.098.097q.094.095.192.187l.124.115q.09.081.18.159.159.14.327.27l.119.093q.155.119.316.23l.084.057q.126.086.255.167l.131.08q.11.068.222.131.068.04.138.077.119.065.239.126l.123.062q.18.09.364.17l.06.024q.158.067.32.13l.133.048a7 7 0 0 0 .403.136l.273.08.128.035q.2.051.402.095.016.002.031.006.189.039.382.07l.134.019a8 8 0 0 0 .733.076l.135.009q.213.01.429.01h.002a13 13 0 0 0 1.01-.04l.055-.006q.444-.04.885-.113l.136-.025q.215-.039.428-.088zm10.502-14.881-1.129-1.205v15.781l1.129-1.149zm6.789 6.602a1.193 1.193 0 1 1-2.386 0 1.193 1.193 0 0 1 2.386 0"/><path d="M336.513 47.502h-.149v-.288l-.113.285h-.101l-.113-.286v.289h-.149v-.585h.173l.139.345.14-.345h.173zm-.755-.452h-.166v.452h-.15v-.452h-.166v-.133h.482zm-5.63-2.746.051-10.822h6.609v-3.537h-11.023l.504.545 1.472 1.57v13.573l-.079.08v.002-.001l-1.231 1.252v.003l-.802.818h2.033l9.131-.004.042-3.478zm-32.525-4.377a1.194 1.194 0 1 1 .001-2.387 1.194 1.194 0 0 1-.001 2.387m8.849 8.117-7.238-18.048h-5.123l1.058 2.05.613 1.182-.003.007.055.105-.016.039-5.888 14.665h2.536l2.205-5.729 5.512.075 1.691 4.359-.765 1.295z"/><path d="m295.616 33.35-.56-1.078-6.451 15.772h1.111z"/></g><g fill="#fff" clip-path="url(#b)"><path d="M218 35.841h-1.975v5.135h-1.724V35.84h-1.973v-1.483H218Zm.203-1.483h5.275v1.38h-3.55v1.158h3.245v1.337h-3.244v1.26h3.643v1.483h-5.37zm10.186 2.365c-.09-.669-.61-1.02-1.334-1.02-1.11 0-1.539.983-1.539 1.963 0 .985.429 1.967 1.539 1.967.807 0 1.271-.463 1.335-1.224h1.725c-.093 1.704-1.345 2.706-3.022 2.706-2.003 0-3.3-1.53-3.3-3.45 0-1.916 1.297-3.445 3.3-3.445 1.427 0 2.975.907 3.022 2.503zm2.067-2.365h1.726v2.41h2.269v-2.41h1.726v6.618h-1.726v-2.724h-2.269v2.724h-1.726zm-13.532 10.64c-.092-.666-.612-1.02-1.334-1.02-1.113 0-1.539.983-1.539 1.965s.426 1.966 1.539 1.966c.807 0 1.27-.464 1.335-1.225h1.723c-.092 1.707-1.343 2.708-3.021 2.708-2.002 0-3.299-1.529-3.299-3.449s1.297-3.448 3.299-3.448c1.428 0 2.975.91 3.021 2.503zm2.067-2.365h1.724v2.412h2.271v-2.412h1.725v6.618h-1.725V46.53h-2.272v2.722h-1.723z"/><path d="M227.231 46.787h1.502l-.732-2.317h-.019zm-.11-4.154h1.751l2.476 6.618h-1.8l-.408-1.185h-2.306l-.418 1.185h-1.771z"/><path d="M231.292 42.633h1.723v5.137h3.087v1.481h-4.81zm5.106 0h1.726v5.137h3.086v1.481h-4.812zm5.108 0h5.273v1.382h-3.55v1.159h3.244v1.334h-3.244v1.262h3.644v1.481h-5.367zm5.774 0h1.771l2.298 4.08h.019v-4.08h1.622v6.618h-1.771l-2.299-4.123h-.018v4.123h-1.622zm12.439 6.618h-1.113l-.1-.722c-.454.64-1.234.863-1.846.863-2.001 0-3.3-1.529-3.3-3.449s1.299-3.448 3.3-3.448c1.373 0 2.836.732 2.995 2.391h-1.725c-.056-.565-.61-.908-1.306-.908-1.112 0-1.539.983-1.539 1.965s.427 1.966 1.539 1.966c.853 0 1.428-.398 1.519-1.001h-1.204v-1.279h2.78zm.546-6.618h5.276v1.382h-3.552v1.159h3.246v1.334h-3.246v1.262h3.644v1.481h-5.368zm-46.498-17.022h4.688l-.442 1.804h-2.245l-.223.948h2.344l-.408 1.671h-2.313l-.556 2.375h-2.421zm5.323 0h2.423l-1.576 6.798h-2.423zm4.844 3.242c.777 0 1.322-.459 1.322-1.111 0-.347-.257-.521-.756-.521-.144 0-.223.01-.378.041l-.366 1.57c.078.011.089.021.178.021m-1.788-3.202.155-.019a23 23 0 0 1 2.276-.154c.89 0 1.576.102 2.099.315a1.69 1.69 0 0 1 1.066 1.602 2.53 2.53 0 0 1-.61 1.671c-.346.397-.656.592-1.299.786l-.155.05c.066.052.089.072.121.104.189.213.756 1.313 1.233 2.404h-2.666a36 36 0 0 0-.898-2.324l-.534 2.324h-2.354zm11.343-.04h5.874l-.41 1.968h-1.744l-1.155 4.83h-2.42l1.155-4.83h-1.89zm3.683 6.155q.078 0 .08-.072 0-.07-.078-.071c-.013 0-.015 0-.025.002v.139zm-.214-.283c.029-.003.036-.005.094-.009.06-.004.084-.006.109-.006q.291 0 .29.22c0 .084-.035.138-.114.167l-.008.002q.089.107.157.228h-.221c-.046-.085-.06-.108-.117-.205v.204h-.19zm.228.818a.517.517 0 1 0 0-1.032.516.516 0 0 0 0 1.032m0-1.106a.59.59 0 1 1 0 1.181.58.58 0 0 1-.588-.592c0-.328.261-.589.588-.589"/><path d="M227.271 32.238c.68.202 1.424.316 2.12.316.944 0 1.665-.215 2.286-.664.689-.488 1.133-1.244 1.133-1.926 0-.46-.2-.877-.554-1.173-.279-.223-.566-.397-1.156-.672l-.478-.226c-.155-.08-.232-.161-.232-.254 0-.244.31-.429.733-.429.316 0 .691.094 1.41.327l.497-1.839a6 6 0 0 0-1.585-.219c-1.977 0-3.498 1.08-3.498 2.476 0 .735.488 1.254 1.709 1.825.577.265.679.337.679.521 0 .273-.301.447-.789.447-.434 0-.989-.132-1.744-.408zm-50.119 9.392-.275 1.44 2.745-1.177a6.4 6.4 0 0 1-.418-1.144z"/><path d="m199.741 47.394-2.257-2.166c.885-.609 1.636-1.32 2.216-2.113l.022-.035 5.487-5.697.165-.176.716-.745-6.702-6.436-1.506 1.568-1.661 1.732-1.134 1.18-2.133 2.223h.002l-.186.192.623.596 2.888 2.816c-.633.597-1.436 1.11-2.342 1.49h-.003l-1.905-1.832-1.872-1.798-1.272-1.206 3.024-3.15 1.521-1.583 1.651-1.719 4.127-4.3 10.863 10.399zm1.398-9.134q.076-.486.077-.946c0-1.802-.815-3.699-2.187-5.116l.358-.372 5.553 5.33-4.597 4.787c.488-1.134.803-2.535.803-3.538q0-.067-.006-.145m-4.615 1.829-2.622-2.553 2.22-2.311c.79.658 1.374 1.444 1.682 2.309a4 4 0 0 1-.077.426c-.188.765-.593 1.481-1.203 2.129m-.437 3.817c-.403.206-.834.393-1.276.554-1.521.563-3.162.846-4.873.846-2.428 0-4.727-.575-6.646-1.67-1.061-.603-1.955-1.336-2.65-2.176a7.4 7.4 0 0 1-.702-.997 6.4 6.4 0 0 1-.802-2.184 6 6 0 0 1-.081-.964c0-1.163.333-2.283.993-3.331l1.764 1.787a4.3 4.3 0 0 0-.052 2.284c.127.505.334.986.613 1.425.228.363.507.706.826 1.025.875.874 2.064 1.563 3.438 1.991a11 11 0 0 0 3.299.49c.925 0 1.84-.109 2.719-.327q.734-.184 1.434-.47c1.038-.433 1.953-1.037 2.646-1.745.701-.722 1.165-1.526 1.378-2.391.082-.35.128-.7.128-1.043 0-.982-.373-2.096-.977-2.948l1.504-1.564c1.285 1.34 2.048 3.126 2.048 4.816 0 .31-.026.636-.08.964-.234 1.417-.987 2.766-2.177 3.904a10.3 10.3 0 0 1-2.474 1.724m-17.341-5.563.008.037q-.007.077-.008.134c0 .532.325 1.792.457 2.295v.002l-1.725.738 1.647-8.577.674.668c-.755 1.15-1.14 2.386-1.14 3.674 0 .336.029.673.087 1.029m4.028 1.011c-.019-.029-.044-.056-.062-.084a4.5 4.5 0 0 1-.565-1.31c-.011-.048-.017-.095-.027-.143.134-.457.335-.891.598-1.289l2.098 2.075zm7.96 1.194 1.802 1.731c-.85.207-1.723.311-2.598.31-1.107 0-2.177-.159-3.182-.471-.132-.041-.263-.09-.395-.135l3.997-1.798zm-17.613 7.143 3.873-21.575 5.529 5.238 1.732 1.643 1.324 1.253 3.142 2.996v1.367l1.335 1.285-4.173 1.897c-.941-.397-1.762-.932-2.404-1.572q-.019-.023-.041-.045l3.203-1.496-7.529-7.01-.149-.15-.18.97-1.779 9.271-.276 1.438.472-.201.002-.013 2.419-1.036a7.8 7.8 0 0 0 1.595 2.201zm18.772-14.313-3.231 3.365-2.839-2.691c1.219-.528 2.651-.836 4.184-.836.649 0 1.28.058 1.886.162m-2.329-4.384c1.754 0 4.098.45 5.583.993l-.066.068-1.651 1.722-.006.005a10.8 10.8 0 0 0-3.418-.544c-2.132 0-4.069.594-5.509 1.558l-.023-.02-1.731-1.641-.153-.147c1.892-1.144 4.348-1.994 6.974-1.994m20.754 7.386v-.005l-.002.002-11.108-10.619-3.736 3.892c-1.546-.596-3.972-1.076-5.817-1.076-2.686 0-5.452.916-7.386 2.112l-5.209-4.938v-.006l-.006.002-.003-.004-.002.004-1.864.194-4.021 22.027 1.872.194.002-.004 8.488-3.716q.018.02.04.037c2.019 1.782 5.05 2.918 8.44 2.918 2.354 0 4.531-.547 6.321-1.478l3.413 3.277 10.578-11.018v-1.793l.002-.002z"/></g><path d="M277.99 55.782h-.974V19.088h.974z" style="fill:#fff;fill-opacity:1;fill-rule:nonzero;stroke:none;stroke-width:.314869"/><path fill="#100f0d" d="M481.934 42.694c-.153.376-.449.588-.879.63a.8.8 0 0 1-.204-.013l-.07-.009a.94.94 0 0 1-.673-.501 928 928 0 0 0-1.771-3.336l-1.041-1.964-.01-.016a.02.02 0 0 1 .01-.008l.049-.035.275-.196.054-.037.04.041.723.782.987 1.073q1.152 1.252 2.308 2.502c.3.326.368.684.203 1.087m-5.151-5.99-.406-.564q.116-.08.229-.161l.093-.068.139.197.267.369a13 13 0 0 0-.322.226m-.752-1.452a4.44 4.44 0 0 1-6.227-1.025 4.43 4.43 0 0 1-.767-3.318 4.4 4.4 0 0 1 1.806-2.89 4.4 4.4 0 0 1 2.577-.83q.372 0 .747.062a4.42 4.42 0 0 1 2.896 1.815 4.45 4.45 0 0 1 .752 3.314v.005a4.37 4.37 0 0 1-1.785 2.866m6.439 5.802-4.029-4.376c-.015-.016-.048-.05-.051-.059 0 0 .002-.01.014-.037a.43.43 0 0 0-.045-.442.46.46 0 0 0-.463-.162.3.3 0 0 1-.035-.044q-.143-.206-.287-.408l-.141-.199-.041-.057.053-.059a5.3 5.3 0 0 0 1.245-2.634 5.33 5.33 0 0 0-1.594-4.808 5.33 5.33 0 0 0-3.859-1.467c-3.201.1-5.038 2.684-5.14 5.063-.067 1.56.449 2.916 1.533 4.027.982 1.007 2.217 1.548 3.672 1.605a5.25 5.25 0 0 0 2.258-.419l.038.055.149.21c.084.12.169.244.257.362.058.075.055.087.031.138a.44.44 0 0 0 .039.458c.086.12.233.182.379.159.012-.002.025-.002.03-.002h.011c.011.008.03.049.055.095l2.755 5.2c.302.57.777.912 1.416 1.018q.16.027.316.026a1.943 1.943 0 0 0 1.435-3.244" style="fill:#fff;fill-opacity:1;stroke-width:.522376"/><path d="M471.358 28.51a1.6 1.6 0 0 0-.214.154 3.82 3.82 0 0 0-1.386 2.322v.004a3.87 3.87 0 0 0 .547 2.747c.035.054.08.126.137.185a.45.45 0 0 0 .32.133.43.43 0 0 0 .366-.204.43.43 0 0 0 .018-.418c-.019-.041-.045-.08-.069-.119l-.023-.032a2.963 2.963 0 0 1 .681-3.965l.031-.023c.037-.028.076-.057.108-.09a.45.45 0 0 0 .039-.587.43.43 0 0 0-.555-.106" style="fill:#fff;fill-opacity:1;stroke-width:.522376"/><g style="fill:#fff;fill-opacity:1"><path d="M32.718 28.969a3.91 3.91 0 0 0-3.869 3.379h-1.708a.529.529 0 0 0 0 1.057h1.709a3.91 3.91 0 0 0 3.868 3.379 3.91 3.91 0 0 0 3.867-3.379h1.763a.529.529 0 0 0 0-1.057h-1.762a3.91 3.91 0 0 0-3.867-3.379m0 1.057a2.85 2.85 0 0 1 2.85 2.85 2.85 2.85 0 0 1-2.851 2.85 2.85 2.85 0 0 1-2.847-2.737c.009-.037.023-.073.023-.113s-.014-.075-.023-.112a2.85 2.85 0 0 1 2.847-2.738m-2.351 9.429a.528.528 0 1 0 0-1.057h-3.014v-3.087a.528.528 0 1 0-1.055 0v3.615c0 .293.237.53.527.53zm8.297-4.635a.53.53 0 0 0-.529.527v3.015h-3.087a.529.529 0 0 0 0 1.056h3.616a.53.53 0 0 0 .529-.528v-3.543a.53.53 0 0 0-.53-.528m.001-8.521h-3.542a.529.529 0 0 0 0 1.057h3.014v3.087a.529.529 0 0 0 1.057 0v-3.615a.53.53 0 0 0-.53-.53m-11.838 4.637a.53.53 0 0 0 .528-.529v-3.014h3.09a.528.528 0 1 0 0-1.056h-3.618a.53.53 0 0 0-.527.528v3.542c0 .292.235.528.527.529" style="fill:#fff;fill-opacity:1;stroke-width:.522376"/></g><g style="fill:#fff;fill-opacity:1"><path d="M32.304 243.722a2.87 2.87 0 0 0-1.898.653 1.5 1.5 0 0 0-.355.426 1.22 1.22 0 0 0 .23 1.519c.097.09.2.171.303.252l.067.054c.053.042.106.085.149.134.022.026.04.055 0 .11a.24.24 0 0 1-.073.071c-.214.144-.396.207-.586.207h-.004c-.863-.006-1.722-.004-2.586-.004l-.838.002h-.037c-.118-.002-.233-.002-.329.096-.095.096-.093.214-.091.308v11.156c-.002.104-.005.218.094.314.093.096.21.093.302.091l.06-.002 4.223.002h2.585l4.234-.002.061.002h.037c.086 0 .186-.008.27-.091.095-.096.095-.212.094-.314l-.003-3.655c0-.133-.022-.257-.067-.381a2.1 2.1 0 0 0-.376-.668 1.16 1.16 0 0 0-.677-.408.98.98 0 0 0-.69.127 1.3 1.3 0 0 0-.363.328l-.088.112q-.09.117-.183.229c-.141.163-.276.178-.45.049a1 1 0 0 1-.266-.319 1.95 1.95 0 0 1 .096-2.124.9.9 0 0 1 .201-.2q.239-.162.425.049.103.117.198.245l.093.116c.1.127.204.223.317.297.35.224.726.228 1.088.011.3-.18.465-.461.563-.657.125-.248.19-.523.188-.802-.01-.808-.007-1.616-.007-2.422l.002-1.071c0-.106.002-.224-.096-.323-.098-.095-.214-.095-.329-.095l-.056.002a995 995 0 0 0-3.455 0h-.002c-.212 0-.4-.082-.592-.257-.043-.039-.057-.072-.057-.086 0-.017.016-.051.065-.096q.112-.1.23-.19.08-.06.158-.126c.235-.196.381-.408.45-.653.101-.372.033-.731-.2-1.067-.174-.251-.421-.456-.751-.627a2.9 2.9 0 0 0-1.278-.322m-.116.938c.408-.006.808.112 1.149.337a.8.8 0 0 1 .232.225c.094.14.086.259-.029.377q-.074.074-.156.137l-.158.13a3 3 0 0 0-.245.214c-.372.374-.394.97-.051 1.369.358.408.786.618 1.274.621q1.164.004 2.328.002h.74l-.001.755c0 .745-.003 1.487.006 2.232 0 .18-.055.341-.19.543a.4.4 0 0 1-.1.1c-.039.026-.063.025-.102-.002-.031-.022-.064-.064-.098-.104l-.11-.139a4 4 0 0 0-.264-.312 1.22 1.22 0 0 0-1.544-.165 1.7 1.7 0 0 0-.488.477c-.62.928-.702 1.917-.247 2.936a2.2 2.2 0 0 0 .473.672c.276.267.64.408.994.387.339-.016.654-.179.884-.456l.214-.262q.066-.086.141-.167c.04-.041.071-.055.088-.055.014 0 .038.01.073.045.186.188.274.369.272.574v3.035H27.196v-10.094l3.047-.002h.049a.8.8 0 0 0 .25-.021c.387-.108.67-.261.894-.483a1.07 1.07 0 0 0 .333-.752c0-.276-.116-.535-.334-.752-.076-.075-.162-.143-.246-.21l-.15-.122a1 1 0 0 1-.147-.133c-.082-.098-.094-.182-.043-.294a.65.65 0 0 1 .218-.261 1.95 1.95 0 0 1 1.121-.382" style="fill:#fff;fill-opacity:1;stroke-width:.522376"/></g><g style="fill:#fff;fill-opacity:1"><path d="m471.919 245.31-.102.002a.58.58 0 0 0-.542.552 10 10 0 0 0 0 .726c.008.264.19.479.459.544.065.014.126.014.18.014l.032.002v.545l.002 1.047c0 .349.033.655.101.936.257 1.08.854 1.93 1.781 2.53a4.02 4.02 0 0 0-1.6 1.937 4.2 4.2 0 0 0-.282 1.506l-.002.895v.721h-.07c-.363.008-.599.249-.604.614v.194q.01.156-.001.317c-.015.21.038.389.157.516.124.133.312.203.54.203h.002q3.01-.007 6.016-.006l1.9.003q.048 0 .093-.003a.58.58 0 0 0 .574-.575q.009-.347 0-.694a.58.58 0 0 0-.49-.557 1 1 0 0 0-.181-.012h-.002v-1.551c0-.267-.018-.502-.055-.721-.2-1.189-.814-2.126-1.827-2.787a4 4 0 0 0 1.212-1.191 4.1 4.1 0 0 0 .67-2.261q.003-.511 0-1.024v-.582h.03q.044 0 .086-.003a.587.587 0 0 0 .557-.573q.009-.347 0-.694a.584.584 0 0 0-.561-.569c-.029-.002-.057-.002-.115-.002zm.77 1.84h6.481l-.003.587.003.51q0 .306-.003.611c-.012 1.014-.424 1.863-1.224 2.52-.237.196-.5.361-.78.489a.5.5 0 0 0-.089.05.345.345 0 0 0 .004.585.5.5 0 0 0 .096.051l.039.019c.873.453 1.449 1.073 1.759 1.891.126.328.191.675.194 1.026q.004.67.004 1.341v.437h-6.512v-1.671c0-.755.227-1.426.674-2a3.7 3.7 0 0 1 1.289-1.029l.031-.012q.057-.025.108-.061a.342.342 0 0 0-.002-.573 1 1 0 0 0-.102-.058l-.035-.015c-.747-.382-1.277-.895-1.624-1.567a3.05 3.05 0 0 1-.337-1.362q-.004-.624-.002-1.248v-.519z" style="fill:#fff;fill-opacity:1;stroke-width:.522376"/><path d="M475.901 253.813a.344.344 0 0 0-.329.283l-.01.122-.002.054.002.054c.002.043.004.09.011.133a.33.33 0 0 0 .33.28h.012a.33.33 0 0 0 .341-.284 1.3 1.3 0 0 0 0-.357.35.35 0 0 0-.356-.285m.356-.757a.34.34 0 0 0-.341-.298h-.006a.35.35 0 0 0-.339.297l-.004.039v.171a1 1 0 0 0 .002.113.334.334 0 0 0 .345.306h.004c.184 0 .324-.124.339-.298q.016-.168 0-.331m2.301 3.278-.059-.051a4 4 0 0 0-.161-.139c-.657-.52-1.416-.892-2.322-1.137-.104-.028-.193-.002-.259.017a7 7 0 0 0-.99.352c-.594.27-1.077.576-1.485.95a.5.5 0 0 0-.099.104.35.35 0 0 0-.038.348.33.33 0 0 0 .269.197c.025.002 4.981.003 5.018-.003a.32.32 0 0 0 .245-.18.35.35 0 0 0-.007-.324.5.5 0 0 0-.112-.135m-4.071-8.313a2.33 2.33 0 0 0-1.438.48.44.44 0 0 0-.194.392c.01.471.115.904.31 1.29.349.683.904 1.201 1.647 1.536.206.094.422.196.606.341.09.071.143.132.157.225.025.166.158.273.339.273s.314-.108.338-.274c.015-.094.07-.153.159-.225q.252-.195.548-.311.302-.125.573-.309c.651-.443 1.075-.983 1.294-1.657.1-.303.15-.621.146-.94a.37.37 0 0 0-.142-.298.34.34 0 0 0-.308-.053.4.4 0 0 0-.149.084c-.431.33-.929.424-1.521.285-.258-.059-.511-.175-.824-.38a2.9 2.9 0 0 0-1.541-.459m.008.707a2.26 2.26 0 0 1 1.223.391c.322.217.682.37 1.061.451.467.1.953.068 1.402-.094-.141.5-.43.914-.884 1.265a2.4 2.4 0 0 1-.598.345c-.286.113-.55.274-.783.476-.263-.225-.569-.378-.833-.501-.86-.395-1.365-1.034-1.497-1.899l-.011-.061c-.007-.048-.015-.099-.023-.1l-.003.002.002-.002h.001c.013-.011.052-.03.088-.049l.076-.037c.241-.125.508-.189.779-.187" style="fill:#fff;fill-opacity:1;stroke-width:.522376"/><path d="m478.329 249.34.018.003-.018.003zm-.109-.023.058.012-.033.025-.018.002q-.012-.022-.006-.039" style="fill:#fff;fill-opacity:1;stroke-width:.522376"/></g><path d="m213.373 80.286-1.577 1.578v81.255l1.577 1.577h81.254l1.578-1.577V81.865l-1.578-1.58z" style="fill:#7adfa9;fill-opacity:1;stroke-width:.411283" transform="translate(0 -11.642)"/><path fill="#4d8393" d="M288.842 126.139c0 15.239-15.598 27.594-34.838 27.594-19.242 0-34.84-12.355-34.84-27.594s15.598-27.594 34.84-27.594c19.24 0 34.838 12.354 34.838 27.594" style="stroke-width:.522373" transform="translate(0 -11.642)"/><path fill="#100e0c" d="M254.004 99.245c-18.826 0-34.14 12.064-34.14 26.894s15.314 26.895 34.14 26.895c18.824 0 34.138-12.066 34.138-26.895 0-14.83-15.314-26.894-34.138-26.894m0 55.188c-19.598 0-35.54-12.694-35.54-28.294 0-15.602 15.942-28.294 35.54-28.294 19.595 0 35.538 12.692 35.538 28.294s-15.943 28.294-35.538 28.294" style="stroke-width:.522373" transform="translate(0 -11.642)"/><path fill="#f03a1f" d="M288.842 121.407c0 15.241-15.598 27.594-34.838 27.594-19.242 0-34.84-12.353-34.84-27.594 0-15.238 15.598-27.594 34.84-27.594 19.24 0 34.838 12.356 34.838 27.594" style="stroke-width:.522373" transform="translate(0 -11.642)"/><path fill="#100e0c" d="M254.004 94.513c-18.826 0-34.14 12.066-34.14 26.894 0 14.831 15.314 26.894 34.14 26.894 18.824 0 34.138-12.063 34.138-26.894 0-14.828-15.314-26.894-34.138-26.894m0 55.188c-19.598 0-35.54-12.692-35.54-28.294 0-15.6 15.942-28.292 35.54-28.292 19.595 0 35.538 12.693 35.538 28.292 0 15.602-15.943 28.294-35.538 28.294" style="stroke-width:.522373" transform="translate(0 -11.642)"/><path fill="#100e0c" d="M253.818 97.258c-16.956 0-30.751 10.862-30.751 24.213 0 13.349 13.795 24.211 30.751 24.211 16.96 0 30.753-10.862 30.753-24.211 0-13.351-13.793-24.213-30.752-24.213m0 49.821c-17.728 0-32.151-11.488-32.151-25.608 0-14.123 14.423-25.611 32.151-25.611s32.152 11.488 32.152 25.611c0 14.12-14.424 25.608-32.152 25.608" style="display:inline;stroke-width:.522373" transform="translate(0 -11.642)"/><g fill="#100e0c" class="sundial-left" clip-path="url(#c)" transform="translate(0 -11.642)"><path d="m231.746 116.241-5.817-1.068q-.196.496-.364 1l5.743 1.053q.2-.5.439-.985m7.055 19.05-4.515 3.95q.448.306.912.596l4.574-4.001a22 22 0 0 1-.971-.545" style="stroke-width:.522373"/><path d="m248.133 104.701-2.162-5.36q.504-.151 1.014-.288l2.171 5.381q-.515.123-1.022.267" style="display:inline;stroke-width:.522373"/><path d="M241.308 107.103q.49-.248.998-.477l-4.212-4.327q-.476.252-.942.521c.008.013.012.029.024.041zm-5.385 3.677c.141-.128.288-.251.433-.375l-5.395-2.832q-.384.387-.749.791l5.315 2.792c.133-.127.259-.253.396-.376m-2.642 19.734-5.377 2.374q.297.443.618.875l5.448-2.406a16 16 0 0 1-.689-.843m-2.882-6.995-5.719.649q.055.524.141 1.039l5.727-.649q-.095-.516-.149-1.038m15.531 14.617-2.824 5.2q.518.151 1.04.283l2.851-5.25q-.536-.105-1.067-.233" style="stroke-width:.522373"/></g><g fill="#100e0c" class="sundial-right" clip-path="url(#d)" transform="translate(0 -11.642)"><path d="m255.973 104.03-.095-5.76q-.525-.016-1.05-.016l.096 5.751q.525.006 1.049.025m6.824 1.053 2.162-5.36q-.504-.151-1.014-.288l-2.171 5.381q.515.123 1.022.267m11.136 6.813 5.134-2.787a23 23 0 0 0-.661-.834l-5.192 2.815q.377.398.719.806m-4.947-4.16 3.994-4.283a28 28 0 0 0-.9-.574l-4.03 4.32q.476.257.937.537m7.64 8.861q.167.503.295 1.013l5.679-.994a20 20 0 0 0-.261-1.02zm-8.724 15.896 6.965-5.148-8.556 3.495-4.639-3.52 3.184 4.302-6.905 5.393 8.594-3.657 4.6 3.684z" style="stroke-width:.522373"/></g><path fill="#100e0c" d="M220.274 130.306a22 22 0 0 0 1 3.471v-1.345a25 25 0 0 1-1-2.126m1.792 3.497v1.825q.48.998 1.049 1.95v-2.205a25 25 0 0 1-1.049-1.57m1.838 2.623v2.391q.498.727 1.049 1.429v-2.57q-.541-.61-1.049-1.25m1.841 2.114v2.673q.509.587 1.049 1.146v-2.777a30 30 0 0 1-1.049-1.042m1.839 1.769v2.842q.513.493 1.048.961v-2.918a30 30 0 0 1-1.048-.885m1.84 1.503v2.963q.514.42 1.049.82v-3.01a30 30 0 0 1-1.049-.773m1.838 1.319v3.046c.345.243.695.484 1.049.714v-3.095a35 35 0 0 1-1.049-.665m1.841 1.14v3.111q.517.317 1.049.615v-3.132c-.357-.191-.702-.394-1.049-.594" style="stroke-width:.522373" transform="translate(0 -11.642)"/><g style="display:inline"><path d="m251.418 114.609 9.308-16.895-2.533 23.228z" class="dial-pointer-shadow" style="opacity:1;fill:#000;stroke:#000;stroke-width:1.05;stroke-linecap:round;stroke-linejoin:round;stroke-dasharray:none;stroke-opacity:1" transform="translate(0 -11.642)"/><path fill="#e6a511" d="m253.784 122.83-10.968-35.11s1.839 9.654.722 15.064c-1.116 5.409-4.466 5.336-4.466 5.336z" class="dial-pointer-left" style="display:inline;stroke:#000;stroke-width:1.05;stroke-linejoin:round;stroke-dasharray:none;stroke-opacity:1" transform="translate(0 -11.642)"/><path fill="#e6a511" d="m245.487 87.102 12.623 33.954-4.326 1.774-10.968-35.11z" class="dial-pointer-center" style="display:inline;stroke:#000;stroke-width:1.05;stroke-linecap:round;stroke-linejoin:round;stroke-dasharray:none;stroke-opacity:1" transform="translate(0 -11.642)"/></g><path fill="#100e0c" d="M234.946 145.271v3.171c.344.184.698.357 1.049.531v-3.188a36 36 0 0 1-1.049-.514m1.845.88v3.199c.346.159.693.321 1.048.472v-3.229q-.527-.213-1.048-.442m1.842.765v3.226q.52.21 1.049.402v-3.251a35 35 0 0 1-1.049-.377m1.845.651v3.26q.521.177 1.048.337v-3.267q-.526-.158-1.048-.33m1.842.557v3.287c.347.098.7.188 1.049.28v-3.285c-.351-.088-.7-.186-1.049-.282m1.845.465v3.302q.522.123 1.049.235v-3.302c-.353-.072-.7-.153-1.049-.235m1.845.381v3.31c.346.068.695.135 1.048.192v-3.318c-.353-.055-.702-.12-1.048-.183m2.155.343-.344.718v2.551c.349.051.696.103 1.049.146v-3.326a54 54 0 0 1-.706-.089m1.496.169v3.324q.523.056 1.049.098v-3.33c-.351-.024-.7-.059-1.049-.091m1.841.14v3.33c.348.018.696.038 1.048.051v-3.333q-.526-.02-1.048-.048m2.503.077c-.224 0-.442-.01-.665-.014v3.332c.222.005.443.015.665.015.129 0 .256-.007.383-.009v-3.332c-.127.002-.254.008-.383.008m1.175-.022v3.33q.527-.012 1.049-.039v-3.33c-.349.019-.698.029-1.049.039m1.839-.086v3.33a40 40 0 0 0 1.051-.088v-3.324a50 50 0 0 1-1.051.082m1.841-.163v3.326c.352-.039.699-.086 1.048-.133v-3.32q-.523.072-1.048.127" style="stroke-width:.522373" transform="translate(0 -11.642)"/><path fill="#100e0c" d="M260.699 149.191v3.32c.351-.056.7-.121 1.049-.183v-3.313a37 37 0 0 1-1.049.176" style="display:inline;stroke-width:.522373" transform="translate(0 -11.642)"/><path fill="#100e0c" d="M262.538 148.871v3.311c.353-.073.699-.155 1.049-.234v-3.3q-.524.118-1.049.223m1.84-.402v3.291q.527-.134 1.049-.281v-3.286c-.349.094-.696.19-1.049.276m1.839-.49v3.267c.351-.106.703-.21 1.048-.325v-3.273c-.346.115-.693.229-1.048.331m1.84-.587v3.248q.528-.187 1.049-.39v-3.238q-.52.195-1.049.38m1.839-.688v3.226q.531-.221 1.049-.457v-3.199c-.345.15-.696.288-1.049.429m1.84-.791v3.199q.53-.255 1.049-.53v-3.169a40 40 0 0 1-1.049.5m1.839-.904v3.147q.534-.293 1.048-.6v-3.127a32 32 0 0 1-1.048.58m1.84-1.036v3.093c.358-.227.704-.461 1.049-.698v-3.052a36 36 0 0 1-1.049.657m1.841-1.194v3.028a33 33 0 0 0 1.049-.802v-2.98q-.518.387-1.049.754m1.838-1.353v2.926q.536-.457 1.049-.939v-2.86q-.516.447-1.049.873m1.841-1.588v2.799q.54-.543 1.049-1.117v-2.698q-.511.516-1.049 1.016m2.89-3.066q-.51.621-1.05 1.218v2.599q.546-.673 1.05-1.378zm.789-1.015v2.273q.566-.9 1.049-1.846v-1.947a26 26 0 0 1-1.049 1.52m1.841-2.834v1.557a23 23 0 0 0 1.049-3.169v-.467a26 26 0 0 1-1.049 2.079m-38.634 17.11.343-.718q-.17-.026-.343-.05zm-29.363-23.448h1.033v-5.393h-1.033zm70.023 0h1.032v-5.393h-1.032z" style="stroke-width:.522373" transform="translate(0 -11.642)"/><g clip-path="url(#e)"><path d="M495.735 255.328h4.348v-22.121h-4.348z" style="fill:#7adfa9;fill-opacity:1;fill-rule:nonzero;stroke:none;stroke-width:.329615"/><path d="m495.735 265.998-6.673 6.673h-7.469v4.349h8.959l9.531-9.53v-8.89h-4.348z" style="fill:#7adfa9;fill-opacity:1;fill-rule:nonzero;stroke:none"/><path d="M12.27 207.815H7.924v22.12h4.348zm0-76.179H7.924v22.122h4.348zm0 25.394H7.924v22.12h4.348zm0-50.785H7.924v22.119h4.348zm0 76.177H7.924v22.121h4.348zm123.203 94.598h23.153v-4.349h-23.153zm-53.161 0h23.156v-4.349H82.312Zm26.58 0h23.156v-4.349h-23.156zm79.74 0h23.153v-4.349h-23.153zm-26.58 0h23.155v-4.349h-23.156zm53.159 0h23.155v-4.349h-23.155zm26.58 0h23.153v-4.349h-23.152zm-186.057 0h23.153v-4.349H55.734zm-26.581 0h23.155v-4.349H29.152Zm318.922 0h23.153v-4.349h-23.152zm-53.161 0h23.156v-4.349h-23.156zm26.58 0h23.156v-4.349h-23.156zm79.74 0h23.154v-4.349h-23.153zm-26.58 0h23.156v-4.349h-23.156zm53.159 0h23.155v-4.349h-23.155zm26.58 0h23.154v-4.349h-23.153zm-186.058 0h23.154v-4.349h-23.153zM135.473 13.078h23.153V8.731h-23.153zm-53.161 0h23.156V8.731H82.312Zm26.58 0h23.156V8.731h-23.156zm79.74 0h23.153V8.731h-23.153zm-26.58 0h23.155V8.731h-23.156zm53.159 0h23.155V8.731h-23.155zm26.58 0h23.153V8.731h-23.152zm-186.057 0h23.153V8.731H55.734zm-26.581 0h23.155V8.731H29.152Zm318.922 0h23.153V8.731h-23.152zm-53.161 0h23.156V8.731h-23.156zm26.58 0h23.156V8.731h-23.156zm79.74 0h23.154V8.731h-23.153zm-26.58 0h23.156V8.731h-23.156zm53.159 0h23.155V8.731h-23.155zm26.58 0h23.154V8.731h-23.153zm-186.058 0h23.154V8.731h-23.153z" style="fill:#7adfa9;fill-opacity:1;fill-rule:nonzero;stroke:none;stroke-width:.329615"/><path d="m18.944 272.671-6.673-6.673V258.6H7.923v8.89l9.53 9.53h8.428v-4.349z" style="fill:#7adfa9;fill-opacity:1;fill-rule:nonzero;stroke:none"/><path d="M12.27 233.207H7.924v22.121h4.348zm483.465-79.449h4.348v-22.122h-4.348zM12.27 30.066H7.924v22.12h4.348z" style="fill:#7adfa9;fill-opacity:1;fill-rule:nonzero;stroke:none;stroke-width:.329615"/><path d="m12.27 19.787 6.674-6.673h6.937V8.767h-8.427l-9.531 9.53v8.497h4.348z" style="fill:#7adfa9;fill-opacity:1;fill-rule:nonzero;stroke:none"/><path d="M12.27 80.851H7.924v22.122h4.348zm483.465 123.692h4.348v-22.121h-4.348zm0 25.171h4.348v-22.121h-4.348zm0-101.35h4.348v-22.119h-4.348zm0-25.857h4.348V80.386h-4.348zm0-25.393h4.348v-22.12h-4.348zm0 102.036h4.348v-22.12h-4.348z" style="fill:#7adfa9;fill-opacity:1;fill-rule:nonzero;stroke:none;stroke-width:.329615"/><path d="m489.062 13.114 6.673 6.673v7.007h4.348v-8.498l-9.531-9.53h-8.959v4.348z" style="fill:#7adfa9;fill-opacity:1;fill-rule:nonzero;stroke:none"/><path d="M495.735 52.187h4.348v-22.12h-4.348zM12.27 55.46H7.924v22.12h4.348z" style="fill:#7adfa9;fill-opacity:1;fill-rule:nonzero;stroke:none;stroke-width:.329615"/></g><g fill="#fff"><path d="M179.362 416.872h-.33v.495h.33c.16 0 .262-.098.262-.245 0-.148-.102-.25-.262-.25m.018.813h-.349v.682h-.353v-1.81h.702c.373 0 .598.257.598.565s-.225.563-.598.563m1.71-.813h-.334v.478h.334c.154 0 .256-.099.256-.24 0-.139-.102-.238-.256-.238m.274 1.495-.354-.722h-.254v.722h-.354v-1.81h.71c.37 0 .587.252.587.554a.49.49 0 0 1-.33.475l.404.781zm.83 0v-1.81h1.192v.315h-.84v.425h.716v.315h-.715v.44h.839v.315zm2.163.016c-.274 0-.482-.06-.66-.24l.229-.229c.114.114.269.153.437.153.21 0 .32-.079.32-.223q.001-.098-.056-.153c-.035-.033-.075-.051-.16-.064l-.219-.03a.62.62 0 0 1-.35-.15.48.48 0 0 1-.13-.356c0-.324.24-.55.63-.55.25 0 .43.062.585.211l-.223.222c-.115-.11-.252-.125-.371-.125-.189 0-.28.105-.28.229 0 .045.015.095.054.13a.3.3 0 0 0 .167.07l.213.031c.166.023.27.069.346.14.097.092.14.224.14.384 0 .351-.293.55-.672.55m1.133-.016v-1.81h1.192v.315h-.838v.425h.714v.315h-.714v.44h.838v.315zm2.737 0-.717-1.112v1.112h-.354v-1.81h.316l.716 1.109v-1.11h.354v1.811zm1.557-1.495v1.495h-.354v-1.495h-.473v-.315h1.3v.315zm.887 1.495v-1.81h1.192v.315h-.837v.425h.713v.315h-.713v.44h.837v.315zm2.551-1.383c-.06-.075-.142-.112-.264-.112h-.266v1.18h.266c.122 0 .204-.039.264-.112.066-.081.076-.21.076-.486 0-.274-.01-.389-.076-.47m.247 1.21a.66.66 0 0 1-.478.173h-.653v-1.81h.653c.189 0 .358.053.478.173.204.203.183.452.183.724 0 .273.02.537-.183.74m2.111-.587h-.368v.445h.368c.161 0 .237-.102.237-.223 0-.123-.076-.222-.237-.222m-.022-.735h-.346v.416h.346c.149 0 .233-.082.233-.208 0-.124-.084-.208-.233-.208m.058 1.495h-.758v-1.81h.728c.352 0 .559.198.559.508 0 .201-.132.33-.225.374a.42.42 0 0 1 .25.406c0 .34-.232.522-.554.522m1.734-.742v.742H197v-.742l-.544-1.068h.384l.337.73.334-.73h.384zm-40.093-13.243c1.048-2.293 4.239-9.8 4.913-11.264 0 0 3.363-.96 4.21 1.153 1.162 2.906-2.696 8.62-9.123 10.11m.45-14.803-1.792 3.74 2.136-.56c-.735 1.392-6.946 14.92-7.475 16.282 2.299-.135 10.38-1.714 13.396-3.863 3.008-2.111 6.715-5.555 7.035-10.6.182-2.863-1.298-8.089-13.3-5m50.521 8.44c-.264 2.685-3.728 5.411-6.24 5.656.528-.967 3.64-7.017 3.925-7.528.363.033 1.452.182 2 .808.253.29.356.638.315 1.064m-12-.158.067.16q.168.399.168.83c0 .925-.463 1.915-1.378 2.943-.926 1.068-1.842 1.61-2.723 1.61-.437 0-.938-.131-.938-1.154 0-1.136.46-2.377 1.37-3.689.955-1.39 1.969-2.134 2.997-2.213h.2c.742 0 1.19.25 1.365.762zm15.29-.854c.11-3.998-4.827-4.327-6.45-4.434l-.04-.003c-1.677-.112-3.67.274-5.147.964q-.885-.741-2.453-.743c-1.833 0-3.644.804-5.383 2.387-1.551 1.392-2.713 3.025-3.453 4.854a10.4 10.4 0 0 0-.495 1.573l-2.563-.64-.076.148c-.164.328-.365.63-.6.897-.235.27-.509.521-.81.749-.653.482-1.315.727-1.971.727-.37 0-.793-.106-.793-.938 0-.62.185-1.36.547-2.2a9.3 9.3 0 0 1 1.556-2.52c.76-.858 1.571-1.334 2.391-1.411h.2c.661 0 1.084.265 1.294.808l.08.203 3.416-1.522-.02-.155c-.247-1.899-1.413-2.862-3.467-2.862-1.777 0-3.569.81-5.324 2.404-1.507 1.386-2.653 3.008-3.405 4.817a8.6 8.6 0 0 0-.707 3.163l-5.078.245.86-2.24 2.644-.147 1.168-2.719-2.676.146.928-2.403 4.303-.045 1.764-2.99h-9.31l-1.323 3.127 1.078-.022-4.578 10.88s2.573-.25 4.972-.4c2.125-.133 5.118-.169 5.118-.169l.458-1.342c.453.91 1.375 1.346 2.815 1.346 1.211 0 2.662-.146 4.244-1.23a11.5 11.5 0 0 0 1.772-1.531q.502-.538.926-1.15-.034.345-.034.68c0 1.037.255 1.87.762 2.477.537.618 1.345.93 2.4.93 1.687 0 3.413-.728 5.128-2.167 1.557-1.329 2.694-2.846 3.375-4.51.374-.924.564-1.723.564-2.373q-.001-.496-.133-1c.742-.3 1.91-.693 2.897-.676-.17.325-5.693 10.297-5.731 10.363l-.144.25.284.052c.054.01 1.114.2 2.868.2q.556.002 1.202-.028c3.82-.396 6.228-2.332 7.575-3.888 1.535-1.77 2.52-4.043 2.574-5.932" style="stroke-width:.352778" transform="translate(-24.23 -406.752)scale(1.474)"/><path d="m213.75 390.177-1.569 3.431 2.295-.016-5.861 13.453s3.315.098 6.457.355c2.657.217 5.222.6 5.222.6l1.313-3.454-7.49-.563 1.43-3.39 3.94.213 1.434-3.312-4.253-.2 1.578-3.686h6.294l1.203-3.4zm8.257 16.911-.844.022.004.18.315-.007.022.857.215-.006-.022-.857.314-.008zm.983-.025-.264.705h-.012l-.3-.69-.268.007.026 1.037.21-.006-.017-.677h.008l.284.666.143-.004.248-.677h.01l.017.675.21-.006-.026-1.037zm-25.839 20.805-2.745-1.006q.077-.257.18-.5l2.751 1.01q-.125.231-.186.496m12.103-1.402q.108.252.108.568 0 .32-.108.576-.107.255-.31.431a1.4 1.4 0 0 1-.492.272 2.2 2.2 0 0 1-.657.093h-.427v1.263h-1.01v-3.998h1.441q.364 0 .653.095.29.094.492.27.203.177.31.43m-.908.568q0-.562-.698-.562h-.28v1.135h.28q.698 0 .698-.573m-7.397.62a1.98 1.98 0 1 1-3.82.994l-2.746 1.007q.091.321.223.624l2.73-1-2.229 1.883q.213.299.465.56l2.083-1.761-1.36 2.381q.326.226.684.4l1.277-2.235-.445 2.543q.409.11.843.15l.417-2.378.416 2.379q.455-.038.883-.156l-.387-2.208 1.113 1.943a4.8 4.8 0 0 0 .862-.505l-1.023-1.782 1.564 1.32q.373-.369.664-.813l-1.396-1.178 1.71.627q.237-.495.364-1.042l-1.502-.55h1.596q.031-.275.032-.558 0-.33-.043-.645zm-3.212-.797-2.247-1.897a6 6 0 0 0-.296.355l2.24 1.895a2 2 0 0 1 .303-.353m-.637 1.456q.001-.165.026-.323h-2.923a5 5 0 0 0-.002.597h2.918q-.02-.134-.02-.274zm43.004-1.442a.96.96 0 0 0-.47.11.74.74 0 0 0-.308.31l-.01-.336h-.926v2.714h.947v-1.436q0-.252.102-.386.102-.135.303-.135.362 0 .362.485v1.472h.948v-1.651q0-.569-.24-.857-.24-.29-.708-.29m-39.916-.2 1.465-2.556a5 5 0 0 0-.24-.14l-1.467 2.556q.126.062.242.14m-1.912-.168-1.468-2.56q-.175.093-.342.198l1.466 2.558q.162-.115.344-.196m1.805-3.022a5 5 0 0 0-.292-.05l-.51 2.911q.149.016.292.051zm-1.183 2.86-.51-2.913a5 5 0 0 0-.325.057l.51 2.914q.158-.043.325-.058m1.78.802 2.237-1.89a5 5 0 0 0-.153-.187l-2.239 1.89q.082.087.154.187m28.412 1.112-.753-2.532h-.883l-.741 2.579-.6-2.631h-1.11l1.178 3.998h.958l.746-2.572.764 2.572h.956l1.184-3.998h-1.11zm3.762-1.384q-.252 0-.454.097a.76.76 0 0 0-.315.277v-1.574h-.947v3.998h.947v-1.436q0-.252.103-.386.103-.135.302-.135.364 0 .364.485v1.472h.947v-1.651q0-.569-.24-.857-.24-.29-.707-.29m1.523 2.798h.946v-2.714h-.946zm3.43-1.952.238-.762h-.883v-.7h-.947v.7h-.458v.762h.458v.97q0 1.066 1.025 1.067.242 0 .445-.04.202-.038.34-.098l-.096-.73a1 1 0 0 1-.42.079q-.195 0-.27-.101-.078-.099-.077-.342v-.805zm-2.958-2.203a.53.53 0 0 0-.379.145.48.48 0 0 0-.151.365q0 .215.151.36a.53.53 0 0 0 .38.146q.225 0 .378-.144a.47.47 0 0 0 .153-.362.48.48 0 0 0-.153-.365.53.53 0 0 0-.379-.145m-15.51 2.203.237-.762h-.883v-.7h-.948v.7h-1.167v-.7h-.947v.7h-.457v.762h.457v.97q0 1.066 1.025 1.067.243 0 .445-.04.204-.038.34-.098l-.096-.73a1 1 0 0 1-.42.079q-.195 0-.271-.101-.076-.099-.076-.342v-.805h1.167v.97q0 1.066 1.027 1.067.24 0 .445-.04a1.7 1.7 0 0 0 .339-.098l-.095-.73a1 1 0 0 1-.42.079q-.197 0-.272-.101-.076-.099-.076-.342v-.804zm26.966-.762-.521 1.446-.551-1.446h-1.037l1.115 2.56-.64 1.337h.96l1.69-3.897zm-32.396 0h.888v2.714h-.888l-.01-.31a.8.8 0 0 1-.33.292 1.04 1.04 0 0 1-.471.103 1.16 1.16 0 0 1-.889-.4 1.4 1.4 0 0 1-.255-.453 1.8 1.8 0 0 1-.092-.579 1.7 1.7 0 0 1 .095-.576q.095-.264.266-.46a1.2 1.2 0 0 1 .402-.304q.232-.111.5-.11.248 0 .45.104.202.105.324.295zm-.006 1.358q0-.27-.152-.434a.51.51 0 0 0-.395-.167.52.52 0 0 0-.397.167.6.6 0 0 0-.156.434q0 .266.156.432a.52.52 0 0 0 .397.167.51.51 0 0 0 .395-.167.6.6 0 0 0 .152-.432m30.265.24h-1.788q.142.464.79.464.172 0 .37-.044.197-.044.35-.11l.3.606a1.5 1.5 0 0 1-.497.21 2.46 2.46 0 0 1-1.29-.025 1.5 1.5 0 0 1-.515-.287 1.2 1.2 0 0 1-.325-.455 1.5 1.5 0 0 1-.115-.6q0-.322.104-.586.102-.267.292-.455a1.3 1.3 0 0 1 .449-.295 1.5 1.5 0 0 1 .576-.105q.305-.001.553.094.246.095.42.271t.266.426.092.567q0 .195-.032.325m-.851-.54a.55.55 0 0 0-.148-.334.43.43 0 0 0-.315-.119q-.401 0-.49.452zm-32.35-.993a.8.8 0 0 0-.272.34l-.011-.405h-.921v2.714h.947v-1.162q0-.72.552-.72a1 1 0 0 1 .348.067l.073-.895a.8.8 0 0 0-.31-.057q-.232 0-.406.118m12.81 1.97.595.679h-.994l-.158-.174q-.447.259-1.04.26-.648 0-1.028-.301a.98.98 0 0 1-.379-.81q0-.68.747-1.063-.325-.405-.325-.779a.86.86 0 0 1 .325-.686q.153-.124.361-.193a1.4 1.4 0 0 1 .444-.067q.238 0 .434.063a1 1 0 0 1 .338.18.84.84 0 0 1 .292.646q0 .589-.72.978l.578.657q.1-.262.1-.64h.794q0 .725-.363 1.25m-1.75-2.171a.4.4 0 0 0 .052.191q.052.097.19.25a.7.7 0 0 0 .233-.203.4.4 0 0 0 .071-.238.32.32 0 0 0-.069-.216.24.24 0 0 0-.194-.08.27.27 0 0 0-.205.082.3.3 0 0 0-.079.214m.72 2.145-.79-.888q-.257.196-.257.472 0 .238.166.37.165.13.455.13a.9.9 0 0 0 .426-.084m-35.436-.939a.54.54 0 0 0-.148-.335.44.44 0 0 0-.315-.118q-.403 0-.49.453zm.875 1.46q-.206.137-.498.212a2.47 2.47 0 0 1-1.29-.027 1.5 1.5 0 0 1-.518-.288 1.2 1.2 0 0 1-.328-.456 1.5 1.5 0 0 1-.113-.6q0-.322.104-.588.101-.266.292-.456.19-.188.45-.296.261-.105.578-.105.306 0 .554.095t.421.272q.173.175.266.427.093.25.093.566 0 .195-.032.327h-1.793q.143.464.791.464.174 0 .372-.045.198-.044.35-.108zm-2.873.027a1.4 1.4 0 0 1-.436.185 2.07 2.07 0 0 1-1.14-.038 1.23 1.23 0 0 1-.769-.736 1.6 1.6 0 0 1-.101-.586q0-.322.11-.589.112-.267.308-.456a1.4 1.4 0 0 1 .474-.295q.279-.106.61-.106.464 0 .77.153l-.121.802a.9.9 0 0 0-.264-.084 2 2 0 0 0-.264-.026q-.316 0-.498.157a.55.55 0 0 0-.182.432q0 .279.182.436.183.155.514.156.1 0 .232-.022.132-.02.233-.058zm-4.219-.586a.52.52 0 0 0 .396-.165.62.62 0 0 0 .153-.436.6.6 0 0 0-.153-.434.51.51 0 0 0-.396-.166.52.52 0 0 0-.398.166.6.6 0 0 0-.154.434q-.001.269.154.436.157.165.398.165m-.257.845q-.275 0-.502-.106a1.15 1.15 0 0 1-.39-.295 1.4 1.4 0 0 1-.255-.453 1.7 1.7 0 0 1-.092-.58q0-.312.095-.578t.266-.462q.171-.195.402-.305.234-.111.502-.11.248 0 .45.104a.84.84 0 0 1 .324.296l.011-.317h.89v2.72h-.89l-.01-.31a.8.8 0 0 1-.33.293q-.21.103-.471.103m-3.037-.845a.52.52 0 0 0 .398-.165.62.62 0 0 0 .155-.436.6.6 0 0 0-.155-.434.52.52 0 0 0-.398-.166.51.51 0 0 0-.396.166.6.6 0 0 0-.153.434q0 .269.153.436.153.165.396.165m-1.445-1.96h.89l.012.31a.8.8 0 0 1 .329-.291q.21-.104.471-.104.274 0 .502.105.226.108.39.296.163.19.256.454.091.262.092.58 0 .311-.095.577a1.4 1.4 0 0 1-.266.46 1.2 1.2 0 0 1-.403.306 1.14 1.14 0 0 1-.5.112 1 1 0 0 1-.415-.088.8.8 0 0 1-.315-.24v1.43h-.948zm-1.45.606q-.289 0-.29.158 0 .084.085.134t.321.109q.496.12.714.343.22.22.22.59a.74.74 0 0 1-.32.638q-.318.227-.909.227-.315 0-.611-.072a1.4 1.4 0 0 1-.47-.193l.311-.563a2 2 0 0 0 .353.099q.195.037.36.037.34 0 .341-.162a.2.2 0 0 0-.015-.075.15.15 0 0 0-.06-.058 1 1 0 0 0-.124-.052 3 3 0 0 0-.2-.058 2.3 2.3 0 0 1-.425-.147 1 1 0 0 1-.288-.196.7.7 0 0 1-.164-.254 1 1 0 0 1-.052-.326q0-.412.309-.641.307-.23.857-.229.273 0 .54.058t.44.159l-.096.679a2 2 0 0 0-.41-.15 1.7 1.7 0 0 0-.416-.055m-3.043 1.402q.268 0 .43-.176a.68.68 0 0 0 .161-.473.67.67 0 0 0-.161-.468.55.55 0 0 0-.43-.18q-.27 0-.432.18a.66.66 0 0 0-.163.468q-.001.296.163.473a.56.56 0 0 0 .432.176m0 .797q-.327 0-.601-.109a1.4 1.4 0 0 1-.783-.76 1.5 1.5 0 0 1-.113-.577q0-.31.113-.574.113-.262.314-.46.2-.194.475-.302.273-.108.595-.108t.595.108q.275.109.476.3.2.192.311.459t.11.577q0 .312-.113.575-.113.265-.311.459-.197.195-.473.303a1.6 1.6 0 0 1-.595.109m-3.601-2.806h.923l.01.407a.8.8 0 0 1 .275-.34.7.7 0 0 1 .406-.12q.18 0 .311.059l-.074.896a1 1 0 0 0-.349-.067q-.551-.002-.552.721v1.165h-.95zm-1.334 1.06a.54.54 0 0 0-.147-.335.43.43 0 0 0-.316-.118q-.401 0-.49.453zm.875 1.46a1.6 1.6 0 0 1-.497.212 2.47 2.47 0 0 1-1.293-.027 1.5 1.5 0 0 1-.517-.288 1.24 1.24 0 0 1-.326-.456 1.5 1.5 0 0 1-.113-.6q0-.322.103-.588.102-.265.292-.456.19-.19.45-.296.261-.105.578-.105.306 0 .554.095t.422.272q.173.175.266.427.093.25.092.566 0 .195-.032.327h-1.792q.142.464.79.464.174 0 .373-.045.196-.045.35-.108zm-4.502-1.529-.459-1.366-.459 1.366zm-.97-2.278h1.097l1.57 4.008h-1.113l-.31-.922h-1.46l-.306.922h-1.049zm-3.843 1.894q-.29 0-.291.158 0 .084.085.134t.321.109q.497.12.714.343.22.22.22.59a.74.74 0 0 1-.32.638q-.32.227-.909.227a2.6 2.6 0 0 1-.611-.072 1.4 1.4 0 0 1-.47-.193l.311-.563q.158.063.354.099t.359.037q.34 0 .341-.162a.2.2 0 0 0-.015-.075.15.15 0 0 0-.06-.058 1 1 0 0 0-.125-.052 3 3 0 0 0-.2-.058 2.3 2.3 0 0 1-.424-.147 1 1 0 0 1-.288-.196.7.7 0 0 1-.164-.254 1 1 0 0 1-.052-.326q0-.412.308-.641t.858-.229q.273 0 .54.058t.44.159l-.096.679a2 2 0 0 0-.41-.15 1.7 1.7 0 0 0-.416-.055m-4.334-.607h.927l.011.338a.74.74 0 0 1 .309-.312.96.96 0 0 1 .471-.11q.47 0 .71.29t.24.86v1.655h-.95v-1.476q0-.486-.364-.485-.2 0-.303.133-.103.136-.102.389v1.439h-.95zm-1.562 0h.95v2.72h-.95zm.476-.427a.53.53 0 0 1-.38-.145.48.48 0 0 1-.154-.36q0-.222.153-.367a.53.53 0 0 1 .38-.145.53.53 0 0 1 .38.145q.153.145.153.366a.48.48 0 0 1-.153.364.54.54 0 0 1-.38.142m-2.104-.86h.95v4.008h-.95zm-1.549 0h.949v4.008h-.949zm-1.893 3.296q.27 0 .43-.176a.68.68 0 0 0 .161-.473.67.67 0 0 0-.161-.468.55.55 0 0 0-.43-.18q-.269 0-.431.18a.67.67 0 0 0-.164.468.67.67 0 0 0 .164.473.56.56 0 0 0 .431.176m0 .797q-.326 0-.6-.12a1.47 1.47 0 0 1-.794-.798 1.5 1.5 0 0 1-.113-.585q0-.31.115-.567.117-.256.317-.438a1.4 1.4 0 0 1 .477-.283q.277-.099.598-.099.322 0 .597.108.273.109.474.3.2.192.311.459t.11.577a1.44 1.44 0 0 1-.424 1.034c-.13.13-.29.231-.471.303a1.6 1.6 0 0 1-.597.109m-1.73-.464a2 2 0 0 1-.653.326q-.374.111-.796.11-.485 0-.867-.136a1.8 1.8 0 0 1-.652-.398 1.7 1.7 0 0 1-.41-.644 2.5 2.5 0 0 1-.142-.872q-.001-.46.16-.838a1.93 1.93 0 0 1 1.143-1.08q.404-.154.89-.155.172 0 .355.025.182.023.354.069a3 3 0 0 1 .324.105q.153.059.274.13l-.433.82-.21-.093a1.4 1.4 0 0 0-.374-.109 2 2 0 0 0-.227-.012q-.544 0-.855.303-.31.302-.31.83 0 .254.076.458.076.206.22.353.141.149.345.23t.455.081q.243 0 .464-.08.222-.083.427-.231zm-11.713-5.82q.162-.035.326-.058l.51 2.92q-.165.016-.324.057zm-.13 3.222q.16-.116.344-.197l-1.472-2.567a4 4 0 0 0-.342.2zm-.836 1.616q0-.164.028-.323h-2.93a5 5 0 0 0 0 .599h2.922a2 2 0 0 1-.02-.276m3.972 0a1.985 1.985 0 0 1-3.942.337l-2.752 1.008q.091.323.224.626l2.736-1.002-2.234 1.888q.214.3.466.562l2.087-1.765-1.361 2.385q.325.229.685.401l1.279-2.24-.447 2.55q.412.112.846.15l.418-2.385.417 2.386q.457-.039.885-.156l-.387-2.213 1.116 1.947q.46-.21.863-.507l-1.024-1.786 1.567 1.324q.376-.37.667-.816l-1.402-1.18 1.714.628q.24-.496.366-1.045l-1.505-.55h1.598q.032-.277.033-.56a5 5 0 0 0-.044-.647h-2.982q.111.312.113.66m-3.92-.446q.062-.264.187-.498l-2.757-1.011q-.105.245-.18.5zm5.626-2.809-2.245 1.897a2 2 0 0 1 .155.184l2.243-1.894a5 5 0 0 0-.153-.187m-1.112-.952a5 5 0 0 0-.241-.142l-1.47 2.563q.126.063.242.14zm-3.926 2.75-2.252-1.902a5 5 0 0 0-.297.355l2.246 1.9q.131-.196.303-.354m1.545-.516q.15.015.293.05l.512-2.918a5 5 0 0 0-.294-.052z" style="stroke-width:.352778" transform="translate(-24.23 -406.752)scale(1.474)"/></g></svg>