<svg xmlns="http://www.w3.org/2000/svg" width="420.765" height="167.361" viewBox="0 0 315.574 125.521"><defs><clipPath id="a"><path d="M172 351h143.602v27H172Zm0 0"/></clipPath></defs><path fill="#fff" d="M131.46 80.048h-.937v1.407h.938c.453 0 .742-.282.742-.7s-.289-.707-.742-.707m.052 2.309h-.989v1.93h-1v-5.133h1.989c1.058 0 1.691.73 1.691 1.6 0 .872-.633 1.603-1.691 1.603m4.842-2.31h-.94v1.357h.94c.442 0 .73-.281.73-.676 0-.398-.288-.68-.73-.68m.782 4.239-1.004-2.047h-.719v2.047h-1.004v-5.133h2.012c1.047 0 1.664.715 1.664 1.574 0 .719-.438 1.164-.938 1.348l1.149 2.21zm2.351 0v-5.133h3.38v.894h-2.38v1.203h2.024v.895h-2.024v1.246h2.38v.895zm6.133.043c-.777 0-1.367-.164-1.871-.676l.648-.653c.325.329.762.434 1.239.434.59 0 .91-.223.91-.633a.6.6 0 0 0-.16-.433c-.102-.094-.215-.145-.453-.18l-.621-.086c-.442-.066-.762-.203-.997-.426-.242-.246-.367-.574-.367-1.008 0-.914.68-1.558 1.79-1.558.706 0 1.218.176 1.656.598l-.633.628c-.325-.308-.715-.351-1.051-.351-.535 0-.797.293-.797.644 0 .133.047.27.152.37.102.095.27.173.477.2l.605.087c.47.066.762.195.98.398.274.258.395.633.395 1.09 0 .992-.828 1.555-1.902 1.555m3.211-.043v-5.133h3.379v.894h-2.375v1.203h2.023v.895h-2.023v1.246h2.375v.895zm7.758 0-2.035-3.15v3.15h-1v-5.133h.894l2.031 3.144v-3.144h1v5.133zm4.414-4.24v4.24H160v-4.24h-1.34v-.893h3.684v.894zm2.516 4.24v-5.133h3.378v.894h-2.378v1.203h2.027v.895h-2.027v1.246h2.378v.895zm7.23-3.922c-.172-.207-.402-.317-.75-.317h-.758v3.344H170c.348 0 .578-.11.75-.316.188-.23.215-.598.215-1.375 0-.782-.028-1.102-.215-1.336m.7 3.43c-.34.34-.821.492-1.356.492h-1.852v-5.133h1.852c.535 0 1.015.152 1.355.492.574.578.52 1.28.52 2.055 0 .77.054 1.52-.52 2.093m5.985-1.663h-1.043v1.26h1.043c.453 0 .671-.288.671-.632 0-.347-.218-.63-.671-.63m-.067-2.082h-.976v1.184h.976c.426 0 .664-.238.664-.594 0-.351-.238-.59-.664-.59m.168 4.239h-2.148v-5.133h2.062c1 0 1.586.562 1.586 1.445 0 .567-.375.934-.637 1.059.313.14.707.465.707 1.152 0 .957-.656 1.477-1.57 1.477m4.918-2.105v2.106h-.996V82.18l-1.543-3.027h1.09l.957 2.07.945-2.07h1.09zM70.797 44.64c2.976-6.5 12.02-27.772 13.93-31.93 0 0 9.535-2.721 11.933 3.27 3.297 8.239-7.64 24.435-25.863 28.66m1.277-41.96-5.082 10.6 6.055-1.584c-2.078 3.945-19.684 42.293-21.184 46.156 6.516-.383 29.422-4.86 37.973-10.953 8.527-5.984 19.031-15.742 19.941-30.047.516-8.113-3.68-22.93-37.703-14.172m143.211 23.922c-.746 7.61-10.566 15.336-17.687 16.03 1.496-2.741 10.316-19.89 11.125-21.335 1.03.09 4.117.512 5.668 2.29.718.82 1.011 1.804.894 3.015m-34.015-.445.19.449a6 6 0 0 1 .477 2.35c0 2.626-1.312 5.43-3.906 8.345-2.629 3.028-5.222 4.563-7.719 4.563-1.238 0-2.664-.371-2.664-3.27 0-3.222 1.309-6.738 3.887-10.457 2.707-3.937 5.578-6.05 8.496-6.27h.567c2.105 0 3.375.708 3.87 2.157zm43.34-2.426c.316-11.328-13.684-12.262-18.282-12.57l-.113-.008c-4.754-.317-10.403.777-14.59 2.734-1.672-1.394-3.992-2.105-6.953-2.105-5.195 0-10.328 2.277-15.258 6.765-4.398 3.946-7.695 8.575-9.789 13.758a29.4 29.4 0 0 0-1.402 4.46l-7.27-1.815-.21.425a12 12 0 0 1-1.7 2.54 15.5 15.5 0 0 1-2.3 2.12c-1.848 1.372-3.727 2.067-5.59 2.067-1.044 0-2.243-.305-2.243-2.664 0-1.758.52-3.856 1.55-6.234 1.145-2.704 2.63-5.106 4.411-7.145 2.152-2.434 4.453-3.777 6.777-4h.567c1.875 0 3.074.75 3.668 2.29l.226.577 9.68-4.312-.055-.438c-.699-5.386-4.004-8.117-9.824-8.117-5.039 0-10.117 2.293-15.094 6.813-4.27 3.93-7.52 8.53-9.652 13.656-1.25 2.918-1.922 5.93-2.004 8.965l-14.394.695 2.441-6.352 7.492-.414 3.313-7.707-7.586.414 2.625-6.808 12.203-.13 5-8.48h-26.39l-3.75 8.868 3.05-.063-12.973 30.84s7.293-.707 14.09-1.133c6.024-.38 14.512-.476 14.512-.476l1.297-3.805c1.285 2.578 3.898 3.812 7.98 3.812 3.434 0 7.547-.414 12.032-3.488a32.6 32.6 0 0 0 5.023-4.34 29 29 0 0 0 2.625-3.258 20 20 0 0 0-.098 1.926c0 2.942.723 5.305 2.16 7.024 1.524 1.75 3.813 2.636 6.805 2.636 4.781 0 9.668-2.066 14.531-6.144 4.418-3.766 7.637-8.067 9.57-12.781 1.06-2.622 1.598-4.883 1.598-6.73 0-.93-.129-1.884-.375-2.837 2.102-.847 5.414-1.96 8.211-1.914-.48.926-16.136 29.188-16.246 29.375l-.406.707.805.149c.148.027 3.156.574 8.125.574q1.581 0 3.41-.086c10.828-1.121 17.656-6.61 21.472-11.016 4.352-5.02 7.145-11.465 7.297-16.82"/><path fill="#fff" d="m230.938 4.376-4.446 9.73 6.504-.05-16.613 38.137s9.398.28 18.3 1.008c7.536.613 14.805 1.695 14.805 1.695l3.723-9.785-21.23-1.598 4.05-9.61 11.172.606 4.063-9.39-12.055-.57 4.473-10.442h17.84l3.41-9.645zm23.406 47.938-2.39.062.01.512.891-.02.063 2.426.61-.015-.063-2.426.89-.023zm2.789-.07-.75 1.996-.035.004-.852-1.957-.758.02.075 2.94.597-.015-.05-1.922h.023l.804 1.887.407-.012.703-1.918h.023l.051 1.914.598-.015-.074-2.938z"/><g clip-path="url(#a)" transform="translate(0 -252.48)"><path fill="#fff" d="m180.402 363.559-7.398-2.711q.212-.687.488-1.344l7.414 2.719a5.2 5.2 0 0 0-.504 1.336m32.61-3.778q.293.68.293 1.531a3.9 3.9 0 0 1-.293 1.555 3.1 3.1 0 0 1-.836 1.16 3.75 3.75 0 0 1-1.324.73c-.52.173-1.11.255-1.774.255h-1.148v3.402h-2.72v-10.773h3.884q.978 0 1.758.257c.52.168.96.414 1.324.73q.546.475.836 1.153m-2.446 1.531q-.001-1.516-1.882-1.515h-.754v3.062h.754q1.881 0 1.882-1.546m-19.933 1.672a5.335 5.335 0 0 1-5.031 7.114 5.34 5.34 0 0 1-5.262-4.438l-7.395 2.715q.245.868.602 1.684l7.351-2.7-6 5.079q.57.804 1.25 1.507l5.61-4.742-3.66 6.41a13 13 0 0 0 1.84 1.082l3.44-6.027-1.198 6.855c.734.2 1.496.336 2.273.403l1.121-6.406 1.121 6.41a13 13 0 0 0 2.38-.422l-1.044-5.945 3.004 5.234a13 13 0 0 0 2.32-1.363l-2.757-4.797 4.214 3.554a13.2 13.2 0 0 0 1.79-2.191l-3.762-3.176 4.605 1.688a13.2 13.2 0 0 0 .98-2.805l-4.042-1.48h4.297c.054-.497.086-.997.086-1.504 0-.59-.043-1.168-.118-1.739zm-8.653-2.144-6.05-5.113q-.423.457-.797.957l6.035 5.101c.234-.344.508-.664.812-.945m-1.714 3.918c0-.293.023-.586.07-.867h-7.875q-.025.41-.027.832c0 .257.007.52.023.777h7.86a5 5 0 0 1-.051-.742m115.87-3.883c-.48 0-.906.098-1.269.297a2 2 0 0 0-.828.836l-.027-.906h-2.496v7.312h2.55v-3.871q.001-.675.278-1.04.276-.362.816-.362.977.002.977 1.304v3.97h2.55v-4.45q0-1.531-.644-2.313-.646-.779-1.906-.777m-107.55-.54 3.945-6.882a13 13 0 0 0-.644-.383l-3.953 6.89q.337.165.652.376m-5.152-.452-3.957-6.899c-.313.168-.622.348-.918.54l3.949 6.89a5 5 0 0 1 .926-.531m4.863-8.14a13 13 0 0 0-.79-.138l-1.374 7.844q.406.041.789.14zm-3.188 7.702-1.375-7.847q-.444.063-.875.156l1.375 7.848a5 5 0 0 1 .875-.157m4.793 2.16 6.032-5.093a10 10 0 0 0-.414-.5l-6.032 5.093q.222.236.414.5m76.559 2.997-2.027-6.817h-2.383l-2 6.945-1.613-7.09h-2.993l3.176 10.774h2.578l2.016-6.93 2.055 6.93h2.578l3.187-10.773h-2.988zm10.133-3.727q-.68-.001-1.219.262-.54.261-.852.746v-4.242h-2.55v10.773h2.55v-3.871c0-.45.09-.797.278-1.04.183-.241.457-.362.812-.362q.98.002.98 1.304v3.97h2.552v-4.45q0-1.531-.645-2.313-.645-.779-1.906-.777m4.101 7.54h2.551v-7.313h-2.55zm9.25-5.259.637-2.054H288.2v-1.887h-2.55v1.887h-1.235v2.054h1.234v2.61q0 2.876 2.766 2.875.65 0 1.195-.106c.368-.07.672-.16.914-.262l-.253-1.968c-.16.062-.332.117-.516.156q-.276.054-.617.055-.527 0-.73-.27-.207-.27-.208-.922v-2.168zm-7.972-5.937q-.612 0-1.024.386-.41.392-.41.989 0 .58.41.969.412.39 1.024.39.609-.001 1.02-.383.41-.383.41-.976 0-.597-.41-.989-.411-.386-1.02-.386m-41.793 5.937.64-2.054h-2.382v-1.887h-2.551v1.887h-3.149v-1.887h-2.55v1.887h-1.235v2.054h1.234v2.61q0 2.876 2.766 2.875.65 0 1.195-.106c.368-.07.668-.16.915-.262l-.254-1.968c-.16.062-.332.117-.516.156q-.276.054-.617.055-.527 0-.73-.27-.207-.27-.208-.922v-2.168h3.149v2.61q.001 2.876 2.761 2.875.656 0 1.2-.106c.363-.07.668-.16.914-.262l-.254-1.968a3 3 0 0 1-.52.156 3.3 3.3 0 0 1-.617.055q-.522 0-.726-.27-.207-.27-.208-.922v-2.168zm72.656-2.054L311.434 365l-1.489-3.898h-2.789l3 6.898-1.719 3.602h2.583l4.554-10.5zm-87.285 0h2.394v7.312h-2.394l-.031-.836a2.15 2.15 0 0 1-.883.785 2.8 2.8 0 0 1-1.27.278q-.738 0-1.347-.282a3.1 3.1 0 0 1-1.047-.793 3.9 3.9 0 0 1-.692-1.222 4.7 4.7 0 0 1-.246-1.559q.001-.834.254-1.55.257-.715.719-1.243a3.4 3.4 0 0 1 1.082-.82c.418-.2.863-.297 1.347-.297q.668 0 1.211.281c.364.192.657.453.872.797zm-.016 3.656q0-.721-.414-1.168-.406-.45-1.059-.45-.654 0-1.07.45-.422.446-.422 1.168 0 .72.422 1.172.416.445 1.07.445.653 0 1.06-.445.414-.452.413-1.172m81.547.652h-4.82q.382 1.247 2.129 1.246.462 0 .996-.12a5.6 5.6 0 0 0 .941-.29l.809 1.629a4.2 4.2 0 0 1-1.336.566q-.791.2-1.64.2-1.018-.001-1.837-.266a4.1 4.1 0 0 1-1.387-.773 3.34 3.34 0 0 1-.878-1.227 4.1 4.1 0 0 1-.305-1.617q.001-.861.277-1.582a3.5 3.5 0 0 1 .785-1.223 3.6 3.6 0 0 1 1.211-.797 4.1 4.1 0 0 1 1.551-.281q.826.001 1.488.254a3.1 3.1 0 0 1 1.137.73q.469.476.715 1.149.251.674.25 1.523c0 .352-.031.64-.086.88m-2.297-1.46q-.072-.581-.394-.9-.33-.32-.852-.32-1.08 0-1.32 1.22zm-87.16-2.673a2.14 2.14 0 0 0-.738.914l-.028-1.09h-2.48v7.313h2.55v-3.133q0-1.94 1.489-1.941.227-.001.484.05a2.4 2.4 0 0 1 .453.133l.196-2.41a2.1 2.1 0 0 0-.832-.152q-.626 0-1.094.316m34.516 5.309 1.601 1.828h-2.68l-.425-.469c-.801.465-1.739.696-2.805.696q-1.746.002-2.766-.805-1.02-.814-1.02-2.184.001-1.829 2.013-2.863-.88-1.096-.88-2.098a2.31 2.31 0 0 1 .88-1.851 3 3 0 0 1 .972-.516 3.7 3.7 0 0 1 1.2-.183q.633-.002 1.167.168.533.17.907.488c.25.215.445.465.582.758q.206.44.207.98 0 1.589-1.946 2.637l1.563 1.77c.176-.473.27-1.047.27-1.727h2.136q.001 1.952-.976 3.37m-4.72-5.856q0 .257.142.52.14.262.511.672c.293-.18.5-.36.63-.543q.191-.28.19-.649 0-.365-.183-.578c-.121-.14-.297-.214-.524-.214a.74.74 0 0 0-.554.218.8.8 0 0 0-.211.574m1.942 5.786-2.125-2.395q-.696.523-.695 1.274 0 .638.445.992.446.356 1.227.355.708-.002 1.148-.226"/></g><path fill="#fff" d="M153.883 111.509c-.047-.39-.184-.691-.399-.902q-.329-.321-.851-.32c-.723 0-1.16.406-1.324 1.222zm2.355 3.934a4.2 4.2 0 0 1-1.34.566 6.5 6.5 0 0 1-1.64.203q-1.026 0-1.84-.273a4 4 0 0 1-1.395-.773 3.3 3.3 0 0 1-.878-1.23 4.1 4.1 0 0 1-.305-1.618q0-.867.273-1.582.281-.72.79-1.23.512-.51 1.214-.798a4.2 4.2 0 0 1 1.559-.28c.547 0 1.043.08 1.488.253q.668.257 1.137.73.467.48.719 1.153c.164.45.25.96.25 1.527 0 .352-.032.645-.086.883h-4.832c.257.832.964 1.246 2.132 1.246q.469 0 1-.117.534-.123.946-.293zm-7.742.07a3.8 3.8 0 0 1-1.172.496 5.3 5.3 0 0 1-1.355.172c-.645 0-1.215-.09-1.719-.27a3.5 3.5 0 0 1-1.277-.773 3.26 3.26 0 0 1-.797-1.207 4.4 4.4 0 0 1-.27-1.582c0-.582.102-1.11.297-1.586.2-.48.477-.887.832-1.23q.533-.511 1.278-.793a4.6 4.6 0 0 1 1.64-.285c.832 0 1.527.136 2.074.41l-.324 2.16a2.2 2.2 0 0 0-.71-.227 4.5 4.5 0 0 0-.712-.07q-.85-.002-1.344.426c-.324.28-.488.672-.488 1.164 0 .5.164.894.488 1.172q.493.42 1.387.418.271-.001.625-.055.357-.058.625-.156zm-11.363-1.578q.65 0 1.066-.445.41-.446.41-1.172 0-.727-.41-1.172-.416-.445-1.066-.445c-.438 0-.793.148-1.074.445q-.417.446-.418 1.172 0 .726.418 1.172t1.074.445m-.696 2.277q-.74-.001-1.351-.285a3.1 3.1 0 0 1-1.05-.797 3.7 3.7 0 0 1-.688-1.222 4.6 4.6 0 0 1-.25-1.56q.001-.843.254-1.557.256-.715.718-1.243a3.4 3.4 0 0 1 1.086-.824q.626-.298 1.352-.297c.445 0 .847.094 1.215.28q.546.289.875.798l.027-.851h2.398v7.328h-2.398l-.027-.84a2.2 2.2 0 0 1-.891.793 2.85 2.85 0 0 1-1.27.277m-8.183-2.277q.653 0 1.07-.445.422-.446.422-1.172 0-.727-.422-1.172c-.277-.297-.637-.445-1.07-.445-.438 0-.79.148-1.066.445q-.41.446-.41 1.172t.41 1.172c.277.297.628.445 1.066.445m-3.895-5.281h2.403l.027.836q.329-.51.89-.785a2.8 2.8 0 0 1 1.27-.278q.737 0 1.352.28a3.1 3.1 0 0 1 1.05.798q.442.509.688 1.223c.164.473.25.996.25 1.563q0 .839-.258 1.554c-.168.48-.41.895-.715 1.242a3.4 3.4 0 0 1-1.09.825q-.62.3-1.347.3a2.7 2.7 0 0 1-1.113-.234 2.25 2.25 0 0 1-.848-.648v3.85h-2.559zm-3.906 1.633q-.779-.001-.777.425-.001.23.226.364.23.136.868.289c.886.219 1.53.527 1.921.926q.591.592.59 1.59.001 1.108-.86 1.718c-.57.406-1.39.613-2.448.613q-.854-.002-1.649-.191-.797-.196-1.265-.52l.84-1.52q.426.17.953.27c.347.063.671.098.964.098.618 0 .922-.144.922-.441a.4.4 0 0 0-.043-.2.44.44 0 0 0-.16-.156 2 2 0 0 0-.336-.14 10 10 0 0 0-.539-.157 6.3 6.3 0 0 1-1.144-.398 2.7 2.7 0 0 1-.774-.524q-.3-.297-.441-.683a2.5 2.5 0 0 1-.14-.88q0-1.108.831-1.726c.555-.414 1.32-.617 2.309-.617a6.7 6.7 0 0 1 1.453.156c.48.102.875.247 1.187.426l-.254 1.832a5.5 5.5 0 0 0-1.109-.406 4.7 4.7 0 0 0-1.125-.148m-8.195 3.777q.726 0 1.16-.473.434-.478.434-1.273 0-.78-.434-1.266-.435-.48-1.16-.48c-.48 0-.871.16-1.164.48q-.44.486-.442 1.266.001.795.442 1.273.441.474 1.164.473m0 2.148a4.4 4.4 0 0 1-1.617-.293 3.9 3.9 0 0 1-1.274-.808 3.75 3.75 0 0 1-.836-1.238 3.9 3.9 0 0 1-.304-1.555 3.83 3.83 0 0 1 1.148-2.785q.54-.523 1.277-.817a4.4 4.4 0 0 1 1.606-.29q.867.002 1.605.29.737.292 1.282.813.537.515.835 1.234.298.716.297 1.555 0 .837-.304 1.55-.303.708-.836 1.235a3.8 3.8 0 0 1-1.274.816 4.3 4.3 0 0 1-1.605.293m-9.7-7.558h2.485l.027 1.094q.27-.598.739-.918c.312-.211.68-.32 1.093-.32.325 0 .602.054.84.156l-.199 2.418a2.3 2.3 0 0 0-.453-.137 2.7 2.7 0 0 0-.485-.047q-1.493 0-1.492 1.945v3.137h-2.554zm-3.593 2.855q-.076-.585-.399-.902-.329-.321-.851-.32-1.084-.001-1.324 1.222zm2.355 3.934a4.2 4.2 0 0 1-1.343.566 6.5 6.5 0 0 1-1.641.203q-1.02 0-1.84-.273a4 4 0 0 1-1.39-.773 3.3 3.3 0 0 1-.88-1.23 4.1 4.1 0 0 1-.308-1.618q.001-.867.277-1.582.281-.72.79-1.23.513-.51 1.214-.798a4.2 4.2 0 0 1 1.555-.28c.55 0 1.047.08 1.492.253q.667.257 1.137.73.467.48.719 1.153.246.676.246 1.527 0 .527-.082.883h-4.832c.257.832.964 1.246 2.132 1.246q.468 0 1-.117a6 6 0 0 0 .946-.293zm-12.132-4.122-1.235-3.68-1.238 3.68zm-2.614-6.137h2.957l4.23 10.797h-2.995l-.84-2.484h-3.934l-.824 2.484h-2.824zm-10.355 5.102q-.78-.001-.781.425c0 .153.078.274.226.364q.228.136.867.289 1.334.328 1.926.926c.39.394.59.925.59 1.59q.001 1.108-.86 1.718-.86.61-2.453.613a7 7 0 0 1-1.644-.191q-.797-.196-1.266-.52l.84-1.52a5.6 5.6 0 0 0 1.918.367c.613 0 .922-.143.922-.44a.5.5 0 0 0-.043-.2.4.4 0 0 0-.164-.156 2 2 0 0 0-.332-.14 11 11 0 0 0-.543-.157 6 6 0 0 1-1.14-.398 2.7 2.7 0 0 1-.774-.524q-.3-.297-.442-.683a2.5 2.5 0 0 1-.144-.88q0-1.108.832-1.726t2.308-.617q.738 0 1.458.156c.476.102.875.247 1.187.426l-.258 1.832a5.5 5.5 0 0 0-1.105-.406 4.7 4.7 0 0 0-1.125-.148m-11.676-1.633h2.5l.027.906c.192-.355.465-.637.832-.836.364-.2.79-.297 1.27-.297q1.266-.002 1.91.78.65.78.648 2.318v4.457h-2.558v-3.977q.002-1.304-.98-1.304c-.36 0-.63.117-.817.36q-.276.36-.277 1.046v3.875h-2.555zm-4.207 0h2.559v7.328h-2.56zm1.281-1.153c-.406 0-.75-.128-1.023-.39a1.28 1.28 0 0 1-.414-.973q.002-.596.414-.988c.273-.258.617-.39 1.023-.39q.608.002 1.024.39.41.392.41.988 0 .6-.41.98-.416.385-1.024.383m-5.668-2.316h2.559v10.797h-2.559zm-4.176 0h2.559v10.797h-2.559zm-5.101 8.879q.726 0 1.16-.473.434-.478.434-1.273 0-.78-.434-1.266-.434-.48-1.16-.48c-.48 0-.871.16-1.164.48q-.44.486-.442 1.266.001.795.442 1.273.441.474 1.164.473m0 2.148q-.879-.002-1.617-.32a4.1 4.1 0 0 1-1.285-.867 3.9 3.9 0 0 1-.856-1.285 4.1 4.1 0 0 1-.305-1.578q.001-.838.313-1.528a3.6 3.6 0 0 1 .851-1.18 3.9 3.9 0 0 1 1.29-.757 4.7 4.7 0 0 1 1.609-.27q.867 0 1.605.29a3.9 3.9 0 0 1 1.278.812c.363.344.64.754.84 1.234q.3.716.3 1.555-.002.837-.308 1.55-.303.708-.836 1.235a3.8 3.8 0 0 1-1.274.816 4.3 4.3 0 0 1-1.605.293m-4.66-1.253a5.2 5.2 0 0 1-1.758.882q-1.012.298-2.149.297-1.305.002-2.335-.367a4.8 4.8 0 0 1-1.754-1.074 4.6 4.6 0 0 1-1.11-1.735q-.382-1.027-.383-2.347 0-1.237.434-2.258c.29-.684.695-1.27 1.215-1.766a5.6 5.6 0 0 1 1.867-1.148q1.089-.41 2.395-.41.468 0 .96.062.487.066.95.184.46.122.875.285c.273.11.52.223.738.348l-1.164 2.214c-.211-.093-.398-.18-.57-.253a5 5 0 0 0-.496-.188 3.4 3.4 0 0 0-.512-.105 5 5 0 0 0-.61-.036q-1.465 0-2.304.817-.837.82-.836 2.238c0 .453.066.867.207 1.235q.204.555.59.953.38.399.93.617.546.222 1.226.222.656 0 1.25-.222a4.8 4.8 0 0 0 1.152-.617zm-31.559-15.68c.29-.063.578-.113.875-.153l1.379 7.868q-.452.04-.875.152zm-.355 8.683q.435-.312.93-.53l-3.966-6.92q-.476.253-.921.54zm-2.246 4.356q0-.445.07-.871H.027c-.015.277-.027.554-.027.832 0 .262.012.523.023.78h7.88a5 5 0 0 1-.051-.741m10.699 0a5.35 5.35 0 0 1-5.352 5.35 5.356 5.356 0 0 1-5.273-4.444l-7.414 2.719q.247.867.605 1.687l7.371-2.703-6.02 5.09q.576.803 1.255 1.512l5.625-4.758-3.668 6.43c.582.406 1.199.77 1.843 1.082l3.45-6.04-1.203 6.872c.738.199 1.5.336 2.28.402l1.122-6.422 1.128 6.427a13 13 0 0 0 2.383-.422l-1.047-5.96 3.011 5.245c.82-.375 1.602-.832 2.325-1.363l-2.762-4.812 4.223 3.566a13.5 13.5 0 0 0 1.796-2.2l-3.773-3.183 4.617 1.695c.43-.886.758-1.832.985-2.812l-4.055-1.484h4.308q.084-.745.086-1.512c0-.59-.043-1.168-.117-1.738h-8.035a5.3 5.3 0 0 1 .305 1.777m-10.563-1.203c.11-.473.282-.926.504-1.34l-7.43-2.727c-.187.442-.347.89-.488 1.352zm15.157-7.567-6.047 5.11q.223.235.418.5l6.043-5.11a12 12 0 0 0-.414-.5m-2.997-2.566a13 13 0 0 0-.644-.383l-3.969 6.906c.23.11.45.239.656.375zM9.57 108.388l-6.066-5.125a14 14 0 0 0-.8.96l6.054 5.114c.23-.347.508-.664.812-.95m4.164-1.393q.406.04.793.14l1.375-7.863a13 13 0 0 0-.789-.14z"/></svg>