<?xml version="1.0" encoding="UTF-8" standalone="no"?>
<svg
   xml:space="preserve"
   width="896"
   height="128"
   viewBox="0 0 237.06646 33.867077"
   version="1.1"
   id="svg12492"
   sodipodi:docname="bg_bar_division_lockup.svg"
   inkscape:version="1.2 (dc2aeda, 2022-05-15)"
   xmlns:inkscape="http://www.inkscape.org/namespaces/inkscape"
   xmlns:sodipodi="http://sodipodi.sourceforge.net/DTD/sodipodi-0.dtd"
   xmlns="http://www.w3.org/2000/svg"
   xmlns:svg="http://www.w3.org/2000/svg"><sodipodi:namedview
     id="namedview12494"
     pagecolor="#ffffff"
     bordercolor="#000000"
     borderopacity="0.25"
     inkscape:showpageshadow="2"
     inkscape:pageopacity="0.0"
     inkscape:pagecheckerboard="0"
     inkscape:deskcolor="#d1d1d1"
     showgrid="false"
     inkscape:zoom="0.73445286"
     inkscape:cx="731.8373"
     inkscape:cy="238.95339"
     inkscape:window-width="2331"
     inkscape:window-height="1281"
     inkscape:window-x="2658"
     inkscape:window-y="30"
     inkscape:window-maximized="0"
     inkscape:current-layer="svg12492" /><defs
     id="defs12392"><clipPath
       id="b"
       clipPathUnits="userSpaceOnUse"><path
         d="m 0.175,-18.875 h 507.65 v 285.4 H 0.175 Z"
         style="opacity:1;fill:#000000;fill-opacity:0;stroke:#ffab00;stroke-width:0.349688;stroke-dasharray:none;stroke-opacity:1"
         id="path12383" /></clipPath><clipPath
       id="a"
       clipPathUnits="userSpaceOnUse"><path
         d="m 0.175,-18.875 h 507.65 v 285.4 H 0.175 Z"
         style="opacity:1;fill:#000000;fill-opacity:0;stroke:#ffab00;stroke-width:0.349688;stroke-dasharray:none;stroke-opacity:1"
         id="path12386" /></clipPath><clipPath
       id="c"
       clipPathUnits="userSpaceOnUse"><path
         d="M 0,1020 H 1339.521 V 0 H 0 Z"
         id="path12389" /></clipPath><clipPath
       clipPathUnits="userSpaceOnUse"
       id="clipPath12968"><path
         d="M 0,1020 H 2489.918 V 0 H 0 Z"
         id="path12966" /></clipPath><clipPath
       clipPathUnits="userSpaceOnUse"
       id="clipPath13052"><path
         d="M 639.51,886.258 530.162,695.658 528.558,692.862 416.605,497.721 415.001,494.924 309.988,311.88 c -2.552,-4.447 -0.837,-8.364 0.021,-9.842 v 0 c 0.854,-1.478 3.399,-4.913 8.524,-4.913 v 0 h 659.045 c 5.125,0 7.667,3.437 8.525,4.915 v 0 c 0.854,1.478 2.572,5.395 0.021,9.84 v 0 l -105.014,183.044 -1.604,2.797 -111.954,195.141 -1.603,2.796 -109.349,190.6 c -2.562,4.468 -6.83,4.948 -8.544,4.948 v 0 c -1.716,0 -5.983,-0.48 -8.546,-4.948"
         id="path13050" /></clipPath><clipPath
       clipPathUnits="userSpaceOnUse"
       id="clipPath13076"><path
         d="M 0,1020 H 2489.918 V 0 H 0 Z"
         id="path13074" /></clipPath><clipPath
       clipPathUnits="userSpaceOnUse"
       id="clipPath568"><path
         d="M 0,0 H 6481.09 V 7174.23 H 0 Z"
         id="path566" /></clipPath><clipPath
       clipPathUnits="userSpaceOnUse"
       id="clipPath596"><path
         d="M 0,0 H 6481.09 V 7174.23 H 0 Z"
         id="path594" /></clipPath><clipPath
       clipPathUnits="userSpaceOnUse"
       id="clipPath921"><path
         d="M 1.8307085e-4,-9.4488179e-5 H 19766.301 V 8665.4 H 1.8307085e-4 Z"
         id="path923"
         style="stroke-width:0.999997" /></clipPath><clipPath
       clipPathUnits="userSpaceOnUse"
       id="clipPath917"><path
         d="M 1.8307085e-4,-9.4488179e-5 H 19766.301 V 8665.4 H 1.8307085e-4 Z"
         id="path919"
         style="stroke-width:0.999997" /></clipPath><clipPath
       clipPathUnits="userSpaceOnUse"
       id="clipPath913"><path
         d="M 1.8307085e-4,-9.4488179e-5 H 19766.301 V 8665.4 H 1.8307085e-4 Z"
         id="path915"
         style="stroke-width:0.999997" /></clipPath><clipPath
       clipPathUnits="userSpaceOnUse"
       id="clipPath909"><path
         d="M 1.8307085e-4,-9.4488179e-5 H 19766.301 V 8665.4 H 1.8307085e-4 Z"
         id="path911"
         style="stroke-width:0.999997" /></clipPath><clipPath
       clipPathUnits="userSpaceOnUse"
       id="clipPath905"><path
         d="M 1.8307085e-4,-9.4488179e-5 H 19766.301 V 8665.4 H 1.8307085e-4 Z"
         id="path907"
         style="stroke-width:0.999997" /></clipPath><clipPath
       clipPathUnits="userSpaceOnUse"
       id="clipPath901"><path
         d="M 1.8307085e-4,-9.4488179e-5 H 19766.301 V 8665.4 H 1.8307085e-4 Z"
         id="path903"
         style="stroke-width:0.999997" /></clipPath><clipPath
       clipPathUnits="userSpaceOnUse"
       id="clipPath897"><path
         d="M 1.8307085e-4,-9.4488179e-5 H 19766.301 V 8665.4 H 1.8307085e-4 Z"
         id="path899"
         style="stroke-width:0.999997" /></clipPath><clipPath
       clipPathUnits="userSpaceOnUse"
       id="clipPath893"><path
         d="M 1.8307085e-4,-9.4488179e-5 H 19766.301 V 8665.4 H 1.8307085e-4 Z"
         id="path895"
         style="stroke-width:0.999997" /></clipPath><clipPath
       clipPathUnits="userSpaceOnUse"
       id="clipPath889"><path
         d="M 1.8307085e-4,-9.4488179e-5 H 19766.301 V 8665.4 H 1.8307085e-4 Z"
         id="path891"
         style="stroke-width:0.999997" /></clipPath><clipPath
       clipPathUnits="userSpaceOnUse"
       id="clipPath885"><path
         d="M 1.8307085e-4,-9.4488179e-5 H 19766.301 V 8665.4 H 1.8307085e-4 Z"
         id="path887"
         style="stroke-width:0.999997" /></clipPath><clipPath
       clipPathUnits="userSpaceOnUse"
       id="clipPath881"><path
         d="M 1.8307085e-4,-9.4488179e-5 H 19766.301 V 8665.4 H 1.8307085e-4 Z"
         id="path883"
         style="stroke-width:0.999997" /></clipPath><clipPath
       clipPathUnits="userSpaceOnUse"
       id="clipPath877"><path
         d="M 1.8307085e-4,-9.4488179e-5 H 19766.301 V 8665.4 H 1.8307085e-4 Z"
         id="path879"
         style="stroke-width:0.999997" /></clipPath><clipPath
       clipPathUnits="userSpaceOnUse"
       id="clipPath873"><path
         d="M 1.8307085e-4,-9.4488179e-5 H 19766.301 V 8665.4 H 1.8307085e-4 Z"
         id="path875"
         style="stroke-width:0.999997" /></clipPath><clipPath
       clipPathUnits="userSpaceOnUse"
       id="clipPath869"><path
         d="M 1.8307085e-4,-9.4488179e-5 H 19766.301 V 8665.4 H 1.8307085e-4 Z"
         id="path871"
         style="stroke-width:0.999997" /></clipPath><clipPath
       clipPathUnits="userSpaceOnUse"
       id="clipPath865"><path
         d="M 1.8307085e-4,-9.4488179e-5 H 19766.301 V 8665.4 H 1.8307085e-4 Z"
         id="path867"
         style="stroke-width:0.999997" /></clipPath><clipPath
       clipPathUnits="userSpaceOnUse"
       id="clipPath861"><path
         d="M 1.8307085e-4,-9.4488179e-5 H 19766.301 V 8665.4 H 1.8307085e-4 Z"
         id="path863"
         style="stroke-width:0.999997" /></clipPath><clipPath
       clipPathUnits="userSpaceOnUse"
       id="clipPath857"><path
         d="M 1.8307085e-4,-9.4488179e-5 H 19766.301 V 8665.4 H 1.8307085e-4 Z"
         id="path859"
         style="stroke-width:0.999997" /></clipPath><clipPath
       clipPathUnits="userSpaceOnUse"
       id="clipPath853"><path
         d="M 1.8307085e-4,-9.4488179e-5 H 19766.301 V 8665.4 H 1.8307085e-4 Z"
         id="path855"
         style="stroke-width:0.999997" /></clipPath><clipPath
       clipPathUnits="userSpaceOnUse"
       id="clipPath849"><path
         d="M 1.8307085e-4,-9.4488179e-5 H 19766.301 V 8665.4 H 1.8307085e-4 Z"
         id="path851"
         style="stroke-width:0.999997" /></clipPath><clipPath
       clipPathUnits="userSpaceOnUse"
       id="clipPath845"><path
         d="M 1.8307085e-4,-9.4488179e-5 H 19766.301 V 8665.4 H 1.8307085e-4 Z"
         id="path847"
         style="stroke-width:0.999997" /></clipPath><clipPath
       clipPathUnits="userSpaceOnUse"
       id="clipPath14783"><path
         d="M 0,0 H 1024 V 768 H 0 Z"
         id="path14781" /></clipPath><clipPath
       clipPathUnits="userSpaceOnUse"
       id="clipPath15152"><path
         d="M 343.5293,107.06639 H 920.46849 V 469.8337 H 343.5293 Z"
         id="path15154"
         style="stroke-width:0.999998" /></clipPath><clipPath
       clipPathUnits="userSpaceOnUse"
       id="clipPath15156"><path
         d="M 343.5293,107.06639 H 920.46849 V 469.8337 H 343.5293 Z"
         id="path15158"
         style="stroke-width:0.999998" /></clipPath><clipPath
       clipPathUnits="userSpaceOnUse"
       id="clipPath15160"><path
         d="M 343.5293,107.06639 H 920.46849 V 469.8337 H 343.5293 Z"
         id="path15162"
         style="stroke-width:0.999998" /></clipPath><clipPath
       clipPathUnits="userSpaceOnUse"
       id="clipPath15164"><path
         d="M 343.5293,107.06639 H 920.46849 V 469.8337 H 343.5293 Z"
         id="path15166"
         style="stroke-width:0.999998" /></clipPath><clipPath
       clipPathUnits="userSpaceOnUse"
       id="clipPath15168"><path
         d="M 343.5293,107.06639 H 920.46849 V 469.8337 H 343.5293 Z"
         id="path15170"
         style="stroke-width:0.999998" /></clipPath><clipPath
       clipPathUnits="userSpaceOnUse"
       id="clipPath15172"><path
         d="M 343.5293,107.06639 H 920.46849 V 469.8337 H 343.5293 Z"
         id="path15174"
         style="stroke-width:0.999998" /></clipPath><clipPath
       clipPathUnits="userSpaceOnUse"
       id="clipPath15176"><path
         d="M 343.5293,107.06639 H 920.46849 V 469.8337 H 343.5293 Z"
         id="path15178"
         style="stroke-width:0.999998" /></clipPath><clipPath
       clipPathUnits="userSpaceOnUse"
       id="clipPath15180"><path
         d="M 343.5293,107.06639 H 920.46849 V 469.8337 H 343.5293 Z"
         id="path15182"
         style="stroke-width:0.999998" /></clipPath><clipPath
       clipPathUnits="userSpaceOnUse"
       id="clipPath15184"><path
         d="M 343.5293,107.06639 H 920.46849 V 469.8337 H 343.5293 Z"
         id="path15186"
         style="stroke-width:0.999998" /></clipPath><clipPath
       clipPathUnits="userSpaceOnUse"
       id="clipPath15188"><path
         d="M 343.5293,107.06639 H 920.46849 V 469.8337 H 343.5293 Z"
         id="path15190"
         style="stroke-width:0.999998" /></clipPath><clipPath
       clipPathUnits="userSpaceOnUse"
       id="clipPath15192"><path
         d="M 343.5293,107.06639 H 920.46849 V 469.8337 H 343.5293 Z"
         id="path15194"
         style="stroke-width:0.999998" /></clipPath><clipPath
       clipPathUnits="userSpaceOnUse"
       id="clipPath15196"><path
         d="M 343.5293,107.06639 H 920.46849 V 469.8337 H 343.5293 Z"
         id="path15198"
         style="stroke-width:0.999998" /></clipPath><clipPath
       clipPathUnits="userSpaceOnUse"
       id="clipPath15200"><path
         d="M 343.5293,107.06639 H 920.46849 V 469.8337 H 343.5293 Z"
         id="path15202"
         style="stroke-width:0.999998" /></clipPath><clipPath
       clipPathUnits="userSpaceOnUse"
       id="clipPath15204"><path
         d="M 343.5293,107.06639 H 920.46849 V 469.8337 H 343.5293 Z"
         id="path15206"
         style="stroke-width:0.999998" /></clipPath><clipPath
       clipPathUnits="userSpaceOnUse"
       id="clipPath15208"><path
         d="M 343.5293,107.06639 H 920.46849 V 469.8337 H 343.5293 Z"
         id="path15210"
         style="stroke-width:0.999998" /></clipPath><clipPath
       clipPathUnits="userSpaceOnUse"
       id="clipPath15212"><path
         d="M 343.5293,107.06639 H 920.46849 V 469.8337 H 343.5293 Z"
         id="path15214"
         style="stroke-width:0.999998" /></clipPath><clipPath
       clipPathUnits="userSpaceOnUse"
       id="clipPath15216"><path
         d="M 343.5293,107.06639 H 920.46849 V 469.8337 H 343.5293 Z"
         id="path15218"
         style="stroke-width:0.999998" /></clipPath><clipPath
       clipPathUnits="userSpaceOnUse"
       id="clipPath15220"><path
         d="M 343.5293,107.06639 H 920.46849 V 469.8337 H 343.5293 Z"
         id="path15222"
         style="stroke-width:0.999998" /></clipPath><clipPath
       clipPathUnits="userSpaceOnUse"
       id="clipPath15224"><path
         d="M 343.5293,107.06639 H 920.46849 V 469.8337 H 343.5293 Z"
         id="path15226"
         style="stroke-width:0.999998" /></clipPath></defs><g
     id="g14775"
     transform="matrix(0.35278204,0,0,-0.35278204,-64.503684,371.07092)" /></svg>
